M48
; DRILL file {KiCad 9.0.7} date 2026-03-08T14:45:11+0100
; FORMAT={-:-/ absolute / metric / decimal}
; #@! TF.CreationDate,2026-03-08T14:45:11+01:00
; #@! TF.GenerationSoftware,Kicad,Pcbnew,9.0.7
; #@! TF.FileFunction,Plated,1,4,PTH
FMAT,2
METRIC
; #@! TA.AperFunction,Plated,PTH,ViaDrill
T1C0.300
; #@! TA.AperFunction,Plated,PTH,ComponentDrill
T2C0.724
; #@! TA.AperFunction,Plated,PTH,ComponentDrill
T3C0.762
; #@! TA.AperFunction,Plated,PTH,ComponentDrill
T4C0.800
; #@! TA.AperFunction,Plated,PTH,ComponentDrill
T5C0.900
; #@! TA.AperFunction,Plated,PTH,ComponentDrill
T6C1.000
; #@! TA.AperFunction,Plated,PTH,ComponentDrill
T7C1.100
%
G90
G05
T1
X106.2Y-74.3
X107.6Y-71.5
X147.173Y-74.7
X147.7Y-78.9
T2
X100.965Y-50.165
X103.505Y-50.165
X106.045Y-50.165
X108.585Y-50.165
T3
X93.666Y-81.915
X96.166Y-81.915
X98.666Y-81.915
X101.166Y-81.915
X103.666Y-81.915
T4
X148.59Y-85.17
X148.59Y-90.17
X149.71Y-59.04
X149.71Y-64.04
X149.86Y-72.47
X149.86Y-77.47
X151.13Y-50.8
X157.33Y-57.73
X157.33Y-65.35
X157.48Y-71.12
X157.48Y-78.74
X157.48Y-83.82
X157.48Y-91.44
X158.75Y-50.8
T5
X167.64Y-49.53
X167.64Y-52.07
T6
X127.0Y-53.975
X127.0Y-56.515
X127.0Y-59.055
X127.0Y-61.595
X127.0Y-64.135
X127.0Y-66.675
X127.0Y-69.215
X127.0Y-71.755
X127.0Y-74.295
X127.0Y-76.835
X127.0Y-79.375
X127.0Y-81.915
X127.0Y-84.455
X127.0Y-86.995
X127.0Y-89.535
X142.24Y-53.975
X142.24Y-56.515
X142.24Y-59.055
X142.24Y-61.595
X142.24Y-64.135
X142.24Y-66.675
X142.24Y-69.215
X142.24Y-71.755
X142.24Y-74.295
X142.24Y-76.835
X142.24Y-79.375
X142.24Y-81.915
X142.24Y-84.455
X142.24Y-86.995
X142.24Y-89.535
T7
X163.68Y-59.0
X163.68Y-63.5
X163.83Y-71.7
X163.83Y-76.2
X163.83Y-84.4
X163.83Y-88.9
X170.18Y-59.0
X170.18Y-63.5
X170.33Y-71.7
X170.33Y-76.2
X170.33Y-84.4
X170.33Y-88.9
M30
