%TF.GenerationSoftware,KiCad,Pcbnew,9.0.7*%
%TF.CreationDate,2026-03-08T14:45:11+01:00*%
%TF.ProjectId,test,74657374-2e6b-4696-9361-645f70636258,rev?*%
%TF.SameCoordinates,Original*%
%TF.FileFunction,Drillmap*%
%TF.FilePolarity,Positive*%
%FSLAX45Y45*%
G04 Gerber Fmt 4.5, Leading zero omitted, Abs format (unit mm)*
G04 Created by KiCad (PCBNEW 9.0.7) date 2026-03-08 14:45:11*
%MOMM*%
%LPD*%
G01*
G04 APERTURE LIST*
%ADD10C,0.038100*%
%ADD11C,0.200000*%
%ADD12C,0.100000*%
%ADD13C,0.110000*%
G04 APERTURE END LIST*
D10*
X9000000Y-9700000D02*
X17400000Y-9700000D01*
X9000000Y-4600000D02*
X9000000Y-9700000D01*
X17400000Y-4600000D02*
X9000000Y-4600000D01*
X17400000Y-9700000D02*
X17400000Y-4600000D01*
D11*
D12*
X10605000Y-7415000D02*
X10635000Y-7445000D01*
X10635000Y-7415000D02*
X10605000Y-7445000D01*
X10745000Y-7135000D02*
X10775000Y-7165000D01*
X10775000Y-7135000D02*
X10745000Y-7165000D01*
X14702300Y-7455000D02*
X14732300Y-7485000D01*
X14732300Y-7455000D02*
X14702300Y-7485000D01*
X14755000Y-7875000D02*
X14785000Y-7905000D01*
X14785000Y-7875000D02*
X14755000Y-7905000D01*
X10132700Y-5016500D02*
G75*
G02*
X10060300Y-5016500I-36200J0D01*
G01*
X10060300Y-5016500D02*
G75*
G02*
X10132700Y-5016500I36200J0D01*
G01*
X10386700Y-5016500D02*
G75*
G02*
X10314300Y-5016500I-36200J0D01*
G01*
X10314300Y-5016500D02*
G75*
G02*
X10386700Y-5016500I36200J0D01*
G01*
X10640700Y-5016500D02*
G75*
G02*
X10568300Y-5016500I-36200J0D01*
G01*
X10568300Y-5016500D02*
G75*
G02*
X10640700Y-5016500I36200J0D01*
G01*
X10894700Y-5016500D02*
G75*
G02*
X10822300Y-5016500I-36200J0D01*
G01*
X10822300Y-5016500D02*
G75*
G02*
X10894700Y-5016500I36200J0D01*
G01*
X9366600Y-8153400D02*
X9366600Y-8229600D01*
X9328500Y-8191500D02*
X9404700Y-8191500D01*
X9616600Y-8153400D02*
X9616600Y-8229600D01*
X9578500Y-8191500D02*
X9654700Y-8191500D01*
X9866600Y-8153400D02*
X9866600Y-8229600D01*
X9828500Y-8191500D02*
X9904700Y-8191500D01*
X10116600Y-8153400D02*
X10116600Y-8229600D01*
X10078500Y-8191500D02*
X10154700Y-8191500D01*
X10366600Y-8153400D02*
X10366600Y-8229600D01*
X10328500Y-8191500D02*
X10404700Y-8191500D01*
X14887284Y-8545285D02*
X14887284Y-8488716D01*
X14830715Y-8488716D01*
X14830715Y-8545285D01*
X14887284Y-8545285D01*
X14887284Y-9045285D02*
X14887284Y-8988716D01*
X14830715Y-8988716D01*
X14830715Y-9045285D01*
X14887284Y-9045285D01*
X14999284Y-5932284D02*
X14999284Y-5875715D01*
X14942715Y-5875715D01*
X14942715Y-5932284D01*
X14999284Y-5932284D01*
X14999284Y-6432284D02*
X14999284Y-6375715D01*
X14942715Y-6375715D01*
X14942715Y-6432284D01*
X14999284Y-6432284D01*
X15014284Y-7275284D02*
X15014284Y-7218715D01*
X14957715Y-7218715D01*
X14957715Y-7275284D01*
X15014284Y-7275284D01*
X15014284Y-7775284D02*
X15014284Y-7718715D01*
X14957715Y-7718715D01*
X14957715Y-7775284D01*
X15014284Y-7775284D01*
X15141284Y-5108285D02*
X15141284Y-5051716D01*
X15084715Y-5051716D01*
X15084715Y-5108285D01*
X15141284Y-5108285D01*
X15761284Y-5801284D02*
X15761284Y-5744715D01*
X15704715Y-5744715D01*
X15704715Y-5801284D01*
X15761284Y-5801284D01*
X15761284Y-6563284D02*
X15761284Y-6506715D01*
X15704715Y-6506715D01*
X15704715Y-6563284D01*
X15761284Y-6563284D01*
X15776284Y-7140284D02*
X15776284Y-7083715D01*
X15719715Y-7083715D01*
X15719715Y-7140284D01*
X15776284Y-7140284D01*
X15776284Y-7902284D02*
X15776284Y-7845715D01*
X15719715Y-7845715D01*
X15719715Y-7902284D01*
X15776284Y-7902284D01*
X15776284Y-8410285D02*
X15776284Y-8353715D01*
X15719715Y-8353715D01*
X15719715Y-8410285D01*
X15776284Y-8410285D01*
X15776284Y-9172285D02*
X15776284Y-9115716D01*
X15719715Y-9115716D01*
X15719715Y-9172285D01*
X15776284Y-9172285D01*
X15903284Y-5108285D02*
X15903284Y-5051716D01*
X15846715Y-5051716D01*
X15846715Y-5108285D01*
X15903284Y-5108285D01*
X16764000Y-4998000D02*
X16809000Y-4953000D01*
X16764000Y-4908000D01*
X16719000Y-4953000D01*
X16764000Y-4998000D01*
X16764000Y-5252000D02*
X16809000Y-5207000D01*
X16764000Y-5162000D01*
X16719000Y-5207000D01*
X16764000Y-5252000D01*
X12650000Y-5347500D02*
X12750000Y-5447500D01*
X12750000Y-5347500D02*
X12650000Y-5447500D01*
X12750000Y-5397500D02*
G75*
G02*
X12650000Y-5397500I-50000J0D01*
G01*
X12650000Y-5397500D02*
G75*
G02*
X12750000Y-5397500I50000J0D01*
G01*
X12650000Y-5601500D02*
X12750000Y-5701500D01*
X12750000Y-5601500D02*
X12650000Y-5701500D01*
X12750000Y-5651500D02*
G75*
G02*
X12650000Y-5651500I-50000J0D01*
G01*
X12650000Y-5651500D02*
G75*
G02*
X12750000Y-5651500I50000J0D01*
G01*
X12650000Y-5855500D02*
X12750000Y-5955500D01*
X12750000Y-5855500D02*
X12650000Y-5955500D01*
X12750000Y-5905500D02*
G75*
G02*
X12650000Y-5905500I-50000J0D01*
G01*
X12650000Y-5905500D02*
G75*
G02*
X12750000Y-5905500I50000J0D01*
G01*
X12650000Y-6109500D02*
X12750000Y-6209500D01*
X12750000Y-6109500D02*
X12650000Y-6209500D01*
X12750000Y-6159500D02*
G75*
G02*
X12650000Y-6159500I-50000J0D01*
G01*
X12650000Y-6159500D02*
G75*
G02*
X12750000Y-6159500I50000J0D01*
G01*
X12650000Y-6363500D02*
X12750000Y-6463500D01*
X12750000Y-6363500D02*
X12650000Y-6463500D01*
X12750000Y-6413500D02*
G75*
G02*
X12650000Y-6413500I-50000J0D01*
G01*
X12650000Y-6413500D02*
G75*
G02*
X12750000Y-6413500I50000J0D01*
G01*
X12650000Y-6617500D02*
X12750000Y-6717500D01*
X12750000Y-6617500D02*
X12650000Y-6717500D01*
X12750000Y-6667500D02*
G75*
G02*
X12650000Y-6667500I-50000J0D01*
G01*
X12650000Y-6667500D02*
G75*
G02*
X12750000Y-6667500I50000J0D01*
G01*
X12650000Y-6871500D02*
X12750000Y-6971500D01*
X12750000Y-6871500D02*
X12650000Y-6971500D01*
X12750000Y-6921500D02*
G75*
G02*
X12650000Y-6921500I-50000J0D01*
G01*
X12650000Y-6921500D02*
G75*
G02*
X12750000Y-6921500I50000J0D01*
G01*
X12650000Y-7125500D02*
X12750000Y-7225500D01*
X12750000Y-7125500D02*
X12650000Y-7225500D01*
X12750000Y-7175500D02*
G75*
G02*
X12650000Y-7175500I-50000J0D01*
G01*
X12650000Y-7175500D02*
G75*
G02*
X12750000Y-7175500I50000J0D01*
G01*
X12650000Y-7379500D02*
X12750000Y-7479500D01*
X12750000Y-7379500D02*
X12650000Y-7479500D01*
X12750000Y-7429500D02*
G75*
G02*
X12650000Y-7429500I-50000J0D01*
G01*
X12650000Y-7429500D02*
G75*
G02*
X12750000Y-7429500I50000J0D01*
G01*
X12650000Y-7633500D02*
X12750000Y-7733500D01*
X12750000Y-7633500D02*
X12650000Y-7733500D01*
X12750000Y-7683500D02*
G75*
G02*
X12650000Y-7683500I-50000J0D01*
G01*
X12650000Y-7683500D02*
G75*
G02*
X12750000Y-7683500I50000J0D01*
G01*
X12650000Y-7887500D02*
X12750000Y-7987500D01*
X12750000Y-7887500D02*
X12650000Y-7987500D01*
X12750000Y-7937500D02*
G75*
G02*
X12650000Y-7937500I-50000J0D01*
G01*
X12650000Y-7937500D02*
G75*
G02*
X12750000Y-7937500I50000J0D01*
G01*
X12650000Y-8141500D02*
X12750000Y-8241500D01*
X12750000Y-8141500D02*
X12650000Y-8241500D01*
X12750000Y-8191500D02*
G75*
G02*
X12650000Y-8191500I-50000J0D01*
G01*
X12650000Y-8191500D02*
G75*
G02*
X12750000Y-8191500I50000J0D01*
G01*
X12650000Y-8395500D02*
X12750000Y-8495500D01*
X12750000Y-8395500D02*
X12650000Y-8495500D01*
X12750000Y-8445500D02*
G75*
G02*
X12650000Y-8445500I-50000J0D01*
G01*
X12650000Y-8445500D02*
G75*
G02*
X12750000Y-8445500I50000J0D01*
G01*
X12650000Y-8649500D02*
X12750000Y-8749500D01*
X12750000Y-8649500D02*
X12650000Y-8749500D01*
X12750000Y-8699500D02*
G75*
G02*
X12650000Y-8699500I-50000J0D01*
G01*
X12650000Y-8699500D02*
G75*
G02*
X12750000Y-8699500I50000J0D01*
G01*
X12650000Y-8903500D02*
X12750000Y-9003500D01*
X12750000Y-8903500D02*
X12650000Y-9003500D01*
X12750000Y-8953500D02*
G75*
G02*
X12650000Y-8953500I-50000J0D01*
G01*
X12650000Y-8953500D02*
G75*
G02*
X12750000Y-8953500I50000J0D01*
G01*
X14174000Y-5347500D02*
X14274000Y-5447500D01*
X14274000Y-5347500D02*
X14174000Y-5447500D01*
X14274000Y-5397500D02*
G75*
G02*
X14174000Y-5397500I-50000J0D01*
G01*
X14174000Y-5397500D02*
G75*
G02*
X14274000Y-5397500I50000J0D01*
G01*
X14174000Y-5601500D02*
X14274000Y-5701500D01*
X14274000Y-5601500D02*
X14174000Y-5701500D01*
X14274000Y-5651500D02*
G75*
G02*
X14174000Y-5651500I-50000J0D01*
G01*
X14174000Y-5651500D02*
G75*
G02*
X14274000Y-5651500I50000J0D01*
G01*
X14174000Y-5855500D02*
X14274000Y-5955500D01*
X14274000Y-5855500D02*
X14174000Y-5955500D01*
X14274000Y-5905500D02*
G75*
G02*
X14174000Y-5905500I-50000J0D01*
G01*
X14174000Y-5905500D02*
G75*
G02*
X14274000Y-5905500I50000J0D01*
G01*
X14174000Y-6109500D02*
X14274000Y-6209500D01*
X14274000Y-6109500D02*
X14174000Y-6209500D01*
X14274000Y-6159500D02*
G75*
G02*
X14174000Y-6159500I-50000J0D01*
G01*
X14174000Y-6159500D02*
G75*
G02*
X14274000Y-6159500I50000J0D01*
G01*
X14174000Y-6363500D02*
X14274000Y-6463500D01*
X14274000Y-6363500D02*
X14174000Y-6463500D01*
X14274000Y-6413500D02*
G75*
G02*
X14174000Y-6413500I-50000J0D01*
G01*
X14174000Y-6413500D02*
G75*
G02*
X14274000Y-6413500I50000J0D01*
G01*
X14174000Y-6617500D02*
X14274000Y-6717500D01*
X14274000Y-6617500D02*
X14174000Y-6717500D01*
X14274000Y-6667500D02*
G75*
G02*
X14174000Y-6667500I-50000J0D01*
G01*
X14174000Y-6667500D02*
G75*
G02*
X14274000Y-6667500I50000J0D01*
G01*
X14174000Y-6871500D02*
X14274000Y-6971500D01*
X14274000Y-6871500D02*
X14174000Y-6971500D01*
X14274000Y-6921500D02*
G75*
G02*
X14174000Y-6921500I-50000J0D01*
G01*
X14174000Y-6921500D02*
G75*
G02*
X14274000Y-6921500I50000J0D01*
G01*
X14174000Y-7125500D02*
X14274000Y-7225500D01*
X14274000Y-7125500D02*
X14174000Y-7225500D01*
X14274000Y-7175500D02*
G75*
G02*
X14174000Y-7175500I-50000J0D01*
G01*
X14174000Y-7175500D02*
G75*
G02*
X14274000Y-7175500I50000J0D01*
G01*
X14174000Y-7379500D02*
X14274000Y-7479500D01*
X14274000Y-7379500D02*
X14174000Y-7479500D01*
X14274000Y-7429500D02*
G75*
G02*
X14174000Y-7429500I-50000J0D01*
G01*
X14174000Y-7429500D02*
G75*
G02*
X14274000Y-7429500I50000J0D01*
G01*
X14174000Y-7633500D02*
X14274000Y-7733500D01*
X14274000Y-7633500D02*
X14174000Y-7733500D01*
X14274000Y-7683500D02*
G75*
G02*
X14174000Y-7683500I-50000J0D01*
G01*
X14174000Y-7683500D02*
G75*
G02*
X14274000Y-7683500I50000J0D01*
G01*
X14174000Y-7887500D02*
X14274000Y-7987500D01*
X14274000Y-7887500D02*
X14174000Y-7987500D01*
X14274000Y-7937500D02*
G75*
G02*
X14174000Y-7937500I-50000J0D01*
G01*
X14174000Y-7937500D02*
G75*
G02*
X14274000Y-7937500I50000J0D01*
G01*
X14174000Y-8141500D02*
X14274000Y-8241500D01*
X14274000Y-8141500D02*
X14174000Y-8241500D01*
X14274000Y-8191500D02*
G75*
G02*
X14174000Y-8191500I-50000J0D01*
G01*
X14174000Y-8191500D02*
G75*
G02*
X14274000Y-8191500I50000J0D01*
G01*
X14174000Y-8395500D02*
X14274000Y-8495500D01*
X14274000Y-8395500D02*
X14174000Y-8495500D01*
X14274000Y-8445500D02*
G75*
G02*
X14174000Y-8445500I-50000J0D01*
G01*
X14174000Y-8445500D02*
G75*
G02*
X14274000Y-8445500I50000J0D01*
G01*
X14174000Y-8649500D02*
X14274000Y-8749500D01*
X14274000Y-8649500D02*
X14174000Y-8749500D01*
X14274000Y-8699500D02*
G75*
G02*
X14174000Y-8699500I-50000J0D01*
G01*
X14174000Y-8699500D02*
G75*
G02*
X14274000Y-8699500I50000J0D01*
G01*
X14174000Y-8903500D02*
X14274000Y-9003500D01*
X14274000Y-8903500D02*
X14174000Y-9003500D01*
X14274000Y-8953500D02*
G75*
G02*
X14174000Y-8953500I-50000J0D01*
G01*
X14174000Y-8953500D02*
G75*
G02*
X14274000Y-8953500I50000J0D01*
G01*
D13*
X16313000Y-5845000D02*
X16423000Y-5955000D01*
X16423000Y-5845000D02*
X16313000Y-5955000D01*
X16368000Y-5845000D02*
X16368000Y-5955000D01*
X16313000Y-5900000D02*
X16423000Y-5900000D01*
X16313000Y-6295000D02*
X16423000Y-6405000D01*
X16423000Y-6295000D02*
X16313000Y-6405000D01*
X16368000Y-6295000D02*
X16368000Y-6405000D01*
X16313000Y-6350000D02*
X16423000Y-6350000D01*
X16328000Y-7115000D02*
X16438000Y-7225000D01*
X16438000Y-7115000D02*
X16328000Y-7225000D01*
X16383000Y-7115000D02*
X16383000Y-7225000D01*
X16328000Y-7170000D02*
X16438000Y-7170000D01*
X16328000Y-7565000D02*
X16438000Y-7675000D01*
X16438000Y-7565000D02*
X16328000Y-7675000D01*
X16383000Y-7565000D02*
X16383000Y-7675000D01*
X16328000Y-7620000D02*
X16438000Y-7620000D01*
X16328000Y-8385000D02*
X16438000Y-8495000D01*
X16438000Y-8385000D02*
X16328000Y-8495000D01*
X16383000Y-8385000D02*
X16383000Y-8495000D01*
X16328000Y-8440000D02*
X16438000Y-8440000D01*
X16328000Y-8835000D02*
X16438000Y-8945000D01*
X16438000Y-8835000D02*
X16328000Y-8945000D01*
X16383000Y-8835000D02*
X16383000Y-8945000D01*
X16328000Y-8890000D02*
X16438000Y-8890000D01*
X16963000Y-5845000D02*
X17073000Y-5955000D01*
X17073000Y-5845000D02*
X16963000Y-5955000D01*
X17018000Y-5845000D02*
X17018000Y-5955000D01*
X16963000Y-5900000D02*
X17073000Y-5900000D01*
X16963000Y-6295000D02*
X17073000Y-6405000D01*
X17073000Y-6295000D02*
X16963000Y-6405000D01*
X17018000Y-6295000D02*
X17018000Y-6405000D01*
X16963000Y-6350000D02*
X17073000Y-6350000D01*
X16978000Y-7115000D02*
X17088000Y-7225000D01*
X17088000Y-7115000D02*
X16978000Y-7225000D01*
X17033000Y-7115000D02*
X17033000Y-7225000D01*
X16978000Y-7170000D02*
X17088000Y-7170000D01*
X16978000Y-7565000D02*
X17088000Y-7675000D01*
X17088000Y-7565000D02*
X16978000Y-7675000D01*
X17033000Y-7565000D02*
X17033000Y-7675000D01*
X16978000Y-7620000D02*
X17088000Y-7620000D01*
X16978000Y-8385000D02*
X17088000Y-8495000D01*
X17088000Y-8385000D02*
X16978000Y-8495000D01*
X17033000Y-8385000D02*
X17033000Y-8495000D01*
X16978000Y-8440000D02*
X17088000Y-8440000D01*
X16978000Y-8835000D02*
X17088000Y-8945000D01*
X17088000Y-8835000D02*
X16978000Y-8945000D01*
X17033000Y-8835000D02*
X17033000Y-8945000D01*
X16978000Y-8890000D02*
X17088000Y-8890000D01*
D11*
X9258872Y-10013389D02*
X9258872Y-9813389D01*
X9258872Y-9813389D02*
X9306491Y-9813389D01*
X9306491Y-9813389D02*
X9335062Y-9822913D01*
X9335062Y-9822913D02*
X9354110Y-9841960D01*
X9354110Y-9841960D02*
X9363634Y-9861008D01*
X9363634Y-9861008D02*
X9373158Y-9899103D01*
X9373158Y-9899103D02*
X9373158Y-9927675D01*
X9373158Y-9927675D02*
X9363634Y-9965770D01*
X9363634Y-9965770D02*
X9354110Y-9984817D01*
X9354110Y-9984817D02*
X9335062Y-10003865D01*
X9335062Y-10003865D02*
X9306491Y-10013389D01*
X9306491Y-10013389D02*
X9258872Y-10013389D01*
X9458872Y-10013389D02*
X9458872Y-9880055D01*
X9458872Y-9918151D02*
X9468396Y-9899103D01*
X9468396Y-9899103D02*
X9477919Y-9889579D01*
X9477919Y-9889579D02*
X9496967Y-9880055D01*
X9496967Y-9880055D02*
X9516015Y-9880055D01*
X9582681Y-10013389D02*
X9582681Y-9880055D01*
X9582681Y-9813389D02*
X9573158Y-9822913D01*
X9573158Y-9822913D02*
X9582681Y-9832436D01*
X9582681Y-9832436D02*
X9592205Y-9822913D01*
X9592205Y-9822913D02*
X9582681Y-9813389D01*
X9582681Y-9813389D02*
X9582681Y-9832436D01*
X9706491Y-10013389D02*
X9687443Y-10003865D01*
X9687443Y-10003865D02*
X9677919Y-9984817D01*
X9677919Y-9984817D02*
X9677919Y-9813389D01*
X9811253Y-10013389D02*
X9792205Y-10003865D01*
X9792205Y-10003865D02*
X9782681Y-9984817D01*
X9782681Y-9984817D02*
X9782681Y-9813389D01*
X10039824Y-10013389D02*
X10039824Y-9813389D01*
X10039824Y-9813389D02*
X10106491Y-9956246D01*
X10106491Y-9956246D02*
X10173158Y-9813389D01*
X10173158Y-9813389D02*
X10173158Y-10013389D01*
X10354110Y-10013389D02*
X10354110Y-9908627D01*
X10354110Y-9908627D02*
X10344586Y-9889579D01*
X10344586Y-9889579D02*
X10325539Y-9880055D01*
X10325539Y-9880055D02*
X10287443Y-9880055D01*
X10287443Y-9880055D02*
X10268396Y-9889579D01*
X10354110Y-10003865D02*
X10335062Y-10013389D01*
X10335062Y-10013389D02*
X10287443Y-10013389D01*
X10287443Y-10013389D02*
X10268396Y-10003865D01*
X10268396Y-10003865D02*
X10258872Y-9984817D01*
X10258872Y-9984817D02*
X10258872Y-9965770D01*
X10258872Y-9965770D02*
X10268396Y-9946722D01*
X10268396Y-9946722D02*
X10287443Y-9937198D01*
X10287443Y-9937198D02*
X10335062Y-9937198D01*
X10335062Y-9937198D02*
X10354110Y-9927675D01*
X10449348Y-9880055D02*
X10449348Y-10080055D01*
X10449348Y-9889579D02*
X10468396Y-9880055D01*
X10468396Y-9880055D02*
X10506491Y-9880055D01*
X10506491Y-9880055D02*
X10525539Y-9889579D01*
X10525539Y-9889579D02*
X10535062Y-9899103D01*
X10535062Y-9899103D02*
X10544586Y-9918151D01*
X10544586Y-9918151D02*
X10544586Y-9975294D01*
X10544586Y-9975294D02*
X10535062Y-9994341D01*
X10535062Y-9994341D02*
X10525539Y-10003865D01*
X10525539Y-10003865D02*
X10506491Y-10013389D01*
X10506491Y-10013389D02*
X10468396Y-10013389D01*
X10468396Y-10013389D02*
X10449348Y-10003865D01*
X10630300Y-9994341D02*
X10639824Y-10003865D01*
X10639824Y-10003865D02*
X10630300Y-10013389D01*
X10630300Y-10013389D02*
X10620777Y-10003865D01*
X10620777Y-10003865D02*
X10630300Y-9994341D01*
X10630300Y-9994341D02*
X10630300Y-10013389D01*
X10630300Y-9889579D02*
X10639824Y-9899103D01*
X10639824Y-9899103D02*
X10630300Y-9908627D01*
X10630300Y-9908627D02*
X10620777Y-9899103D01*
X10620777Y-9899103D02*
X10630300Y-9889579D01*
X10630300Y-9889579D02*
X10630300Y-9908627D01*
D12*
X8968095Y-10326905D02*
X8998095Y-10356905D01*
X8998095Y-10326905D02*
X8968095Y-10356905D01*
D11*
X9296967Y-10233389D02*
X9316015Y-10233389D01*
X9316015Y-10233389D02*
X9335062Y-10242913D01*
X9335062Y-10242913D02*
X9344586Y-10252436D01*
X9344586Y-10252436D02*
X9354110Y-10271484D01*
X9354110Y-10271484D02*
X9363634Y-10309579D01*
X9363634Y-10309579D02*
X9363634Y-10357198D01*
X9363634Y-10357198D02*
X9354110Y-10395294D01*
X9354110Y-10395294D02*
X9344586Y-10414341D01*
X9344586Y-10414341D02*
X9335062Y-10423865D01*
X9335062Y-10423865D02*
X9316015Y-10433389D01*
X9316015Y-10433389D02*
X9296967Y-10433389D01*
X9296967Y-10433389D02*
X9277919Y-10423865D01*
X9277919Y-10423865D02*
X9268396Y-10414341D01*
X9268396Y-10414341D02*
X9258872Y-10395294D01*
X9258872Y-10395294D02*
X9249348Y-10357198D01*
X9249348Y-10357198D02*
X9249348Y-10309579D01*
X9249348Y-10309579D02*
X9258872Y-10271484D01*
X9258872Y-10271484D02*
X9268396Y-10252436D01*
X9268396Y-10252436D02*
X9277919Y-10242913D01*
X9277919Y-10242913D02*
X9296967Y-10233389D01*
X9449348Y-10414341D02*
X9458872Y-10423865D01*
X9458872Y-10423865D02*
X9449348Y-10433389D01*
X9449348Y-10433389D02*
X9439824Y-10423865D01*
X9439824Y-10423865D02*
X9449348Y-10414341D01*
X9449348Y-10414341D02*
X9449348Y-10433389D01*
X9525539Y-10233389D02*
X9649348Y-10233389D01*
X9649348Y-10233389D02*
X9582681Y-10309579D01*
X9582681Y-10309579D02*
X9611253Y-10309579D01*
X9611253Y-10309579D02*
X9630300Y-10319103D01*
X9630300Y-10319103D02*
X9639824Y-10328627D01*
X9639824Y-10328627D02*
X9649348Y-10347675D01*
X9649348Y-10347675D02*
X9649348Y-10395294D01*
X9649348Y-10395294D02*
X9639824Y-10414341D01*
X9639824Y-10414341D02*
X9630300Y-10423865D01*
X9630300Y-10423865D02*
X9611253Y-10433389D01*
X9611253Y-10433389D02*
X9554110Y-10433389D01*
X9554110Y-10433389D02*
X9535062Y-10423865D01*
X9535062Y-10423865D02*
X9525539Y-10414341D01*
X9773158Y-10233389D02*
X9792205Y-10233389D01*
X9792205Y-10233389D02*
X9811253Y-10242913D01*
X9811253Y-10242913D02*
X9820777Y-10252436D01*
X9820777Y-10252436D02*
X9830300Y-10271484D01*
X9830300Y-10271484D02*
X9839824Y-10309579D01*
X9839824Y-10309579D02*
X9839824Y-10357198D01*
X9839824Y-10357198D02*
X9830300Y-10395294D01*
X9830300Y-10395294D02*
X9820777Y-10414341D01*
X9820777Y-10414341D02*
X9811253Y-10423865D01*
X9811253Y-10423865D02*
X9792205Y-10433389D01*
X9792205Y-10433389D02*
X9773158Y-10433389D01*
X9773158Y-10433389D02*
X9754110Y-10423865D01*
X9754110Y-10423865D02*
X9744586Y-10414341D01*
X9744586Y-10414341D02*
X9735062Y-10395294D01*
X9735062Y-10395294D02*
X9725539Y-10357198D01*
X9725539Y-10357198D02*
X9725539Y-10309579D01*
X9725539Y-10309579D02*
X9735062Y-10271484D01*
X9735062Y-10271484D02*
X9744586Y-10252436D01*
X9744586Y-10252436D02*
X9754110Y-10242913D01*
X9754110Y-10242913D02*
X9773158Y-10233389D01*
X9963634Y-10233389D02*
X9982681Y-10233389D01*
X9982681Y-10233389D02*
X10001729Y-10242913D01*
X10001729Y-10242913D02*
X10011253Y-10252436D01*
X10011253Y-10252436D02*
X10020777Y-10271484D01*
X10020777Y-10271484D02*
X10030300Y-10309579D01*
X10030300Y-10309579D02*
X10030300Y-10357198D01*
X10030300Y-10357198D02*
X10020777Y-10395294D01*
X10020777Y-10395294D02*
X10011253Y-10414341D01*
X10011253Y-10414341D02*
X10001729Y-10423865D01*
X10001729Y-10423865D02*
X9982681Y-10433389D01*
X9982681Y-10433389D02*
X9963634Y-10433389D01*
X9963634Y-10433389D02*
X9944586Y-10423865D01*
X9944586Y-10423865D02*
X9935062Y-10414341D01*
X9935062Y-10414341D02*
X9925539Y-10395294D01*
X9925539Y-10395294D02*
X9916015Y-10357198D01*
X9916015Y-10357198D02*
X9916015Y-10309579D01*
X9916015Y-10309579D02*
X9925539Y-10271484D01*
X9925539Y-10271484D02*
X9935062Y-10252436D01*
X9935062Y-10252436D02*
X9944586Y-10242913D01*
X9944586Y-10242913D02*
X9963634Y-10233389D01*
X10116015Y-10433389D02*
X10116015Y-10300055D01*
X10116015Y-10319103D02*
X10125539Y-10309579D01*
X10125539Y-10309579D02*
X10144586Y-10300055D01*
X10144586Y-10300055D02*
X10173158Y-10300055D01*
X10173158Y-10300055D02*
X10192205Y-10309579D01*
X10192205Y-10309579D02*
X10201729Y-10328627D01*
X10201729Y-10328627D02*
X10201729Y-10433389D01*
X10201729Y-10328627D02*
X10211253Y-10309579D01*
X10211253Y-10309579D02*
X10230300Y-10300055D01*
X10230300Y-10300055D02*
X10258872Y-10300055D01*
X10258872Y-10300055D02*
X10277920Y-10309579D01*
X10277920Y-10309579D02*
X10287443Y-10328627D01*
X10287443Y-10328627D02*
X10287443Y-10433389D01*
X10382681Y-10433389D02*
X10382681Y-10300055D01*
X10382681Y-10319103D02*
X10392205Y-10309579D01*
X10392205Y-10309579D02*
X10411253Y-10300055D01*
X10411253Y-10300055D02*
X10439824Y-10300055D01*
X10439824Y-10300055D02*
X10458872Y-10309579D01*
X10458872Y-10309579D02*
X10468396Y-10328627D01*
X10468396Y-10328627D02*
X10468396Y-10433389D01*
X10468396Y-10328627D02*
X10477920Y-10309579D01*
X10477920Y-10309579D02*
X10496967Y-10300055D01*
X10496967Y-10300055D02*
X10525539Y-10300055D01*
X10525539Y-10300055D02*
X10544586Y-10309579D01*
X10544586Y-10309579D02*
X10554110Y-10328627D01*
X10554110Y-10328627D02*
X10554110Y-10433389D01*
X10944586Y-10223865D02*
X10773158Y-10481008D01*
X11201729Y-10233389D02*
X11220777Y-10233389D01*
X11220777Y-10233389D02*
X11239824Y-10242913D01*
X11239824Y-10242913D02*
X11249348Y-10252436D01*
X11249348Y-10252436D02*
X11258872Y-10271484D01*
X11258872Y-10271484D02*
X11268396Y-10309579D01*
X11268396Y-10309579D02*
X11268396Y-10357198D01*
X11268396Y-10357198D02*
X11258872Y-10395294D01*
X11258872Y-10395294D02*
X11249348Y-10414341D01*
X11249348Y-10414341D02*
X11239824Y-10423865D01*
X11239824Y-10423865D02*
X11220777Y-10433389D01*
X11220777Y-10433389D02*
X11201729Y-10433389D01*
X11201729Y-10433389D02*
X11182682Y-10423865D01*
X11182682Y-10423865D02*
X11173158Y-10414341D01*
X11173158Y-10414341D02*
X11163634Y-10395294D01*
X11163634Y-10395294D02*
X11154110Y-10357198D01*
X11154110Y-10357198D02*
X11154110Y-10309579D01*
X11154110Y-10309579D02*
X11163634Y-10271484D01*
X11163634Y-10271484D02*
X11173158Y-10252436D01*
X11173158Y-10252436D02*
X11182682Y-10242913D01*
X11182682Y-10242913D02*
X11201729Y-10233389D01*
X11354110Y-10414341D02*
X11363634Y-10423865D01*
X11363634Y-10423865D02*
X11354110Y-10433389D01*
X11354110Y-10433389D02*
X11344586Y-10423865D01*
X11344586Y-10423865D02*
X11354110Y-10414341D01*
X11354110Y-10414341D02*
X11354110Y-10433389D01*
X11487443Y-10233389D02*
X11506491Y-10233389D01*
X11506491Y-10233389D02*
X11525539Y-10242913D01*
X11525539Y-10242913D02*
X11535062Y-10252436D01*
X11535062Y-10252436D02*
X11544586Y-10271484D01*
X11544586Y-10271484D02*
X11554110Y-10309579D01*
X11554110Y-10309579D02*
X11554110Y-10357198D01*
X11554110Y-10357198D02*
X11544586Y-10395294D01*
X11544586Y-10395294D02*
X11535062Y-10414341D01*
X11535062Y-10414341D02*
X11525539Y-10423865D01*
X11525539Y-10423865D02*
X11506491Y-10433389D01*
X11506491Y-10433389D02*
X11487443Y-10433389D01*
X11487443Y-10433389D02*
X11468396Y-10423865D01*
X11468396Y-10423865D02*
X11458872Y-10414341D01*
X11458872Y-10414341D02*
X11449348Y-10395294D01*
X11449348Y-10395294D02*
X11439824Y-10357198D01*
X11439824Y-10357198D02*
X11439824Y-10309579D01*
X11439824Y-10309579D02*
X11449348Y-10271484D01*
X11449348Y-10271484D02*
X11458872Y-10252436D01*
X11458872Y-10252436D02*
X11468396Y-10242913D01*
X11468396Y-10242913D02*
X11487443Y-10233389D01*
X11744586Y-10433389D02*
X11630301Y-10433389D01*
X11687443Y-10433389D02*
X11687443Y-10233389D01*
X11687443Y-10233389D02*
X11668396Y-10261960D01*
X11668396Y-10261960D02*
X11649348Y-10281008D01*
X11649348Y-10281008D02*
X11630301Y-10290532D01*
X11935062Y-10433389D02*
X11820777Y-10433389D01*
X11877920Y-10433389D02*
X11877920Y-10233389D01*
X11877920Y-10233389D02*
X11858872Y-10261960D01*
X11858872Y-10261960D02*
X11839824Y-10281008D01*
X11839824Y-10281008D02*
X11820777Y-10290532D01*
X12049348Y-10319103D02*
X12030301Y-10309579D01*
X12030301Y-10309579D02*
X12020777Y-10300055D01*
X12020777Y-10300055D02*
X12011253Y-10281008D01*
X12011253Y-10281008D02*
X12011253Y-10271484D01*
X12011253Y-10271484D02*
X12020777Y-10252436D01*
X12020777Y-10252436D02*
X12030301Y-10242913D01*
X12030301Y-10242913D02*
X12049348Y-10233389D01*
X12049348Y-10233389D02*
X12087443Y-10233389D01*
X12087443Y-10233389D02*
X12106491Y-10242913D01*
X12106491Y-10242913D02*
X12116015Y-10252436D01*
X12116015Y-10252436D02*
X12125539Y-10271484D01*
X12125539Y-10271484D02*
X12125539Y-10281008D01*
X12125539Y-10281008D02*
X12116015Y-10300055D01*
X12116015Y-10300055D02*
X12106491Y-10309579D01*
X12106491Y-10309579D02*
X12087443Y-10319103D01*
X12087443Y-10319103D02*
X12049348Y-10319103D01*
X12049348Y-10319103D02*
X12030301Y-10328627D01*
X12030301Y-10328627D02*
X12020777Y-10338151D01*
X12020777Y-10338151D02*
X12011253Y-10357198D01*
X12011253Y-10357198D02*
X12011253Y-10395294D01*
X12011253Y-10395294D02*
X12020777Y-10414341D01*
X12020777Y-10414341D02*
X12030301Y-10423865D01*
X12030301Y-10423865D02*
X12049348Y-10433389D01*
X12049348Y-10433389D02*
X12087443Y-10433389D01*
X12087443Y-10433389D02*
X12106491Y-10423865D01*
X12106491Y-10423865D02*
X12116015Y-10414341D01*
X12116015Y-10414341D02*
X12125539Y-10395294D01*
X12125539Y-10395294D02*
X12125539Y-10357198D01*
X12125539Y-10357198D02*
X12116015Y-10338151D01*
X12116015Y-10338151D02*
X12106491Y-10328627D01*
X12106491Y-10328627D02*
X12087443Y-10319103D01*
X12201729Y-10233389D02*
X12201729Y-10271484D01*
X12277920Y-10233389D02*
X12277920Y-10271484D01*
X12573158Y-10509579D02*
X12563634Y-10500055D01*
X12563634Y-10500055D02*
X12544586Y-10471484D01*
X12544586Y-10471484D02*
X12535063Y-10452436D01*
X12535063Y-10452436D02*
X12525539Y-10423865D01*
X12525539Y-10423865D02*
X12516015Y-10376246D01*
X12516015Y-10376246D02*
X12516015Y-10338151D01*
X12516015Y-10338151D02*
X12525539Y-10290532D01*
X12525539Y-10290532D02*
X12535063Y-10261960D01*
X12535063Y-10261960D02*
X12544586Y-10242913D01*
X12544586Y-10242913D02*
X12563634Y-10214341D01*
X12563634Y-10214341D02*
X12573158Y-10204817D01*
X12735063Y-10300055D02*
X12735063Y-10433389D01*
X12687443Y-10223865D02*
X12639824Y-10366722D01*
X12639824Y-10366722D02*
X12763634Y-10366722D01*
X12992205Y-10433389D02*
X12992205Y-10233389D01*
X13077920Y-10433389D02*
X13077920Y-10328627D01*
X13077920Y-10328627D02*
X13068396Y-10309579D01*
X13068396Y-10309579D02*
X13049348Y-10300055D01*
X13049348Y-10300055D02*
X13020777Y-10300055D01*
X13020777Y-10300055D02*
X13001729Y-10309579D01*
X13001729Y-10309579D02*
X12992205Y-10319103D01*
X13201729Y-10433389D02*
X13182682Y-10423865D01*
X13182682Y-10423865D02*
X13173158Y-10414341D01*
X13173158Y-10414341D02*
X13163634Y-10395294D01*
X13163634Y-10395294D02*
X13163634Y-10338151D01*
X13163634Y-10338151D02*
X13173158Y-10319103D01*
X13173158Y-10319103D02*
X13182682Y-10309579D01*
X13182682Y-10309579D02*
X13201729Y-10300055D01*
X13201729Y-10300055D02*
X13230301Y-10300055D01*
X13230301Y-10300055D02*
X13249348Y-10309579D01*
X13249348Y-10309579D02*
X13258872Y-10319103D01*
X13258872Y-10319103D02*
X13268396Y-10338151D01*
X13268396Y-10338151D02*
X13268396Y-10395294D01*
X13268396Y-10395294D02*
X13258872Y-10414341D01*
X13258872Y-10414341D02*
X13249348Y-10423865D01*
X13249348Y-10423865D02*
X13230301Y-10433389D01*
X13230301Y-10433389D02*
X13201729Y-10433389D01*
X13382682Y-10433389D02*
X13363634Y-10423865D01*
X13363634Y-10423865D02*
X13354110Y-10404817D01*
X13354110Y-10404817D02*
X13354110Y-10233389D01*
X13535063Y-10423865D02*
X13516015Y-10433389D01*
X13516015Y-10433389D02*
X13477920Y-10433389D01*
X13477920Y-10433389D02*
X13458872Y-10423865D01*
X13458872Y-10423865D02*
X13449348Y-10404817D01*
X13449348Y-10404817D02*
X13449348Y-10328627D01*
X13449348Y-10328627D02*
X13458872Y-10309579D01*
X13458872Y-10309579D02*
X13477920Y-10300055D01*
X13477920Y-10300055D02*
X13516015Y-10300055D01*
X13516015Y-10300055D02*
X13535063Y-10309579D01*
X13535063Y-10309579D02*
X13544586Y-10328627D01*
X13544586Y-10328627D02*
X13544586Y-10347675D01*
X13544586Y-10347675D02*
X13449348Y-10366722D01*
X13620777Y-10423865D02*
X13639825Y-10433389D01*
X13639825Y-10433389D02*
X13677920Y-10433389D01*
X13677920Y-10433389D02*
X13696967Y-10423865D01*
X13696967Y-10423865D02*
X13706491Y-10404817D01*
X13706491Y-10404817D02*
X13706491Y-10395294D01*
X13706491Y-10395294D02*
X13696967Y-10376246D01*
X13696967Y-10376246D02*
X13677920Y-10366722D01*
X13677920Y-10366722D02*
X13649348Y-10366722D01*
X13649348Y-10366722D02*
X13630301Y-10357198D01*
X13630301Y-10357198D02*
X13620777Y-10338151D01*
X13620777Y-10338151D02*
X13620777Y-10328627D01*
X13620777Y-10328627D02*
X13630301Y-10309579D01*
X13630301Y-10309579D02*
X13649348Y-10300055D01*
X13649348Y-10300055D02*
X13677920Y-10300055D01*
X13677920Y-10300055D02*
X13696967Y-10309579D01*
X13773158Y-10509579D02*
X13782682Y-10500055D01*
X13782682Y-10500055D02*
X13801729Y-10471484D01*
X13801729Y-10471484D02*
X13811253Y-10452436D01*
X13811253Y-10452436D02*
X13820777Y-10423865D01*
X13820777Y-10423865D02*
X13830301Y-10376246D01*
X13830301Y-10376246D02*
X13830301Y-10338151D01*
X13830301Y-10338151D02*
X13820777Y-10290532D01*
X13820777Y-10290532D02*
X13811253Y-10261960D01*
X13811253Y-10261960D02*
X13801729Y-10242913D01*
X13801729Y-10242913D02*
X13782682Y-10214341D01*
X13782682Y-10214341D02*
X13773158Y-10204817D01*
D12*
X8998095Y-10605905D02*
G75*
G02*
X8925695Y-10605905I-36200J0D01*
G01*
X8925695Y-10605905D02*
G75*
G02*
X8998095Y-10605905I36200J0D01*
G01*
D11*
X9296967Y-10497389D02*
X9316015Y-10497389D01*
X9316015Y-10497389D02*
X9335062Y-10506913D01*
X9335062Y-10506913D02*
X9344586Y-10516436D01*
X9344586Y-10516436D02*
X9354110Y-10535484D01*
X9354110Y-10535484D02*
X9363634Y-10573579D01*
X9363634Y-10573579D02*
X9363634Y-10621198D01*
X9363634Y-10621198D02*
X9354110Y-10659294D01*
X9354110Y-10659294D02*
X9344586Y-10678341D01*
X9344586Y-10678341D02*
X9335062Y-10687865D01*
X9335062Y-10687865D02*
X9316015Y-10697389D01*
X9316015Y-10697389D02*
X9296967Y-10697389D01*
X9296967Y-10697389D02*
X9277919Y-10687865D01*
X9277919Y-10687865D02*
X9268396Y-10678341D01*
X9268396Y-10678341D02*
X9258872Y-10659294D01*
X9258872Y-10659294D02*
X9249348Y-10621198D01*
X9249348Y-10621198D02*
X9249348Y-10573579D01*
X9249348Y-10573579D02*
X9258872Y-10535484D01*
X9258872Y-10535484D02*
X9268396Y-10516436D01*
X9268396Y-10516436D02*
X9277919Y-10506913D01*
X9277919Y-10506913D02*
X9296967Y-10497389D01*
X9449348Y-10678341D02*
X9458872Y-10687865D01*
X9458872Y-10687865D02*
X9449348Y-10697389D01*
X9449348Y-10697389D02*
X9439824Y-10687865D01*
X9439824Y-10687865D02*
X9449348Y-10678341D01*
X9449348Y-10678341D02*
X9449348Y-10697389D01*
X9525539Y-10497389D02*
X9658872Y-10497389D01*
X9658872Y-10497389D02*
X9573158Y-10697389D01*
X9725539Y-10516436D02*
X9735062Y-10506913D01*
X9735062Y-10506913D02*
X9754110Y-10497389D01*
X9754110Y-10497389D02*
X9801729Y-10497389D01*
X9801729Y-10497389D02*
X9820777Y-10506913D01*
X9820777Y-10506913D02*
X9830300Y-10516436D01*
X9830300Y-10516436D02*
X9839824Y-10535484D01*
X9839824Y-10535484D02*
X9839824Y-10554532D01*
X9839824Y-10554532D02*
X9830300Y-10583103D01*
X9830300Y-10583103D02*
X9716015Y-10697389D01*
X9716015Y-10697389D02*
X9839824Y-10697389D01*
X10011253Y-10564055D02*
X10011253Y-10697389D01*
X9963634Y-10487865D02*
X9916015Y-10630722D01*
X9916015Y-10630722D02*
X10039824Y-10630722D01*
X10116015Y-10697389D02*
X10116015Y-10564055D01*
X10116015Y-10583103D02*
X10125539Y-10573579D01*
X10125539Y-10573579D02*
X10144586Y-10564055D01*
X10144586Y-10564055D02*
X10173158Y-10564055D01*
X10173158Y-10564055D02*
X10192205Y-10573579D01*
X10192205Y-10573579D02*
X10201729Y-10592627D01*
X10201729Y-10592627D02*
X10201729Y-10697389D01*
X10201729Y-10592627D02*
X10211253Y-10573579D01*
X10211253Y-10573579D02*
X10230300Y-10564055D01*
X10230300Y-10564055D02*
X10258872Y-10564055D01*
X10258872Y-10564055D02*
X10277920Y-10573579D01*
X10277920Y-10573579D02*
X10287443Y-10592627D01*
X10287443Y-10592627D02*
X10287443Y-10697389D01*
X10382681Y-10697389D02*
X10382681Y-10564055D01*
X10382681Y-10583103D02*
X10392205Y-10573579D01*
X10392205Y-10573579D02*
X10411253Y-10564055D01*
X10411253Y-10564055D02*
X10439824Y-10564055D01*
X10439824Y-10564055D02*
X10458872Y-10573579D01*
X10458872Y-10573579D02*
X10468396Y-10592627D01*
X10468396Y-10592627D02*
X10468396Y-10697389D01*
X10468396Y-10592627D02*
X10477920Y-10573579D01*
X10477920Y-10573579D02*
X10496967Y-10564055D01*
X10496967Y-10564055D02*
X10525539Y-10564055D01*
X10525539Y-10564055D02*
X10544586Y-10573579D01*
X10544586Y-10573579D02*
X10554110Y-10592627D01*
X10554110Y-10592627D02*
X10554110Y-10697389D01*
X10944586Y-10487865D02*
X10773158Y-10745008D01*
X11201729Y-10497389D02*
X11220777Y-10497389D01*
X11220777Y-10497389D02*
X11239824Y-10506913D01*
X11239824Y-10506913D02*
X11249348Y-10516436D01*
X11249348Y-10516436D02*
X11258872Y-10535484D01*
X11258872Y-10535484D02*
X11268396Y-10573579D01*
X11268396Y-10573579D02*
X11268396Y-10621198D01*
X11268396Y-10621198D02*
X11258872Y-10659294D01*
X11258872Y-10659294D02*
X11249348Y-10678341D01*
X11249348Y-10678341D02*
X11239824Y-10687865D01*
X11239824Y-10687865D02*
X11220777Y-10697389D01*
X11220777Y-10697389D02*
X11201729Y-10697389D01*
X11201729Y-10697389D02*
X11182682Y-10687865D01*
X11182682Y-10687865D02*
X11173158Y-10678341D01*
X11173158Y-10678341D02*
X11163634Y-10659294D01*
X11163634Y-10659294D02*
X11154110Y-10621198D01*
X11154110Y-10621198D02*
X11154110Y-10573579D01*
X11154110Y-10573579D02*
X11163634Y-10535484D01*
X11163634Y-10535484D02*
X11173158Y-10516436D01*
X11173158Y-10516436D02*
X11182682Y-10506913D01*
X11182682Y-10506913D02*
X11201729Y-10497389D01*
X11354110Y-10678341D02*
X11363634Y-10687865D01*
X11363634Y-10687865D02*
X11354110Y-10697389D01*
X11354110Y-10697389D02*
X11344586Y-10687865D01*
X11344586Y-10687865D02*
X11354110Y-10678341D01*
X11354110Y-10678341D02*
X11354110Y-10697389D01*
X11487443Y-10497389D02*
X11506491Y-10497389D01*
X11506491Y-10497389D02*
X11525539Y-10506913D01*
X11525539Y-10506913D02*
X11535062Y-10516436D01*
X11535062Y-10516436D02*
X11544586Y-10535484D01*
X11544586Y-10535484D02*
X11554110Y-10573579D01*
X11554110Y-10573579D02*
X11554110Y-10621198D01*
X11554110Y-10621198D02*
X11544586Y-10659294D01*
X11544586Y-10659294D02*
X11535062Y-10678341D01*
X11535062Y-10678341D02*
X11525539Y-10687865D01*
X11525539Y-10687865D02*
X11506491Y-10697389D01*
X11506491Y-10697389D02*
X11487443Y-10697389D01*
X11487443Y-10697389D02*
X11468396Y-10687865D01*
X11468396Y-10687865D02*
X11458872Y-10678341D01*
X11458872Y-10678341D02*
X11449348Y-10659294D01*
X11449348Y-10659294D02*
X11439824Y-10621198D01*
X11439824Y-10621198D02*
X11439824Y-10573579D01*
X11439824Y-10573579D02*
X11449348Y-10535484D01*
X11449348Y-10535484D02*
X11458872Y-10516436D01*
X11458872Y-10516436D02*
X11468396Y-10506913D01*
X11468396Y-10506913D02*
X11487443Y-10497389D01*
X11630301Y-10516436D02*
X11639824Y-10506913D01*
X11639824Y-10506913D02*
X11658872Y-10497389D01*
X11658872Y-10497389D02*
X11706491Y-10497389D01*
X11706491Y-10497389D02*
X11725539Y-10506913D01*
X11725539Y-10506913D02*
X11735062Y-10516436D01*
X11735062Y-10516436D02*
X11744586Y-10535484D01*
X11744586Y-10535484D02*
X11744586Y-10554532D01*
X11744586Y-10554532D02*
X11735062Y-10583103D01*
X11735062Y-10583103D02*
X11620777Y-10697389D01*
X11620777Y-10697389D02*
X11744586Y-10697389D01*
X11858872Y-10583103D02*
X11839824Y-10573579D01*
X11839824Y-10573579D02*
X11830301Y-10564055D01*
X11830301Y-10564055D02*
X11820777Y-10545008D01*
X11820777Y-10545008D02*
X11820777Y-10535484D01*
X11820777Y-10535484D02*
X11830301Y-10516436D01*
X11830301Y-10516436D02*
X11839824Y-10506913D01*
X11839824Y-10506913D02*
X11858872Y-10497389D01*
X11858872Y-10497389D02*
X11896967Y-10497389D01*
X11896967Y-10497389D02*
X11916015Y-10506913D01*
X11916015Y-10506913D02*
X11925539Y-10516436D01*
X11925539Y-10516436D02*
X11935062Y-10535484D01*
X11935062Y-10535484D02*
X11935062Y-10545008D01*
X11935062Y-10545008D02*
X11925539Y-10564055D01*
X11925539Y-10564055D02*
X11916015Y-10573579D01*
X11916015Y-10573579D02*
X11896967Y-10583103D01*
X11896967Y-10583103D02*
X11858872Y-10583103D01*
X11858872Y-10583103D02*
X11839824Y-10592627D01*
X11839824Y-10592627D02*
X11830301Y-10602151D01*
X11830301Y-10602151D02*
X11820777Y-10621198D01*
X11820777Y-10621198D02*
X11820777Y-10659294D01*
X11820777Y-10659294D02*
X11830301Y-10678341D01*
X11830301Y-10678341D02*
X11839824Y-10687865D01*
X11839824Y-10687865D02*
X11858872Y-10697389D01*
X11858872Y-10697389D02*
X11896967Y-10697389D01*
X11896967Y-10697389D02*
X11916015Y-10687865D01*
X11916015Y-10687865D02*
X11925539Y-10678341D01*
X11925539Y-10678341D02*
X11935062Y-10659294D01*
X11935062Y-10659294D02*
X11935062Y-10621198D01*
X11935062Y-10621198D02*
X11925539Y-10602151D01*
X11925539Y-10602151D02*
X11916015Y-10592627D01*
X11916015Y-10592627D02*
X11896967Y-10583103D01*
X12116015Y-10497389D02*
X12020777Y-10497389D01*
X12020777Y-10497389D02*
X12011253Y-10592627D01*
X12011253Y-10592627D02*
X12020777Y-10583103D01*
X12020777Y-10583103D02*
X12039824Y-10573579D01*
X12039824Y-10573579D02*
X12087443Y-10573579D01*
X12087443Y-10573579D02*
X12106491Y-10583103D01*
X12106491Y-10583103D02*
X12116015Y-10592627D01*
X12116015Y-10592627D02*
X12125539Y-10611675D01*
X12125539Y-10611675D02*
X12125539Y-10659294D01*
X12125539Y-10659294D02*
X12116015Y-10678341D01*
X12116015Y-10678341D02*
X12106491Y-10687865D01*
X12106491Y-10687865D02*
X12087443Y-10697389D01*
X12087443Y-10697389D02*
X12039824Y-10697389D01*
X12039824Y-10697389D02*
X12020777Y-10687865D01*
X12020777Y-10687865D02*
X12011253Y-10678341D01*
X12201729Y-10497389D02*
X12201729Y-10535484D01*
X12277920Y-10497389D02*
X12277920Y-10535484D01*
X12573158Y-10773579D02*
X12563634Y-10764055D01*
X12563634Y-10764055D02*
X12544586Y-10735484D01*
X12544586Y-10735484D02*
X12535063Y-10716436D01*
X12535063Y-10716436D02*
X12525539Y-10687865D01*
X12525539Y-10687865D02*
X12516015Y-10640246D01*
X12516015Y-10640246D02*
X12516015Y-10602151D01*
X12516015Y-10602151D02*
X12525539Y-10554532D01*
X12525539Y-10554532D02*
X12535063Y-10525960D01*
X12535063Y-10525960D02*
X12544586Y-10506913D01*
X12544586Y-10506913D02*
X12563634Y-10478341D01*
X12563634Y-10478341D02*
X12573158Y-10468817D01*
X12735063Y-10564055D02*
X12735063Y-10697389D01*
X12687443Y-10487865D02*
X12639824Y-10630722D01*
X12639824Y-10630722D02*
X12763634Y-10630722D01*
X12992205Y-10697389D02*
X12992205Y-10497389D01*
X13077920Y-10697389D02*
X13077920Y-10592627D01*
X13077920Y-10592627D02*
X13068396Y-10573579D01*
X13068396Y-10573579D02*
X13049348Y-10564055D01*
X13049348Y-10564055D02*
X13020777Y-10564055D01*
X13020777Y-10564055D02*
X13001729Y-10573579D01*
X13001729Y-10573579D02*
X12992205Y-10583103D01*
X13201729Y-10697389D02*
X13182682Y-10687865D01*
X13182682Y-10687865D02*
X13173158Y-10678341D01*
X13173158Y-10678341D02*
X13163634Y-10659294D01*
X13163634Y-10659294D02*
X13163634Y-10602151D01*
X13163634Y-10602151D02*
X13173158Y-10583103D01*
X13173158Y-10583103D02*
X13182682Y-10573579D01*
X13182682Y-10573579D02*
X13201729Y-10564055D01*
X13201729Y-10564055D02*
X13230301Y-10564055D01*
X13230301Y-10564055D02*
X13249348Y-10573579D01*
X13249348Y-10573579D02*
X13258872Y-10583103D01*
X13258872Y-10583103D02*
X13268396Y-10602151D01*
X13268396Y-10602151D02*
X13268396Y-10659294D01*
X13268396Y-10659294D02*
X13258872Y-10678341D01*
X13258872Y-10678341D02*
X13249348Y-10687865D01*
X13249348Y-10687865D02*
X13230301Y-10697389D01*
X13230301Y-10697389D02*
X13201729Y-10697389D01*
X13382682Y-10697389D02*
X13363634Y-10687865D01*
X13363634Y-10687865D02*
X13354110Y-10668817D01*
X13354110Y-10668817D02*
X13354110Y-10497389D01*
X13535063Y-10687865D02*
X13516015Y-10697389D01*
X13516015Y-10697389D02*
X13477920Y-10697389D01*
X13477920Y-10697389D02*
X13458872Y-10687865D01*
X13458872Y-10687865D02*
X13449348Y-10668817D01*
X13449348Y-10668817D02*
X13449348Y-10592627D01*
X13449348Y-10592627D02*
X13458872Y-10573579D01*
X13458872Y-10573579D02*
X13477920Y-10564055D01*
X13477920Y-10564055D02*
X13516015Y-10564055D01*
X13516015Y-10564055D02*
X13535063Y-10573579D01*
X13535063Y-10573579D02*
X13544586Y-10592627D01*
X13544586Y-10592627D02*
X13544586Y-10611675D01*
X13544586Y-10611675D02*
X13449348Y-10630722D01*
X13620777Y-10687865D02*
X13639825Y-10697389D01*
X13639825Y-10697389D02*
X13677920Y-10697389D01*
X13677920Y-10697389D02*
X13696967Y-10687865D01*
X13696967Y-10687865D02*
X13706491Y-10668817D01*
X13706491Y-10668817D02*
X13706491Y-10659294D01*
X13706491Y-10659294D02*
X13696967Y-10640246D01*
X13696967Y-10640246D02*
X13677920Y-10630722D01*
X13677920Y-10630722D02*
X13649348Y-10630722D01*
X13649348Y-10630722D02*
X13630301Y-10621198D01*
X13630301Y-10621198D02*
X13620777Y-10602151D01*
X13620777Y-10602151D02*
X13620777Y-10592627D01*
X13620777Y-10592627D02*
X13630301Y-10573579D01*
X13630301Y-10573579D02*
X13649348Y-10564055D01*
X13649348Y-10564055D02*
X13677920Y-10564055D01*
X13677920Y-10564055D02*
X13696967Y-10573579D01*
X13773158Y-10773579D02*
X13782682Y-10764055D01*
X13782682Y-10764055D02*
X13801729Y-10735484D01*
X13801729Y-10735484D02*
X13811253Y-10716436D01*
X13811253Y-10716436D02*
X13820777Y-10687865D01*
X13820777Y-10687865D02*
X13830301Y-10640246D01*
X13830301Y-10640246D02*
X13830301Y-10602151D01*
X13830301Y-10602151D02*
X13820777Y-10554532D01*
X13820777Y-10554532D02*
X13811253Y-10525960D01*
X13811253Y-10525960D02*
X13801729Y-10506913D01*
X13801729Y-10506913D02*
X13782682Y-10478341D01*
X13782682Y-10478341D02*
X13773158Y-10468817D01*
D12*
X8959995Y-10831805D02*
X8959995Y-10908005D01*
X8921895Y-10869905D02*
X8998095Y-10869905D01*
D11*
X9296967Y-10761389D02*
X9316015Y-10761389D01*
X9316015Y-10761389D02*
X9335062Y-10770913D01*
X9335062Y-10770913D02*
X9344586Y-10780436D01*
X9344586Y-10780436D02*
X9354110Y-10799484D01*
X9354110Y-10799484D02*
X9363634Y-10837579D01*
X9363634Y-10837579D02*
X9363634Y-10885198D01*
X9363634Y-10885198D02*
X9354110Y-10923294D01*
X9354110Y-10923294D02*
X9344586Y-10942341D01*
X9344586Y-10942341D02*
X9335062Y-10951865D01*
X9335062Y-10951865D02*
X9316015Y-10961389D01*
X9316015Y-10961389D02*
X9296967Y-10961389D01*
X9296967Y-10961389D02*
X9277919Y-10951865D01*
X9277919Y-10951865D02*
X9268396Y-10942341D01*
X9268396Y-10942341D02*
X9258872Y-10923294D01*
X9258872Y-10923294D02*
X9249348Y-10885198D01*
X9249348Y-10885198D02*
X9249348Y-10837579D01*
X9249348Y-10837579D02*
X9258872Y-10799484D01*
X9258872Y-10799484D02*
X9268396Y-10780436D01*
X9268396Y-10780436D02*
X9277919Y-10770913D01*
X9277919Y-10770913D02*
X9296967Y-10761389D01*
X9449348Y-10942341D02*
X9458872Y-10951865D01*
X9458872Y-10951865D02*
X9449348Y-10961389D01*
X9449348Y-10961389D02*
X9439824Y-10951865D01*
X9439824Y-10951865D02*
X9449348Y-10942341D01*
X9449348Y-10942341D02*
X9449348Y-10961389D01*
X9525539Y-10761389D02*
X9658872Y-10761389D01*
X9658872Y-10761389D02*
X9573158Y-10961389D01*
X9820777Y-10761389D02*
X9782681Y-10761389D01*
X9782681Y-10761389D02*
X9763634Y-10770913D01*
X9763634Y-10770913D02*
X9754110Y-10780436D01*
X9754110Y-10780436D02*
X9735062Y-10809008D01*
X9735062Y-10809008D02*
X9725539Y-10847103D01*
X9725539Y-10847103D02*
X9725539Y-10923294D01*
X9725539Y-10923294D02*
X9735062Y-10942341D01*
X9735062Y-10942341D02*
X9744586Y-10951865D01*
X9744586Y-10951865D02*
X9763634Y-10961389D01*
X9763634Y-10961389D02*
X9801729Y-10961389D01*
X9801729Y-10961389D02*
X9820777Y-10951865D01*
X9820777Y-10951865D02*
X9830300Y-10942341D01*
X9830300Y-10942341D02*
X9839824Y-10923294D01*
X9839824Y-10923294D02*
X9839824Y-10875675D01*
X9839824Y-10875675D02*
X9830300Y-10856627D01*
X9830300Y-10856627D02*
X9820777Y-10847103D01*
X9820777Y-10847103D02*
X9801729Y-10837579D01*
X9801729Y-10837579D02*
X9763634Y-10837579D01*
X9763634Y-10837579D02*
X9744586Y-10847103D01*
X9744586Y-10847103D02*
X9735062Y-10856627D01*
X9735062Y-10856627D02*
X9725539Y-10875675D01*
X9916015Y-10780436D02*
X9925539Y-10770913D01*
X9925539Y-10770913D02*
X9944586Y-10761389D01*
X9944586Y-10761389D02*
X9992205Y-10761389D01*
X9992205Y-10761389D02*
X10011253Y-10770913D01*
X10011253Y-10770913D02*
X10020777Y-10780436D01*
X10020777Y-10780436D02*
X10030300Y-10799484D01*
X10030300Y-10799484D02*
X10030300Y-10818532D01*
X10030300Y-10818532D02*
X10020777Y-10847103D01*
X10020777Y-10847103D02*
X9906491Y-10961389D01*
X9906491Y-10961389D02*
X10030300Y-10961389D01*
X10116015Y-10961389D02*
X10116015Y-10828055D01*
X10116015Y-10847103D02*
X10125539Y-10837579D01*
X10125539Y-10837579D02*
X10144586Y-10828055D01*
X10144586Y-10828055D02*
X10173158Y-10828055D01*
X10173158Y-10828055D02*
X10192205Y-10837579D01*
X10192205Y-10837579D02*
X10201729Y-10856627D01*
X10201729Y-10856627D02*
X10201729Y-10961389D01*
X10201729Y-10856627D02*
X10211253Y-10837579D01*
X10211253Y-10837579D02*
X10230300Y-10828055D01*
X10230300Y-10828055D02*
X10258872Y-10828055D01*
X10258872Y-10828055D02*
X10277920Y-10837579D01*
X10277920Y-10837579D02*
X10287443Y-10856627D01*
X10287443Y-10856627D02*
X10287443Y-10961389D01*
X10382681Y-10961389D02*
X10382681Y-10828055D01*
X10382681Y-10847103D02*
X10392205Y-10837579D01*
X10392205Y-10837579D02*
X10411253Y-10828055D01*
X10411253Y-10828055D02*
X10439824Y-10828055D01*
X10439824Y-10828055D02*
X10458872Y-10837579D01*
X10458872Y-10837579D02*
X10468396Y-10856627D01*
X10468396Y-10856627D02*
X10468396Y-10961389D01*
X10468396Y-10856627D02*
X10477920Y-10837579D01*
X10477920Y-10837579D02*
X10496967Y-10828055D01*
X10496967Y-10828055D02*
X10525539Y-10828055D01*
X10525539Y-10828055D02*
X10544586Y-10837579D01*
X10544586Y-10837579D02*
X10554110Y-10856627D01*
X10554110Y-10856627D02*
X10554110Y-10961389D01*
X10944586Y-10751865D02*
X10773158Y-11009008D01*
X11201729Y-10761389D02*
X11220777Y-10761389D01*
X11220777Y-10761389D02*
X11239824Y-10770913D01*
X11239824Y-10770913D02*
X11249348Y-10780436D01*
X11249348Y-10780436D02*
X11258872Y-10799484D01*
X11258872Y-10799484D02*
X11268396Y-10837579D01*
X11268396Y-10837579D02*
X11268396Y-10885198D01*
X11268396Y-10885198D02*
X11258872Y-10923294D01*
X11258872Y-10923294D02*
X11249348Y-10942341D01*
X11249348Y-10942341D02*
X11239824Y-10951865D01*
X11239824Y-10951865D02*
X11220777Y-10961389D01*
X11220777Y-10961389D02*
X11201729Y-10961389D01*
X11201729Y-10961389D02*
X11182682Y-10951865D01*
X11182682Y-10951865D02*
X11173158Y-10942341D01*
X11173158Y-10942341D02*
X11163634Y-10923294D01*
X11163634Y-10923294D02*
X11154110Y-10885198D01*
X11154110Y-10885198D02*
X11154110Y-10837579D01*
X11154110Y-10837579D02*
X11163634Y-10799484D01*
X11163634Y-10799484D02*
X11173158Y-10780436D01*
X11173158Y-10780436D02*
X11182682Y-10770913D01*
X11182682Y-10770913D02*
X11201729Y-10761389D01*
X11354110Y-10942341D02*
X11363634Y-10951865D01*
X11363634Y-10951865D02*
X11354110Y-10961389D01*
X11354110Y-10961389D02*
X11344586Y-10951865D01*
X11344586Y-10951865D02*
X11354110Y-10942341D01*
X11354110Y-10942341D02*
X11354110Y-10961389D01*
X11487443Y-10761389D02*
X11506491Y-10761389D01*
X11506491Y-10761389D02*
X11525539Y-10770913D01*
X11525539Y-10770913D02*
X11535062Y-10780436D01*
X11535062Y-10780436D02*
X11544586Y-10799484D01*
X11544586Y-10799484D02*
X11554110Y-10837579D01*
X11554110Y-10837579D02*
X11554110Y-10885198D01*
X11554110Y-10885198D02*
X11544586Y-10923294D01*
X11544586Y-10923294D02*
X11535062Y-10942341D01*
X11535062Y-10942341D02*
X11525539Y-10951865D01*
X11525539Y-10951865D02*
X11506491Y-10961389D01*
X11506491Y-10961389D02*
X11487443Y-10961389D01*
X11487443Y-10961389D02*
X11468396Y-10951865D01*
X11468396Y-10951865D02*
X11458872Y-10942341D01*
X11458872Y-10942341D02*
X11449348Y-10923294D01*
X11449348Y-10923294D02*
X11439824Y-10885198D01*
X11439824Y-10885198D02*
X11439824Y-10837579D01*
X11439824Y-10837579D02*
X11449348Y-10799484D01*
X11449348Y-10799484D02*
X11458872Y-10780436D01*
X11458872Y-10780436D02*
X11468396Y-10770913D01*
X11468396Y-10770913D02*
X11487443Y-10761389D01*
X11620777Y-10761389D02*
X11744586Y-10761389D01*
X11744586Y-10761389D02*
X11677920Y-10837579D01*
X11677920Y-10837579D02*
X11706491Y-10837579D01*
X11706491Y-10837579D02*
X11725539Y-10847103D01*
X11725539Y-10847103D02*
X11735062Y-10856627D01*
X11735062Y-10856627D02*
X11744586Y-10875675D01*
X11744586Y-10875675D02*
X11744586Y-10923294D01*
X11744586Y-10923294D02*
X11735062Y-10942341D01*
X11735062Y-10942341D02*
X11725539Y-10951865D01*
X11725539Y-10951865D02*
X11706491Y-10961389D01*
X11706491Y-10961389D02*
X11649348Y-10961389D01*
X11649348Y-10961389D02*
X11630301Y-10951865D01*
X11630301Y-10951865D02*
X11620777Y-10942341D01*
X11868396Y-10761389D02*
X11887443Y-10761389D01*
X11887443Y-10761389D02*
X11906491Y-10770913D01*
X11906491Y-10770913D02*
X11916015Y-10780436D01*
X11916015Y-10780436D02*
X11925539Y-10799484D01*
X11925539Y-10799484D02*
X11935062Y-10837579D01*
X11935062Y-10837579D02*
X11935062Y-10885198D01*
X11935062Y-10885198D02*
X11925539Y-10923294D01*
X11925539Y-10923294D02*
X11916015Y-10942341D01*
X11916015Y-10942341D02*
X11906491Y-10951865D01*
X11906491Y-10951865D02*
X11887443Y-10961389D01*
X11887443Y-10961389D02*
X11868396Y-10961389D01*
X11868396Y-10961389D02*
X11849348Y-10951865D01*
X11849348Y-10951865D02*
X11839824Y-10942341D01*
X11839824Y-10942341D02*
X11830301Y-10923294D01*
X11830301Y-10923294D02*
X11820777Y-10885198D01*
X11820777Y-10885198D02*
X11820777Y-10837579D01*
X11820777Y-10837579D02*
X11830301Y-10799484D01*
X11830301Y-10799484D02*
X11839824Y-10780436D01*
X11839824Y-10780436D02*
X11849348Y-10770913D01*
X11849348Y-10770913D02*
X11868396Y-10761389D01*
X12058872Y-10761389D02*
X12077920Y-10761389D01*
X12077920Y-10761389D02*
X12096967Y-10770913D01*
X12096967Y-10770913D02*
X12106491Y-10780436D01*
X12106491Y-10780436D02*
X12116015Y-10799484D01*
X12116015Y-10799484D02*
X12125539Y-10837579D01*
X12125539Y-10837579D02*
X12125539Y-10885198D01*
X12125539Y-10885198D02*
X12116015Y-10923294D01*
X12116015Y-10923294D02*
X12106491Y-10942341D01*
X12106491Y-10942341D02*
X12096967Y-10951865D01*
X12096967Y-10951865D02*
X12077920Y-10961389D01*
X12077920Y-10961389D02*
X12058872Y-10961389D01*
X12058872Y-10961389D02*
X12039824Y-10951865D01*
X12039824Y-10951865D02*
X12030301Y-10942341D01*
X12030301Y-10942341D02*
X12020777Y-10923294D01*
X12020777Y-10923294D02*
X12011253Y-10885198D01*
X12011253Y-10885198D02*
X12011253Y-10837579D01*
X12011253Y-10837579D02*
X12020777Y-10799484D01*
X12020777Y-10799484D02*
X12030301Y-10780436D01*
X12030301Y-10780436D02*
X12039824Y-10770913D01*
X12039824Y-10770913D02*
X12058872Y-10761389D01*
X12201729Y-10761389D02*
X12201729Y-10799484D01*
X12277920Y-10761389D02*
X12277920Y-10799484D01*
X12573158Y-11037579D02*
X12563634Y-11028055D01*
X12563634Y-11028055D02*
X12544586Y-10999484D01*
X12544586Y-10999484D02*
X12535063Y-10980436D01*
X12535063Y-10980436D02*
X12525539Y-10951865D01*
X12525539Y-10951865D02*
X12516015Y-10904246D01*
X12516015Y-10904246D02*
X12516015Y-10866151D01*
X12516015Y-10866151D02*
X12525539Y-10818532D01*
X12525539Y-10818532D02*
X12535063Y-10789960D01*
X12535063Y-10789960D02*
X12544586Y-10770913D01*
X12544586Y-10770913D02*
X12563634Y-10742341D01*
X12563634Y-10742341D02*
X12573158Y-10732817D01*
X12744586Y-10761389D02*
X12649348Y-10761389D01*
X12649348Y-10761389D02*
X12639824Y-10856627D01*
X12639824Y-10856627D02*
X12649348Y-10847103D01*
X12649348Y-10847103D02*
X12668396Y-10837579D01*
X12668396Y-10837579D02*
X12716015Y-10837579D01*
X12716015Y-10837579D02*
X12735063Y-10847103D01*
X12735063Y-10847103D02*
X12744586Y-10856627D01*
X12744586Y-10856627D02*
X12754110Y-10875675D01*
X12754110Y-10875675D02*
X12754110Y-10923294D01*
X12754110Y-10923294D02*
X12744586Y-10942341D01*
X12744586Y-10942341D02*
X12735063Y-10951865D01*
X12735063Y-10951865D02*
X12716015Y-10961389D01*
X12716015Y-10961389D02*
X12668396Y-10961389D01*
X12668396Y-10961389D02*
X12649348Y-10951865D01*
X12649348Y-10951865D02*
X12639824Y-10942341D01*
X12992205Y-10961389D02*
X12992205Y-10761389D01*
X13077920Y-10961389D02*
X13077920Y-10856627D01*
X13077920Y-10856627D02*
X13068396Y-10837579D01*
X13068396Y-10837579D02*
X13049348Y-10828055D01*
X13049348Y-10828055D02*
X13020777Y-10828055D01*
X13020777Y-10828055D02*
X13001729Y-10837579D01*
X13001729Y-10837579D02*
X12992205Y-10847103D01*
X13201729Y-10961389D02*
X13182682Y-10951865D01*
X13182682Y-10951865D02*
X13173158Y-10942341D01*
X13173158Y-10942341D02*
X13163634Y-10923294D01*
X13163634Y-10923294D02*
X13163634Y-10866151D01*
X13163634Y-10866151D02*
X13173158Y-10847103D01*
X13173158Y-10847103D02*
X13182682Y-10837579D01*
X13182682Y-10837579D02*
X13201729Y-10828055D01*
X13201729Y-10828055D02*
X13230301Y-10828055D01*
X13230301Y-10828055D02*
X13249348Y-10837579D01*
X13249348Y-10837579D02*
X13258872Y-10847103D01*
X13258872Y-10847103D02*
X13268396Y-10866151D01*
X13268396Y-10866151D02*
X13268396Y-10923294D01*
X13268396Y-10923294D02*
X13258872Y-10942341D01*
X13258872Y-10942341D02*
X13249348Y-10951865D01*
X13249348Y-10951865D02*
X13230301Y-10961389D01*
X13230301Y-10961389D02*
X13201729Y-10961389D01*
X13382682Y-10961389D02*
X13363634Y-10951865D01*
X13363634Y-10951865D02*
X13354110Y-10932817D01*
X13354110Y-10932817D02*
X13354110Y-10761389D01*
X13535063Y-10951865D02*
X13516015Y-10961389D01*
X13516015Y-10961389D02*
X13477920Y-10961389D01*
X13477920Y-10961389D02*
X13458872Y-10951865D01*
X13458872Y-10951865D02*
X13449348Y-10932817D01*
X13449348Y-10932817D02*
X13449348Y-10856627D01*
X13449348Y-10856627D02*
X13458872Y-10837579D01*
X13458872Y-10837579D02*
X13477920Y-10828055D01*
X13477920Y-10828055D02*
X13516015Y-10828055D01*
X13516015Y-10828055D02*
X13535063Y-10837579D01*
X13535063Y-10837579D02*
X13544586Y-10856627D01*
X13544586Y-10856627D02*
X13544586Y-10875675D01*
X13544586Y-10875675D02*
X13449348Y-10894722D01*
X13620777Y-10951865D02*
X13639825Y-10961389D01*
X13639825Y-10961389D02*
X13677920Y-10961389D01*
X13677920Y-10961389D02*
X13696967Y-10951865D01*
X13696967Y-10951865D02*
X13706491Y-10932817D01*
X13706491Y-10932817D02*
X13706491Y-10923294D01*
X13706491Y-10923294D02*
X13696967Y-10904246D01*
X13696967Y-10904246D02*
X13677920Y-10894722D01*
X13677920Y-10894722D02*
X13649348Y-10894722D01*
X13649348Y-10894722D02*
X13630301Y-10885198D01*
X13630301Y-10885198D02*
X13620777Y-10866151D01*
X13620777Y-10866151D02*
X13620777Y-10856627D01*
X13620777Y-10856627D02*
X13630301Y-10837579D01*
X13630301Y-10837579D02*
X13649348Y-10828055D01*
X13649348Y-10828055D02*
X13677920Y-10828055D01*
X13677920Y-10828055D02*
X13696967Y-10837579D01*
X13773158Y-11037579D02*
X13782682Y-11028055D01*
X13782682Y-11028055D02*
X13801729Y-10999484D01*
X13801729Y-10999484D02*
X13811253Y-10980436D01*
X13811253Y-10980436D02*
X13820777Y-10951865D01*
X13820777Y-10951865D02*
X13830301Y-10904246D01*
X13830301Y-10904246D02*
X13830301Y-10866151D01*
X13830301Y-10866151D02*
X13820777Y-10818532D01*
X13820777Y-10818532D02*
X13811253Y-10789960D01*
X13811253Y-10789960D02*
X13801729Y-10770913D01*
X13801729Y-10770913D02*
X13782682Y-10742341D01*
X13782682Y-10742341D02*
X13773158Y-10732817D01*
D12*
X8986380Y-11162190D02*
X8986380Y-11105621D01*
X8929811Y-11105621D01*
X8929811Y-11162190D01*
X8986380Y-11162190D01*
D11*
X9296967Y-11025389D02*
X9316015Y-11025389D01*
X9316015Y-11025389D02*
X9335062Y-11034913D01*
X9335062Y-11034913D02*
X9344586Y-11044436D01*
X9344586Y-11044436D02*
X9354110Y-11063484D01*
X9354110Y-11063484D02*
X9363634Y-11101579D01*
X9363634Y-11101579D02*
X9363634Y-11149198D01*
X9363634Y-11149198D02*
X9354110Y-11187293D01*
X9354110Y-11187293D02*
X9344586Y-11206341D01*
X9344586Y-11206341D02*
X9335062Y-11215865D01*
X9335062Y-11215865D02*
X9316015Y-11225389D01*
X9316015Y-11225389D02*
X9296967Y-11225389D01*
X9296967Y-11225389D02*
X9277919Y-11215865D01*
X9277919Y-11215865D02*
X9268396Y-11206341D01*
X9268396Y-11206341D02*
X9258872Y-11187293D01*
X9258872Y-11187293D02*
X9249348Y-11149198D01*
X9249348Y-11149198D02*
X9249348Y-11101579D01*
X9249348Y-11101579D02*
X9258872Y-11063484D01*
X9258872Y-11063484D02*
X9268396Y-11044436D01*
X9268396Y-11044436D02*
X9277919Y-11034913D01*
X9277919Y-11034913D02*
X9296967Y-11025389D01*
X9449348Y-11206341D02*
X9458872Y-11215865D01*
X9458872Y-11215865D02*
X9449348Y-11225389D01*
X9449348Y-11225389D02*
X9439824Y-11215865D01*
X9439824Y-11215865D02*
X9449348Y-11206341D01*
X9449348Y-11206341D02*
X9449348Y-11225389D01*
X9573158Y-11111103D02*
X9554110Y-11101579D01*
X9554110Y-11101579D02*
X9544586Y-11092055D01*
X9544586Y-11092055D02*
X9535062Y-11073008D01*
X9535062Y-11073008D02*
X9535062Y-11063484D01*
X9535062Y-11063484D02*
X9544586Y-11044436D01*
X9544586Y-11044436D02*
X9554110Y-11034913D01*
X9554110Y-11034913D02*
X9573158Y-11025389D01*
X9573158Y-11025389D02*
X9611253Y-11025389D01*
X9611253Y-11025389D02*
X9630300Y-11034913D01*
X9630300Y-11034913D02*
X9639824Y-11044436D01*
X9639824Y-11044436D02*
X9649348Y-11063484D01*
X9649348Y-11063484D02*
X9649348Y-11073008D01*
X9649348Y-11073008D02*
X9639824Y-11092055D01*
X9639824Y-11092055D02*
X9630300Y-11101579D01*
X9630300Y-11101579D02*
X9611253Y-11111103D01*
X9611253Y-11111103D02*
X9573158Y-11111103D01*
X9573158Y-11111103D02*
X9554110Y-11120627D01*
X9554110Y-11120627D02*
X9544586Y-11130151D01*
X9544586Y-11130151D02*
X9535062Y-11149198D01*
X9535062Y-11149198D02*
X9535062Y-11187293D01*
X9535062Y-11187293D02*
X9544586Y-11206341D01*
X9544586Y-11206341D02*
X9554110Y-11215865D01*
X9554110Y-11215865D02*
X9573158Y-11225389D01*
X9573158Y-11225389D02*
X9611253Y-11225389D01*
X9611253Y-11225389D02*
X9630300Y-11215865D01*
X9630300Y-11215865D02*
X9639824Y-11206341D01*
X9639824Y-11206341D02*
X9649348Y-11187293D01*
X9649348Y-11187293D02*
X9649348Y-11149198D01*
X9649348Y-11149198D02*
X9639824Y-11130151D01*
X9639824Y-11130151D02*
X9630300Y-11120627D01*
X9630300Y-11120627D02*
X9611253Y-11111103D01*
X9773158Y-11025389D02*
X9792205Y-11025389D01*
X9792205Y-11025389D02*
X9811253Y-11034913D01*
X9811253Y-11034913D02*
X9820777Y-11044436D01*
X9820777Y-11044436D02*
X9830300Y-11063484D01*
X9830300Y-11063484D02*
X9839824Y-11101579D01*
X9839824Y-11101579D02*
X9839824Y-11149198D01*
X9839824Y-11149198D02*
X9830300Y-11187293D01*
X9830300Y-11187293D02*
X9820777Y-11206341D01*
X9820777Y-11206341D02*
X9811253Y-11215865D01*
X9811253Y-11215865D02*
X9792205Y-11225389D01*
X9792205Y-11225389D02*
X9773158Y-11225389D01*
X9773158Y-11225389D02*
X9754110Y-11215865D01*
X9754110Y-11215865D02*
X9744586Y-11206341D01*
X9744586Y-11206341D02*
X9735062Y-11187293D01*
X9735062Y-11187293D02*
X9725539Y-11149198D01*
X9725539Y-11149198D02*
X9725539Y-11101579D01*
X9725539Y-11101579D02*
X9735062Y-11063484D01*
X9735062Y-11063484D02*
X9744586Y-11044436D01*
X9744586Y-11044436D02*
X9754110Y-11034913D01*
X9754110Y-11034913D02*
X9773158Y-11025389D01*
X9963634Y-11025389D02*
X9982681Y-11025389D01*
X9982681Y-11025389D02*
X10001729Y-11034913D01*
X10001729Y-11034913D02*
X10011253Y-11044436D01*
X10011253Y-11044436D02*
X10020777Y-11063484D01*
X10020777Y-11063484D02*
X10030300Y-11101579D01*
X10030300Y-11101579D02*
X10030300Y-11149198D01*
X10030300Y-11149198D02*
X10020777Y-11187293D01*
X10020777Y-11187293D02*
X10011253Y-11206341D01*
X10011253Y-11206341D02*
X10001729Y-11215865D01*
X10001729Y-11215865D02*
X9982681Y-11225389D01*
X9982681Y-11225389D02*
X9963634Y-11225389D01*
X9963634Y-11225389D02*
X9944586Y-11215865D01*
X9944586Y-11215865D02*
X9935062Y-11206341D01*
X9935062Y-11206341D02*
X9925539Y-11187293D01*
X9925539Y-11187293D02*
X9916015Y-11149198D01*
X9916015Y-11149198D02*
X9916015Y-11101579D01*
X9916015Y-11101579D02*
X9925539Y-11063484D01*
X9925539Y-11063484D02*
X9935062Y-11044436D01*
X9935062Y-11044436D02*
X9944586Y-11034913D01*
X9944586Y-11034913D02*
X9963634Y-11025389D01*
X10116015Y-11225389D02*
X10116015Y-11092055D01*
X10116015Y-11111103D02*
X10125539Y-11101579D01*
X10125539Y-11101579D02*
X10144586Y-11092055D01*
X10144586Y-11092055D02*
X10173158Y-11092055D01*
X10173158Y-11092055D02*
X10192205Y-11101579D01*
X10192205Y-11101579D02*
X10201729Y-11120627D01*
X10201729Y-11120627D02*
X10201729Y-11225389D01*
X10201729Y-11120627D02*
X10211253Y-11101579D01*
X10211253Y-11101579D02*
X10230300Y-11092055D01*
X10230300Y-11092055D02*
X10258872Y-11092055D01*
X10258872Y-11092055D02*
X10277920Y-11101579D01*
X10277920Y-11101579D02*
X10287443Y-11120627D01*
X10287443Y-11120627D02*
X10287443Y-11225389D01*
X10382681Y-11225389D02*
X10382681Y-11092055D01*
X10382681Y-11111103D02*
X10392205Y-11101579D01*
X10392205Y-11101579D02*
X10411253Y-11092055D01*
X10411253Y-11092055D02*
X10439824Y-11092055D01*
X10439824Y-11092055D02*
X10458872Y-11101579D01*
X10458872Y-11101579D02*
X10468396Y-11120627D01*
X10468396Y-11120627D02*
X10468396Y-11225389D01*
X10468396Y-11120627D02*
X10477920Y-11101579D01*
X10477920Y-11101579D02*
X10496967Y-11092055D01*
X10496967Y-11092055D02*
X10525539Y-11092055D01*
X10525539Y-11092055D02*
X10544586Y-11101579D01*
X10544586Y-11101579D02*
X10554110Y-11120627D01*
X10554110Y-11120627D02*
X10554110Y-11225389D01*
X10944586Y-11015865D02*
X10773158Y-11273008D01*
X11201729Y-11025389D02*
X11220777Y-11025389D01*
X11220777Y-11025389D02*
X11239824Y-11034913D01*
X11239824Y-11034913D02*
X11249348Y-11044436D01*
X11249348Y-11044436D02*
X11258872Y-11063484D01*
X11258872Y-11063484D02*
X11268396Y-11101579D01*
X11268396Y-11101579D02*
X11268396Y-11149198D01*
X11268396Y-11149198D02*
X11258872Y-11187293D01*
X11258872Y-11187293D02*
X11249348Y-11206341D01*
X11249348Y-11206341D02*
X11239824Y-11215865D01*
X11239824Y-11215865D02*
X11220777Y-11225389D01*
X11220777Y-11225389D02*
X11201729Y-11225389D01*
X11201729Y-11225389D02*
X11182682Y-11215865D01*
X11182682Y-11215865D02*
X11173158Y-11206341D01*
X11173158Y-11206341D02*
X11163634Y-11187293D01*
X11163634Y-11187293D02*
X11154110Y-11149198D01*
X11154110Y-11149198D02*
X11154110Y-11101579D01*
X11154110Y-11101579D02*
X11163634Y-11063484D01*
X11163634Y-11063484D02*
X11173158Y-11044436D01*
X11173158Y-11044436D02*
X11182682Y-11034913D01*
X11182682Y-11034913D02*
X11201729Y-11025389D01*
X11354110Y-11206341D02*
X11363634Y-11215865D01*
X11363634Y-11215865D02*
X11354110Y-11225389D01*
X11354110Y-11225389D02*
X11344586Y-11215865D01*
X11344586Y-11215865D02*
X11354110Y-11206341D01*
X11354110Y-11206341D02*
X11354110Y-11225389D01*
X11487443Y-11025389D02*
X11506491Y-11025389D01*
X11506491Y-11025389D02*
X11525539Y-11034913D01*
X11525539Y-11034913D02*
X11535062Y-11044436D01*
X11535062Y-11044436D02*
X11544586Y-11063484D01*
X11544586Y-11063484D02*
X11554110Y-11101579D01*
X11554110Y-11101579D02*
X11554110Y-11149198D01*
X11554110Y-11149198D02*
X11544586Y-11187293D01*
X11544586Y-11187293D02*
X11535062Y-11206341D01*
X11535062Y-11206341D02*
X11525539Y-11215865D01*
X11525539Y-11215865D02*
X11506491Y-11225389D01*
X11506491Y-11225389D02*
X11487443Y-11225389D01*
X11487443Y-11225389D02*
X11468396Y-11215865D01*
X11468396Y-11215865D02*
X11458872Y-11206341D01*
X11458872Y-11206341D02*
X11449348Y-11187293D01*
X11449348Y-11187293D02*
X11439824Y-11149198D01*
X11439824Y-11149198D02*
X11439824Y-11101579D01*
X11439824Y-11101579D02*
X11449348Y-11063484D01*
X11449348Y-11063484D02*
X11458872Y-11044436D01*
X11458872Y-11044436D02*
X11468396Y-11034913D01*
X11468396Y-11034913D02*
X11487443Y-11025389D01*
X11620777Y-11025389D02*
X11744586Y-11025389D01*
X11744586Y-11025389D02*
X11677920Y-11101579D01*
X11677920Y-11101579D02*
X11706491Y-11101579D01*
X11706491Y-11101579D02*
X11725539Y-11111103D01*
X11725539Y-11111103D02*
X11735062Y-11120627D01*
X11735062Y-11120627D02*
X11744586Y-11139675D01*
X11744586Y-11139675D02*
X11744586Y-11187293D01*
X11744586Y-11187293D02*
X11735062Y-11206341D01*
X11735062Y-11206341D02*
X11725539Y-11215865D01*
X11725539Y-11215865D02*
X11706491Y-11225389D01*
X11706491Y-11225389D02*
X11649348Y-11225389D01*
X11649348Y-11225389D02*
X11630301Y-11215865D01*
X11630301Y-11215865D02*
X11620777Y-11206341D01*
X11935062Y-11225389D02*
X11820777Y-11225389D01*
X11877920Y-11225389D02*
X11877920Y-11025389D01*
X11877920Y-11025389D02*
X11858872Y-11053960D01*
X11858872Y-11053960D02*
X11839824Y-11073008D01*
X11839824Y-11073008D02*
X11820777Y-11082532D01*
X12116015Y-11025389D02*
X12020777Y-11025389D01*
X12020777Y-11025389D02*
X12011253Y-11120627D01*
X12011253Y-11120627D02*
X12020777Y-11111103D01*
X12020777Y-11111103D02*
X12039824Y-11101579D01*
X12039824Y-11101579D02*
X12087443Y-11101579D01*
X12087443Y-11101579D02*
X12106491Y-11111103D01*
X12106491Y-11111103D02*
X12116015Y-11120627D01*
X12116015Y-11120627D02*
X12125539Y-11139675D01*
X12125539Y-11139675D02*
X12125539Y-11187293D01*
X12125539Y-11187293D02*
X12116015Y-11206341D01*
X12116015Y-11206341D02*
X12106491Y-11215865D01*
X12106491Y-11215865D02*
X12087443Y-11225389D01*
X12087443Y-11225389D02*
X12039824Y-11225389D01*
X12039824Y-11225389D02*
X12020777Y-11215865D01*
X12020777Y-11215865D02*
X12011253Y-11206341D01*
X12201729Y-11025389D02*
X12201729Y-11063484D01*
X12277920Y-11025389D02*
X12277920Y-11063484D01*
X12573158Y-11301579D02*
X12563634Y-11292055D01*
X12563634Y-11292055D02*
X12544586Y-11263484D01*
X12544586Y-11263484D02*
X12535063Y-11244436D01*
X12535063Y-11244436D02*
X12525539Y-11215865D01*
X12525539Y-11215865D02*
X12516015Y-11168246D01*
X12516015Y-11168246D02*
X12516015Y-11130151D01*
X12516015Y-11130151D02*
X12525539Y-11082532D01*
X12525539Y-11082532D02*
X12535063Y-11053960D01*
X12535063Y-11053960D02*
X12544586Y-11034913D01*
X12544586Y-11034913D02*
X12563634Y-11006341D01*
X12563634Y-11006341D02*
X12573158Y-10996817D01*
X12754110Y-11225389D02*
X12639824Y-11225389D01*
X12696967Y-11225389D02*
X12696967Y-11025389D01*
X12696967Y-11025389D02*
X12677920Y-11053960D01*
X12677920Y-11053960D02*
X12658872Y-11073008D01*
X12658872Y-11073008D02*
X12639824Y-11082532D01*
X12925539Y-11092055D02*
X12925539Y-11225389D01*
X12877920Y-11015865D02*
X12830301Y-11158722D01*
X12830301Y-11158722D02*
X12954110Y-11158722D01*
X13182682Y-11225389D02*
X13182682Y-11025389D01*
X13268396Y-11225389D02*
X13268396Y-11120627D01*
X13268396Y-11120627D02*
X13258872Y-11101579D01*
X13258872Y-11101579D02*
X13239825Y-11092055D01*
X13239825Y-11092055D02*
X13211253Y-11092055D01*
X13211253Y-11092055D02*
X13192205Y-11101579D01*
X13192205Y-11101579D02*
X13182682Y-11111103D01*
X13392205Y-11225389D02*
X13373158Y-11215865D01*
X13373158Y-11215865D02*
X13363634Y-11206341D01*
X13363634Y-11206341D02*
X13354110Y-11187293D01*
X13354110Y-11187293D02*
X13354110Y-11130151D01*
X13354110Y-11130151D02*
X13363634Y-11111103D01*
X13363634Y-11111103D02*
X13373158Y-11101579D01*
X13373158Y-11101579D02*
X13392205Y-11092055D01*
X13392205Y-11092055D02*
X13420777Y-11092055D01*
X13420777Y-11092055D02*
X13439825Y-11101579D01*
X13439825Y-11101579D02*
X13449348Y-11111103D01*
X13449348Y-11111103D02*
X13458872Y-11130151D01*
X13458872Y-11130151D02*
X13458872Y-11187293D01*
X13458872Y-11187293D02*
X13449348Y-11206341D01*
X13449348Y-11206341D02*
X13439825Y-11215865D01*
X13439825Y-11215865D02*
X13420777Y-11225389D01*
X13420777Y-11225389D02*
X13392205Y-11225389D01*
X13573158Y-11225389D02*
X13554110Y-11215865D01*
X13554110Y-11215865D02*
X13544586Y-11196817D01*
X13544586Y-11196817D02*
X13544586Y-11025389D01*
X13725539Y-11215865D02*
X13706491Y-11225389D01*
X13706491Y-11225389D02*
X13668396Y-11225389D01*
X13668396Y-11225389D02*
X13649348Y-11215865D01*
X13649348Y-11215865D02*
X13639825Y-11196817D01*
X13639825Y-11196817D02*
X13639825Y-11120627D01*
X13639825Y-11120627D02*
X13649348Y-11101579D01*
X13649348Y-11101579D02*
X13668396Y-11092055D01*
X13668396Y-11092055D02*
X13706491Y-11092055D01*
X13706491Y-11092055D02*
X13725539Y-11101579D01*
X13725539Y-11101579D02*
X13735063Y-11120627D01*
X13735063Y-11120627D02*
X13735063Y-11139675D01*
X13735063Y-11139675D02*
X13639825Y-11158722D01*
X13811253Y-11215865D02*
X13830301Y-11225389D01*
X13830301Y-11225389D02*
X13868396Y-11225389D01*
X13868396Y-11225389D02*
X13887444Y-11215865D01*
X13887444Y-11215865D02*
X13896967Y-11196817D01*
X13896967Y-11196817D02*
X13896967Y-11187293D01*
X13896967Y-11187293D02*
X13887444Y-11168246D01*
X13887444Y-11168246D02*
X13868396Y-11158722D01*
X13868396Y-11158722D02*
X13839825Y-11158722D01*
X13839825Y-11158722D02*
X13820777Y-11149198D01*
X13820777Y-11149198D02*
X13811253Y-11130151D01*
X13811253Y-11130151D02*
X13811253Y-11120627D01*
X13811253Y-11120627D02*
X13820777Y-11101579D01*
X13820777Y-11101579D02*
X13839825Y-11092055D01*
X13839825Y-11092055D02*
X13868396Y-11092055D01*
X13868396Y-11092055D02*
X13887444Y-11101579D01*
X13963634Y-11301579D02*
X13973158Y-11292055D01*
X13973158Y-11292055D02*
X13992206Y-11263484D01*
X13992206Y-11263484D02*
X14001729Y-11244436D01*
X14001729Y-11244436D02*
X14011253Y-11215865D01*
X14011253Y-11215865D02*
X14020777Y-11168246D01*
X14020777Y-11168246D02*
X14020777Y-11130151D01*
X14020777Y-11130151D02*
X14011253Y-11082532D01*
X14011253Y-11082532D02*
X14001729Y-11053960D01*
X14001729Y-11053960D02*
X13992206Y-11034913D01*
X13992206Y-11034913D02*
X13973158Y-11006341D01*
X13973158Y-11006341D02*
X13963634Y-10996817D01*
D12*
X8953095Y-11442905D02*
X8998095Y-11397905D01*
X8953095Y-11352905D01*
X8908095Y-11397905D01*
X8953095Y-11442905D01*
D11*
X9296967Y-11289389D02*
X9316015Y-11289389D01*
X9316015Y-11289389D02*
X9335062Y-11298913D01*
X9335062Y-11298913D02*
X9344586Y-11308436D01*
X9344586Y-11308436D02*
X9354110Y-11327484D01*
X9354110Y-11327484D02*
X9363634Y-11365579D01*
X9363634Y-11365579D02*
X9363634Y-11413198D01*
X9363634Y-11413198D02*
X9354110Y-11451293D01*
X9354110Y-11451293D02*
X9344586Y-11470341D01*
X9344586Y-11470341D02*
X9335062Y-11479865D01*
X9335062Y-11479865D02*
X9316015Y-11489389D01*
X9316015Y-11489389D02*
X9296967Y-11489389D01*
X9296967Y-11489389D02*
X9277919Y-11479865D01*
X9277919Y-11479865D02*
X9268396Y-11470341D01*
X9268396Y-11470341D02*
X9258872Y-11451293D01*
X9258872Y-11451293D02*
X9249348Y-11413198D01*
X9249348Y-11413198D02*
X9249348Y-11365579D01*
X9249348Y-11365579D02*
X9258872Y-11327484D01*
X9258872Y-11327484D02*
X9268396Y-11308436D01*
X9268396Y-11308436D02*
X9277919Y-11298913D01*
X9277919Y-11298913D02*
X9296967Y-11289389D01*
X9449348Y-11470341D02*
X9458872Y-11479865D01*
X9458872Y-11479865D02*
X9449348Y-11489389D01*
X9449348Y-11489389D02*
X9439824Y-11479865D01*
X9439824Y-11479865D02*
X9449348Y-11470341D01*
X9449348Y-11470341D02*
X9449348Y-11489389D01*
X9554110Y-11489389D02*
X9592205Y-11489389D01*
X9592205Y-11489389D02*
X9611253Y-11479865D01*
X9611253Y-11479865D02*
X9620777Y-11470341D01*
X9620777Y-11470341D02*
X9639824Y-11441770D01*
X9639824Y-11441770D02*
X9649348Y-11403674D01*
X9649348Y-11403674D02*
X9649348Y-11327484D01*
X9649348Y-11327484D02*
X9639824Y-11308436D01*
X9639824Y-11308436D02*
X9630300Y-11298913D01*
X9630300Y-11298913D02*
X9611253Y-11289389D01*
X9611253Y-11289389D02*
X9573158Y-11289389D01*
X9573158Y-11289389D02*
X9554110Y-11298913D01*
X9554110Y-11298913D02*
X9544586Y-11308436D01*
X9544586Y-11308436D02*
X9535062Y-11327484D01*
X9535062Y-11327484D02*
X9535062Y-11375103D01*
X9535062Y-11375103D02*
X9544586Y-11394151D01*
X9544586Y-11394151D02*
X9554110Y-11403674D01*
X9554110Y-11403674D02*
X9573158Y-11413198D01*
X9573158Y-11413198D02*
X9611253Y-11413198D01*
X9611253Y-11413198D02*
X9630300Y-11403674D01*
X9630300Y-11403674D02*
X9639824Y-11394151D01*
X9639824Y-11394151D02*
X9649348Y-11375103D01*
X9773158Y-11289389D02*
X9792205Y-11289389D01*
X9792205Y-11289389D02*
X9811253Y-11298913D01*
X9811253Y-11298913D02*
X9820777Y-11308436D01*
X9820777Y-11308436D02*
X9830300Y-11327484D01*
X9830300Y-11327484D02*
X9839824Y-11365579D01*
X9839824Y-11365579D02*
X9839824Y-11413198D01*
X9839824Y-11413198D02*
X9830300Y-11451293D01*
X9830300Y-11451293D02*
X9820777Y-11470341D01*
X9820777Y-11470341D02*
X9811253Y-11479865D01*
X9811253Y-11479865D02*
X9792205Y-11489389D01*
X9792205Y-11489389D02*
X9773158Y-11489389D01*
X9773158Y-11489389D02*
X9754110Y-11479865D01*
X9754110Y-11479865D02*
X9744586Y-11470341D01*
X9744586Y-11470341D02*
X9735062Y-11451293D01*
X9735062Y-11451293D02*
X9725539Y-11413198D01*
X9725539Y-11413198D02*
X9725539Y-11365579D01*
X9725539Y-11365579D02*
X9735062Y-11327484D01*
X9735062Y-11327484D02*
X9744586Y-11308436D01*
X9744586Y-11308436D02*
X9754110Y-11298913D01*
X9754110Y-11298913D02*
X9773158Y-11289389D01*
X9963634Y-11289389D02*
X9982681Y-11289389D01*
X9982681Y-11289389D02*
X10001729Y-11298913D01*
X10001729Y-11298913D02*
X10011253Y-11308436D01*
X10011253Y-11308436D02*
X10020777Y-11327484D01*
X10020777Y-11327484D02*
X10030300Y-11365579D01*
X10030300Y-11365579D02*
X10030300Y-11413198D01*
X10030300Y-11413198D02*
X10020777Y-11451293D01*
X10020777Y-11451293D02*
X10011253Y-11470341D01*
X10011253Y-11470341D02*
X10001729Y-11479865D01*
X10001729Y-11479865D02*
X9982681Y-11489389D01*
X9982681Y-11489389D02*
X9963634Y-11489389D01*
X9963634Y-11489389D02*
X9944586Y-11479865D01*
X9944586Y-11479865D02*
X9935062Y-11470341D01*
X9935062Y-11470341D02*
X9925539Y-11451293D01*
X9925539Y-11451293D02*
X9916015Y-11413198D01*
X9916015Y-11413198D02*
X9916015Y-11365579D01*
X9916015Y-11365579D02*
X9925539Y-11327484D01*
X9925539Y-11327484D02*
X9935062Y-11308436D01*
X9935062Y-11308436D02*
X9944586Y-11298913D01*
X9944586Y-11298913D02*
X9963634Y-11289389D01*
X10116015Y-11489389D02*
X10116015Y-11356055D01*
X10116015Y-11375103D02*
X10125539Y-11365579D01*
X10125539Y-11365579D02*
X10144586Y-11356055D01*
X10144586Y-11356055D02*
X10173158Y-11356055D01*
X10173158Y-11356055D02*
X10192205Y-11365579D01*
X10192205Y-11365579D02*
X10201729Y-11384627D01*
X10201729Y-11384627D02*
X10201729Y-11489389D01*
X10201729Y-11384627D02*
X10211253Y-11365579D01*
X10211253Y-11365579D02*
X10230300Y-11356055D01*
X10230300Y-11356055D02*
X10258872Y-11356055D01*
X10258872Y-11356055D02*
X10277920Y-11365579D01*
X10277920Y-11365579D02*
X10287443Y-11384627D01*
X10287443Y-11384627D02*
X10287443Y-11489389D01*
X10382681Y-11489389D02*
X10382681Y-11356055D01*
X10382681Y-11375103D02*
X10392205Y-11365579D01*
X10392205Y-11365579D02*
X10411253Y-11356055D01*
X10411253Y-11356055D02*
X10439824Y-11356055D01*
X10439824Y-11356055D02*
X10458872Y-11365579D01*
X10458872Y-11365579D02*
X10468396Y-11384627D01*
X10468396Y-11384627D02*
X10468396Y-11489389D01*
X10468396Y-11384627D02*
X10477920Y-11365579D01*
X10477920Y-11365579D02*
X10496967Y-11356055D01*
X10496967Y-11356055D02*
X10525539Y-11356055D01*
X10525539Y-11356055D02*
X10544586Y-11365579D01*
X10544586Y-11365579D02*
X10554110Y-11384627D01*
X10554110Y-11384627D02*
X10554110Y-11489389D01*
X10944586Y-11279865D02*
X10773158Y-11537008D01*
X11201729Y-11289389D02*
X11220777Y-11289389D01*
X11220777Y-11289389D02*
X11239824Y-11298913D01*
X11239824Y-11298913D02*
X11249348Y-11308436D01*
X11249348Y-11308436D02*
X11258872Y-11327484D01*
X11258872Y-11327484D02*
X11268396Y-11365579D01*
X11268396Y-11365579D02*
X11268396Y-11413198D01*
X11268396Y-11413198D02*
X11258872Y-11451293D01*
X11258872Y-11451293D02*
X11249348Y-11470341D01*
X11249348Y-11470341D02*
X11239824Y-11479865D01*
X11239824Y-11479865D02*
X11220777Y-11489389D01*
X11220777Y-11489389D02*
X11201729Y-11489389D01*
X11201729Y-11489389D02*
X11182682Y-11479865D01*
X11182682Y-11479865D02*
X11173158Y-11470341D01*
X11173158Y-11470341D02*
X11163634Y-11451293D01*
X11163634Y-11451293D02*
X11154110Y-11413198D01*
X11154110Y-11413198D02*
X11154110Y-11365579D01*
X11154110Y-11365579D02*
X11163634Y-11327484D01*
X11163634Y-11327484D02*
X11173158Y-11308436D01*
X11173158Y-11308436D02*
X11182682Y-11298913D01*
X11182682Y-11298913D02*
X11201729Y-11289389D01*
X11354110Y-11470341D02*
X11363634Y-11479865D01*
X11363634Y-11479865D02*
X11354110Y-11489389D01*
X11354110Y-11489389D02*
X11344586Y-11479865D01*
X11344586Y-11479865D02*
X11354110Y-11470341D01*
X11354110Y-11470341D02*
X11354110Y-11489389D01*
X11487443Y-11289389D02*
X11506491Y-11289389D01*
X11506491Y-11289389D02*
X11525539Y-11298913D01*
X11525539Y-11298913D02*
X11535062Y-11308436D01*
X11535062Y-11308436D02*
X11544586Y-11327484D01*
X11544586Y-11327484D02*
X11554110Y-11365579D01*
X11554110Y-11365579D02*
X11554110Y-11413198D01*
X11554110Y-11413198D02*
X11544586Y-11451293D01*
X11544586Y-11451293D02*
X11535062Y-11470341D01*
X11535062Y-11470341D02*
X11525539Y-11479865D01*
X11525539Y-11479865D02*
X11506491Y-11489389D01*
X11506491Y-11489389D02*
X11487443Y-11489389D01*
X11487443Y-11489389D02*
X11468396Y-11479865D01*
X11468396Y-11479865D02*
X11458872Y-11470341D01*
X11458872Y-11470341D02*
X11449348Y-11451293D01*
X11449348Y-11451293D02*
X11439824Y-11413198D01*
X11439824Y-11413198D02*
X11439824Y-11365579D01*
X11439824Y-11365579D02*
X11449348Y-11327484D01*
X11449348Y-11327484D02*
X11458872Y-11308436D01*
X11458872Y-11308436D02*
X11468396Y-11298913D01*
X11468396Y-11298913D02*
X11487443Y-11289389D01*
X11620777Y-11289389D02*
X11744586Y-11289389D01*
X11744586Y-11289389D02*
X11677920Y-11365579D01*
X11677920Y-11365579D02*
X11706491Y-11365579D01*
X11706491Y-11365579D02*
X11725539Y-11375103D01*
X11725539Y-11375103D02*
X11735062Y-11384627D01*
X11735062Y-11384627D02*
X11744586Y-11403674D01*
X11744586Y-11403674D02*
X11744586Y-11451293D01*
X11744586Y-11451293D02*
X11735062Y-11470341D01*
X11735062Y-11470341D02*
X11725539Y-11479865D01*
X11725539Y-11479865D02*
X11706491Y-11489389D01*
X11706491Y-11489389D02*
X11649348Y-11489389D01*
X11649348Y-11489389D02*
X11630301Y-11479865D01*
X11630301Y-11479865D02*
X11620777Y-11470341D01*
X11925539Y-11289389D02*
X11830301Y-11289389D01*
X11830301Y-11289389D02*
X11820777Y-11384627D01*
X11820777Y-11384627D02*
X11830301Y-11375103D01*
X11830301Y-11375103D02*
X11849348Y-11365579D01*
X11849348Y-11365579D02*
X11896967Y-11365579D01*
X11896967Y-11365579D02*
X11916015Y-11375103D01*
X11916015Y-11375103D02*
X11925539Y-11384627D01*
X11925539Y-11384627D02*
X11935062Y-11403674D01*
X11935062Y-11403674D02*
X11935062Y-11451293D01*
X11935062Y-11451293D02*
X11925539Y-11470341D01*
X11925539Y-11470341D02*
X11916015Y-11479865D01*
X11916015Y-11479865D02*
X11896967Y-11489389D01*
X11896967Y-11489389D02*
X11849348Y-11489389D01*
X11849348Y-11489389D02*
X11830301Y-11479865D01*
X11830301Y-11479865D02*
X11820777Y-11470341D01*
X12106491Y-11356055D02*
X12106491Y-11489389D01*
X12058872Y-11279865D02*
X12011253Y-11422722D01*
X12011253Y-11422722D02*
X12135062Y-11422722D01*
X12201729Y-11289389D02*
X12201729Y-11327484D01*
X12277920Y-11289389D02*
X12277920Y-11327484D01*
X12573158Y-11565579D02*
X12563634Y-11556055D01*
X12563634Y-11556055D02*
X12544586Y-11527484D01*
X12544586Y-11527484D02*
X12535063Y-11508436D01*
X12535063Y-11508436D02*
X12525539Y-11479865D01*
X12525539Y-11479865D02*
X12516015Y-11432246D01*
X12516015Y-11432246D02*
X12516015Y-11394151D01*
X12516015Y-11394151D02*
X12525539Y-11346532D01*
X12525539Y-11346532D02*
X12535063Y-11317960D01*
X12535063Y-11317960D02*
X12544586Y-11298913D01*
X12544586Y-11298913D02*
X12563634Y-11270341D01*
X12563634Y-11270341D02*
X12573158Y-11260817D01*
X12639824Y-11308436D02*
X12649348Y-11298913D01*
X12649348Y-11298913D02*
X12668396Y-11289389D01*
X12668396Y-11289389D02*
X12716015Y-11289389D01*
X12716015Y-11289389D02*
X12735063Y-11298913D01*
X12735063Y-11298913D02*
X12744586Y-11308436D01*
X12744586Y-11308436D02*
X12754110Y-11327484D01*
X12754110Y-11327484D02*
X12754110Y-11346532D01*
X12754110Y-11346532D02*
X12744586Y-11375103D01*
X12744586Y-11375103D02*
X12630301Y-11489389D01*
X12630301Y-11489389D02*
X12754110Y-11489389D01*
X12992205Y-11489389D02*
X12992205Y-11289389D01*
X13077920Y-11489389D02*
X13077920Y-11384627D01*
X13077920Y-11384627D02*
X13068396Y-11365579D01*
X13068396Y-11365579D02*
X13049348Y-11356055D01*
X13049348Y-11356055D02*
X13020777Y-11356055D01*
X13020777Y-11356055D02*
X13001729Y-11365579D01*
X13001729Y-11365579D02*
X12992205Y-11375103D01*
X13201729Y-11489389D02*
X13182682Y-11479865D01*
X13182682Y-11479865D02*
X13173158Y-11470341D01*
X13173158Y-11470341D02*
X13163634Y-11451293D01*
X13163634Y-11451293D02*
X13163634Y-11394151D01*
X13163634Y-11394151D02*
X13173158Y-11375103D01*
X13173158Y-11375103D02*
X13182682Y-11365579D01*
X13182682Y-11365579D02*
X13201729Y-11356055D01*
X13201729Y-11356055D02*
X13230301Y-11356055D01*
X13230301Y-11356055D02*
X13249348Y-11365579D01*
X13249348Y-11365579D02*
X13258872Y-11375103D01*
X13258872Y-11375103D02*
X13268396Y-11394151D01*
X13268396Y-11394151D02*
X13268396Y-11451293D01*
X13268396Y-11451293D02*
X13258872Y-11470341D01*
X13258872Y-11470341D02*
X13249348Y-11479865D01*
X13249348Y-11479865D02*
X13230301Y-11489389D01*
X13230301Y-11489389D02*
X13201729Y-11489389D01*
X13382682Y-11489389D02*
X13363634Y-11479865D01*
X13363634Y-11479865D02*
X13354110Y-11460817D01*
X13354110Y-11460817D02*
X13354110Y-11289389D01*
X13535063Y-11479865D02*
X13516015Y-11489389D01*
X13516015Y-11489389D02*
X13477920Y-11489389D01*
X13477920Y-11489389D02*
X13458872Y-11479865D01*
X13458872Y-11479865D02*
X13449348Y-11460817D01*
X13449348Y-11460817D02*
X13449348Y-11384627D01*
X13449348Y-11384627D02*
X13458872Y-11365579D01*
X13458872Y-11365579D02*
X13477920Y-11356055D01*
X13477920Y-11356055D02*
X13516015Y-11356055D01*
X13516015Y-11356055D02*
X13535063Y-11365579D01*
X13535063Y-11365579D02*
X13544586Y-11384627D01*
X13544586Y-11384627D02*
X13544586Y-11403674D01*
X13544586Y-11403674D02*
X13449348Y-11422722D01*
X13620777Y-11479865D02*
X13639825Y-11489389D01*
X13639825Y-11489389D02*
X13677920Y-11489389D01*
X13677920Y-11489389D02*
X13696967Y-11479865D01*
X13696967Y-11479865D02*
X13706491Y-11460817D01*
X13706491Y-11460817D02*
X13706491Y-11451293D01*
X13706491Y-11451293D02*
X13696967Y-11432246D01*
X13696967Y-11432246D02*
X13677920Y-11422722D01*
X13677920Y-11422722D02*
X13649348Y-11422722D01*
X13649348Y-11422722D02*
X13630301Y-11413198D01*
X13630301Y-11413198D02*
X13620777Y-11394151D01*
X13620777Y-11394151D02*
X13620777Y-11384627D01*
X13620777Y-11384627D02*
X13630301Y-11365579D01*
X13630301Y-11365579D02*
X13649348Y-11356055D01*
X13649348Y-11356055D02*
X13677920Y-11356055D01*
X13677920Y-11356055D02*
X13696967Y-11365579D01*
X13773158Y-11565579D02*
X13782682Y-11556055D01*
X13782682Y-11556055D02*
X13801729Y-11527484D01*
X13801729Y-11527484D02*
X13811253Y-11508436D01*
X13811253Y-11508436D02*
X13820777Y-11479865D01*
X13820777Y-11479865D02*
X13830301Y-11432246D01*
X13830301Y-11432246D02*
X13830301Y-11394151D01*
X13830301Y-11394151D02*
X13820777Y-11346532D01*
X13820777Y-11346532D02*
X13811253Y-11317960D01*
X13811253Y-11317960D02*
X13801729Y-11298913D01*
X13801729Y-11298913D02*
X13782682Y-11270341D01*
X13782682Y-11270341D02*
X13773158Y-11260817D01*
D12*
X8898095Y-11611905D02*
X8998095Y-11711905D01*
X8998095Y-11611905D02*
X8898095Y-11711905D01*
X8998095Y-11661905D02*
G75*
G02*
X8898095Y-11661905I-50000J0D01*
G01*
X8898095Y-11661905D02*
G75*
G02*
X8998095Y-11661905I50000J0D01*
G01*
D11*
X9363634Y-11753389D02*
X9249348Y-11753389D01*
X9306491Y-11753389D02*
X9306491Y-11553389D01*
X9306491Y-11553389D02*
X9287443Y-11581960D01*
X9287443Y-11581960D02*
X9268396Y-11601008D01*
X9268396Y-11601008D02*
X9249348Y-11610532D01*
X9449348Y-11734341D02*
X9458872Y-11743865D01*
X9458872Y-11743865D02*
X9449348Y-11753389D01*
X9449348Y-11753389D02*
X9439824Y-11743865D01*
X9439824Y-11743865D02*
X9449348Y-11734341D01*
X9449348Y-11734341D02*
X9449348Y-11753389D01*
X9582681Y-11553389D02*
X9601729Y-11553389D01*
X9601729Y-11553389D02*
X9620777Y-11562913D01*
X9620777Y-11562913D02*
X9630300Y-11572436D01*
X9630300Y-11572436D02*
X9639824Y-11591484D01*
X9639824Y-11591484D02*
X9649348Y-11629579D01*
X9649348Y-11629579D02*
X9649348Y-11677198D01*
X9649348Y-11677198D02*
X9639824Y-11715293D01*
X9639824Y-11715293D02*
X9630300Y-11734341D01*
X9630300Y-11734341D02*
X9620777Y-11743865D01*
X9620777Y-11743865D02*
X9601729Y-11753389D01*
X9601729Y-11753389D02*
X9582681Y-11753389D01*
X9582681Y-11753389D02*
X9563634Y-11743865D01*
X9563634Y-11743865D02*
X9554110Y-11734341D01*
X9554110Y-11734341D02*
X9544586Y-11715293D01*
X9544586Y-11715293D02*
X9535062Y-11677198D01*
X9535062Y-11677198D02*
X9535062Y-11629579D01*
X9535062Y-11629579D02*
X9544586Y-11591484D01*
X9544586Y-11591484D02*
X9554110Y-11572436D01*
X9554110Y-11572436D02*
X9563634Y-11562913D01*
X9563634Y-11562913D02*
X9582681Y-11553389D01*
X9773158Y-11553389D02*
X9792205Y-11553389D01*
X9792205Y-11553389D02*
X9811253Y-11562913D01*
X9811253Y-11562913D02*
X9820777Y-11572436D01*
X9820777Y-11572436D02*
X9830300Y-11591484D01*
X9830300Y-11591484D02*
X9839824Y-11629579D01*
X9839824Y-11629579D02*
X9839824Y-11677198D01*
X9839824Y-11677198D02*
X9830300Y-11715293D01*
X9830300Y-11715293D02*
X9820777Y-11734341D01*
X9820777Y-11734341D02*
X9811253Y-11743865D01*
X9811253Y-11743865D02*
X9792205Y-11753389D01*
X9792205Y-11753389D02*
X9773158Y-11753389D01*
X9773158Y-11753389D02*
X9754110Y-11743865D01*
X9754110Y-11743865D02*
X9744586Y-11734341D01*
X9744586Y-11734341D02*
X9735062Y-11715293D01*
X9735062Y-11715293D02*
X9725539Y-11677198D01*
X9725539Y-11677198D02*
X9725539Y-11629579D01*
X9725539Y-11629579D02*
X9735062Y-11591484D01*
X9735062Y-11591484D02*
X9744586Y-11572436D01*
X9744586Y-11572436D02*
X9754110Y-11562913D01*
X9754110Y-11562913D02*
X9773158Y-11553389D01*
X9963634Y-11553389D02*
X9982681Y-11553389D01*
X9982681Y-11553389D02*
X10001729Y-11562913D01*
X10001729Y-11562913D02*
X10011253Y-11572436D01*
X10011253Y-11572436D02*
X10020777Y-11591484D01*
X10020777Y-11591484D02*
X10030300Y-11629579D01*
X10030300Y-11629579D02*
X10030300Y-11677198D01*
X10030300Y-11677198D02*
X10020777Y-11715293D01*
X10020777Y-11715293D02*
X10011253Y-11734341D01*
X10011253Y-11734341D02*
X10001729Y-11743865D01*
X10001729Y-11743865D02*
X9982681Y-11753389D01*
X9982681Y-11753389D02*
X9963634Y-11753389D01*
X9963634Y-11753389D02*
X9944586Y-11743865D01*
X9944586Y-11743865D02*
X9935062Y-11734341D01*
X9935062Y-11734341D02*
X9925539Y-11715293D01*
X9925539Y-11715293D02*
X9916015Y-11677198D01*
X9916015Y-11677198D02*
X9916015Y-11629579D01*
X9916015Y-11629579D02*
X9925539Y-11591484D01*
X9925539Y-11591484D02*
X9935062Y-11572436D01*
X9935062Y-11572436D02*
X9944586Y-11562913D01*
X9944586Y-11562913D02*
X9963634Y-11553389D01*
X10116015Y-11753389D02*
X10116015Y-11620055D01*
X10116015Y-11639103D02*
X10125539Y-11629579D01*
X10125539Y-11629579D02*
X10144586Y-11620055D01*
X10144586Y-11620055D02*
X10173158Y-11620055D01*
X10173158Y-11620055D02*
X10192205Y-11629579D01*
X10192205Y-11629579D02*
X10201729Y-11648627D01*
X10201729Y-11648627D02*
X10201729Y-11753389D01*
X10201729Y-11648627D02*
X10211253Y-11629579D01*
X10211253Y-11629579D02*
X10230300Y-11620055D01*
X10230300Y-11620055D02*
X10258872Y-11620055D01*
X10258872Y-11620055D02*
X10277920Y-11629579D01*
X10277920Y-11629579D02*
X10287443Y-11648627D01*
X10287443Y-11648627D02*
X10287443Y-11753389D01*
X10382681Y-11753389D02*
X10382681Y-11620055D01*
X10382681Y-11639103D02*
X10392205Y-11629579D01*
X10392205Y-11629579D02*
X10411253Y-11620055D01*
X10411253Y-11620055D02*
X10439824Y-11620055D01*
X10439824Y-11620055D02*
X10458872Y-11629579D01*
X10458872Y-11629579D02*
X10468396Y-11648627D01*
X10468396Y-11648627D02*
X10468396Y-11753389D01*
X10468396Y-11648627D02*
X10477920Y-11629579D01*
X10477920Y-11629579D02*
X10496967Y-11620055D01*
X10496967Y-11620055D02*
X10525539Y-11620055D01*
X10525539Y-11620055D02*
X10544586Y-11629579D01*
X10544586Y-11629579D02*
X10554110Y-11648627D01*
X10554110Y-11648627D02*
X10554110Y-11753389D01*
X10944586Y-11543865D02*
X10773158Y-11801008D01*
X11201729Y-11553389D02*
X11220777Y-11553389D01*
X11220777Y-11553389D02*
X11239824Y-11562913D01*
X11239824Y-11562913D02*
X11249348Y-11572436D01*
X11249348Y-11572436D02*
X11258872Y-11591484D01*
X11258872Y-11591484D02*
X11268396Y-11629579D01*
X11268396Y-11629579D02*
X11268396Y-11677198D01*
X11268396Y-11677198D02*
X11258872Y-11715293D01*
X11258872Y-11715293D02*
X11249348Y-11734341D01*
X11249348Y-11734341D02*
X11239824Y-11743865D01*
X11239824Y-11743865D02*
X11220777Y-11753389D01*
X11220777Y-11753389D02*
X11201729Y-11753389D01*
X11201729Y-11753389D02*
X11182682Y-11743865D01*
X11182682Y-11743865D02*
X11173158Y-11734341D01*
X11173158Y-11734341D02*
X11163634Y-11715293D01*
X11163634Y-11715293D02*
X11154110Y-11677198D01*
X11154110Y-11677198D02*
X11154110Y-11629579D01*
X11154110Y-11629579D02*
X11163634Y-11591484D01*
X11163634Y-11591484D02*
X11173158Y-11572436D01*
X11173158Y-11572436D02*
X11182682Y-11562913D01*
X11182682Y-11562913D02*
X11201729Y-11553389D01*
X11354110Y-11734341D02*
X11363634Y-11743865D01*
X11363634Y-11743865D02*
X11354110Y-11753389D01*
X11354110Y-11753389D02*
X11344586Y-11743865D01*
X11344586Y-11743865D02*
X11354110Y-11734341D01*
X11354110Y-11734341D02*
X11354110Y-11753389D01*
X11487443Y-11553389D02*
X11506491Y-11553389D01*
X11506491Y-11553389D02*
X11525539Y-11562913D01*
X11525539Y-11562913D02*
X11535062Y-11572436D01*
X11535062Y-11572436D02*
X11544586Y-11591484D01*
X11544586Y-11591484D02*
X11554110Y-11629579D01*
X11554110Y-11629579D02*
X11554110Y-11677198D01*
X11554110Y-11677198D02*
X11544586Y-11715293D01*
X11544586Y-11715293D02*
X11535062Y-11734341D01*
X11535062Y-11734341D02*
X11525539Y-11743865D01*
X11525539Y-11743865D02*
X11506491Y-11753389D01*
X11506491Y-11753389D02*
X11487443Y-11753389D01*
X11487443Y-11753389D02*
X11468396Y-11743865D01*
X11468396Y-11743865D02*
X11458872Y-11734341D01*
X11458872Y-11734341D02*
X11449348Y-11715293D01*
X11449348Y-11715293D02*
X11439824Y-11677198D01*
X11439824Y-11677198D02*
X11439824Y-11629579D01*
X11439824Y-11629579D02*
X11449348Y-11591484D01*
X11449348Y-11591484D02*
X11458872Y-11572436D01*
X11458872Y-11572436D02*
X11468396Y-11562913D01*
X11468396Y-11562913D02*
X11487443Y-11553389D01*
X11620777Y-11553389D02*
X11744586Y-11553389D01*
X11744586Y-11553389D02*
X11677920Y-11629579D01*
X11677920Y-11629579D02*
X11706491Y-11629579D01*
X11706491Y-11629579D02*
X11725539Y-11639103D01*
X11725539Y-11639103D02*
X11735062Y-11648627D01*
X11735062Y-11648627D02*
X11744586Y-11667674D01*
X11744586Y-11667674D02*
X11744586Y-11715293D01*
X11744586Y-11715293D02*
X11735062Y-11734341D01*
X11735062Y-11734341D02*
X11725539Y-11743865D01*
X11725539Y-11743865D02*
X11706491Y-11753389D01*
X11706491Y-11753389D02*
X11649348Y-11753389D01*
X11649348Y-11753389D02*
X11630301Y-11743865D01*
X11630301Y-11743865D02*
X11620777Y-11734341D01*
X11839824Y-11753389D02*
X11877920Y-11753389D01*
X11877920Y-11753389D02*
X11896967Y-11743865D01*
X11896967Y-11743865D02*
X11906491Y-11734341D01*
X11906491Y-11734341D02*
X11925539Y-11705770D01*
X11925539Y-11705770D02*
X11935062Y-11667674D01*
X11935062Y-11667674D02*
X11935062Y-11591484D01*
X11935062Y-11591484D02*
X11925539Y-11572436D01*
X11925539Y-11572436D02*
X11916015Y-11562913D01*
X11916015Y-11562913D02*
X11896967Y-11553389D01*
X11896967Y-11553389D02*
X11858872Y-11553389D01*
X11858872Y-11553389D02*
X11839824Y-11562913D01*
X11839824Y-11562913D02*
X11830301Y-11572436D01*
X11830301Y-11572436D02*
X11820777Y-11591484D01*
X11820777Y-11591484D02*
X11820777Y-11639103D01*
X11820777Y-11639103D02*
X11830301Y-11658151D01*
X11830301Y-11658151D02*
X11839824Y-11667674D01*
X11839824Y-11667674D02*
X11858872Y-11677198D01*
X11858872Y-11677198D02*
X11896967Y-11677198D01*
X11896967Y-11677198D02*
X11916015Y-11667674D01*
X11916015Y-11667674D02*
X11925539Y-11658151D01*
X11925539Y-11658151D02*
X11935062Y-11639103D01*
X12106491Y-11620055D02*
X12106491Y-11753389D01*
X12058872Y-11543865D02*
X12011253Y-11686722D01*
X12011253Y-11686722D02*
X12135062Y-11686722D01*
X12201729Y-11553389D02*
X12201729Y-11591484D01*
X12277920Y-11553389D02*
X12277920Y-11591484D01*
X12573158Y-11829579D02*
X12563634Y-11820055D01*
X12563634Y-11820055D02*
X12544586Y-11791484D01*
X12544586Y-11791484D02*
X12535063Y-11772436D01*
X12535063Y-11772436D02*
X12525539Y-11743865D01*
X12525539Y-11743865D02*
X12516015Y-11696246D01*
X12516015Y-11696246D02*
X12516015Y-11658151D01*
X12516015Y-11658151D02*
X12525539Y-11610532D01*
X12525539Y-11610532D02*
X12535063Y-11581960D01*
X12535063Y-11581960D02*
X12544586Y-11562913D01*
X12544586Y-11562913D02*
X12563634Y-11534341D01*
X12563634Y-11534341D02*
X12573158Y-11524817D01*
X12630301Y-11553389D02*
X12754110Y-11553389D01*
X12754110Y-11553389D02*
X12687443Y-11629579D01*
X12687443Y-11629579D02*
X12716015Y-11629579D01*
X12716015Y-11629579D02*
X12735063Y-11639103D01*
X12735063Y-11639103D02*
X12744586Y-11648627D01*
X12744586Y-11648627D02*
X12754110Y-11667674D01*
X12754110Y-11667674D02*
X12754110Y-11715293D01*
X12754110Y-11715293D02*
X12744586Y-11734341D01*
X12744586Y-11734341D02*
X12735063Y-11743865D01*
X12735063Y-11743865D02*
X12716015Y-11753389D01*
X12716015Y-11753389D02*
X12658872Y-11753389D01*
X12658872Y-11753389D02*
X12639824Y-11743865D01*
X12639824Y-11743865D02*
X12630301Y-11734341D01*
X12877920Y-11553389D02*
X12896967Y-11553389D01*
X12896967Y-11553389D02*
X12916015Y-11562913D01*
X12916015Y-11562913D02*
X12925539Y-11572436D01*
X12925539Y-11572436D02*
X12935063Y-11591484D01*
X12935063Y-11591484D02*
X12944586Y-11629579D01*
X12944586Y-11629579D02*
X12944586Y-11677198D01*
X12944586Y-11677198D02*
X12935063Y-11715293D01*
X12935063Y-11715293D02*
X12925539Y-11734341D01*
X12925539Y-11734341D02*
X12916015Y-11743865D01*
X12916015Y-11743865D02*
X12896967Y-11753389D01*
X12896967Y-11753389D02*
X12877920Y-11753389D01*
X12877920Y-11753389D02*
X12858872Y-11743865D01*
X12858872Y-11743865D02*
X12849348Y-11734341D01*
X12849348Y-11734341D02*
X12839824Y-11715293D01*
X12839824Y-11715293D02*
X12830301Y-11677198D01*
X12830301Y-11677198D02*
X12830301Y-11629579D01*
X12830301Y-11629579D02*
X12839824Y-11591484D01*
X12839824Y-11591484D02*
X12849348Y-11572436D01*
X12849348Y-11572436D02*
X12858872Y-11562913D01*
X12858872Y-11562913D02*
X12877920Y-11553389D01*
X13182682Y-11753389D02*
X13182682Y-11553389D01*
X13268396Y-11753389D02*
X13268396Y-11648627D01*
X13268396Y-11648627D02*
X13258872Y-11629579D01*
X13258872Y-11629579D02*
X13239825Y-11620055D01*
X13239825Y-11620055D02*
X13211253Y-11620055D01*
X13211253Y-11620055D02*
X13192205Y-11629579D01*
X13192205Y-11629579D02*
X13182682Y-11639103D01*
X13392205Y-11753389D02*
X13373158Y-11743865D01*
X13373158Y-11743865D02*
X13363634Y-11734341D01*
X13363634Y-11734341D02*
X13354110Y-11715293D01*
X13354110Y-11715293D02*
X13354110Y-11658151D01*
X13354110Y-11658151D02*
X13363634Y-11639103D01*
X13363634Y-11639103D02*
X13373158Y-11629579D01*
X13373158Y-11629579D02*
X13392205Y-11620055D01*
X13392205Y-11620055D02*
X13420777Y-11620055D01*
X13420777Y-11620055D02*
X13439825Y-11629579D01*
X13439825Y-11629579D02*
X13449348Y-11639103D01*
X13449348Y-11639103D02*
X13458872Y-11658151D01*
X13458872Y-11658151D02*
X13458872Y-11715293D01*
X13458872Y-11715293D02*
X13449348Y-11734341D01*
X13449348Y-11734341D02*
X13439825Y-11743865D01*
X13439825Y-11743865D02*
X13420777Y-11753389D01*
X13420777Y-11753389D02*
X13392205Y-11753389D01*
X13573158Y-11753389D02*
X13554110Y-11743865D01*
X13554110Y-11743865D02*
X13544586Y-11724817D01*
X13544586Y-11724817D02*
X13544586Y-11553389D01*
X13725539Y-11743865D02*
X13706491Y-11753389D01*
X13706491Y-11753389D02*
X13668396Y-11753389D01*
X13668396Y-11753389D02*
X13649348Y-11743865D01*
X13649348Y-11743865D02*
X13639825Y-11724817D01*
X13639825Y-11724817D02*
X13639825Y-11648627D01*
X13639825Y-11648627D02*
X13649348Y-11629579D01*
X13649348Y-11629579D02*
X13668396Y-11620055D01*
X13668396Y-11620055D02*
X13706491Y-11620055D01*
X13706491Y-11620055D02*
X13725539Y-11629579D01*
X13725539Y-11629579D02*
X13735063Y-11648627D01*
X13735063Y-11648627D02*
X13735063Y-11667674D01*
X13735063Y-11667674D02*
X13639825Y-11686722D01*
X13811253Y-11743865D02*
X13830301Y-11753389D01*
X13830301Y-11753389D02*
X13868396Y-11753389D01*
X13868396Y-11753389D02*
X13887444Y-11743865D01*
X13887444Y-11743865D02*
X13896967Y-11724817D01*
X13896967Y-11724817D02*
X13896967Y-11715293D01*
X13896967Y-11715293D02*
X13887444Y-11696246D01*
X13887444Y-11696246D02*
X13868396Y-11686722D01*
X13868396Y-11686722D02*
X13839825Y-11686722D01*
X13839825Y-11686722D02*
X13820777Y-11677198D01*
X13820777Y-11677198D02*
X13811253Y-11658151D01*
X13811253Y-11658151D02*
X13811253Y-11648627D01*
X13811253Y-11648627D02*
X13820777Y-11629579D01*
X13820777Y-11629579D02*
X13839825Y-11620055D01*
X13839825Y-11620055D02*
X13868396Y-11620055D01*
X13868396Y-11620055D02*
X13887444Y-11629579D01*
X13963634Y-11829579D02*
X13973158Y-11820055D01*
X13973158Y-11820055D02*
X13992206Y-11791484D01*
X13992206Y-11791484D02*
X14001729Y-11772436D01*
X14001729Y-11772436D02*
X14011253Y-11743865D01*
X14011253Y-11743865D02*
X14020777Y-11696246D01*
X14020777Y-11696246D02*
X14020777Y-11658151D01*
X14020777Y-11658151D02*
X14011253Y-11610532D01*
X14011253Y-11610532D02*
X14001729Y-11581960D01*
X14001729Y-11581960D02*
X13992206Y-11562913D01*
X13992206Y-11562913D02*
X13973158Y-11534341D01*
X13973158Y-11534341D02*
X13963634Y-11524817D01*
D13*
X8888095Y-11870905D02*
X8998095Y-11980905D01*
X8998095Y-11870905D02*
X8888095Y-11980905D01*
X8943095Y-11870905D02*
X8943095Y-11980905D01*
X8888095Y-11925905D02*
X8998095Y-11925905D01*
D11*
X9363634Y-12017389D02*
X9249348Y-12017389D01*
X9306491Y-12017389D02*
X9306491Y-11817389D01*
X9306491Y-11817389D02*
X9287443Y-11845960D01*
X9287443Y-11845960D02*
X9268396Y-11865008D01*
X9268396Y-11865008D02*
X9249348Y-11874532D01*
X9449348Y-11998341D02*
X9458872Y-12007865D01*
X9458872Y-12007865D02*
X9449348Y-12017389D01*
X9449348Y-12017389D02*
X9439824Y-12007865D01*
X9439824Y-12007865D02*
X9449348Y-11998341D01*
X9449348Y-11998341D02*
X9449348Y-12017389D01*
X9649348Y-12017389D02*
X9535062Y-12017389D01*
X9592205Y-12017389D02*
X9592205Y-11817389D01*
X9592205Y-11817389D02*
X9573158Y-11845960D01*
X9573158Y-11845960D02*
X9554110Y-11865008D01*
X9554110Y-11865008D02*
X9535062Y-11874532D01*
X9773158Y-11817389D02*
X9792205Y-11817389D01*
X9792205Y-11817389D02*
X9811253Y-11826913D01*
X9811253Y-11826913D02*
X9820777Y-11836436D01*
X9820777Y-11836436D02*
X9830300Y-11855484D01*
X9830300Y-11855484D02*
X9839824Y-11893579D01*
X9839824Y-11893579D02*
X9839824Y-11941198D01*
X9839824Y-11941198D02*
X9830300Y-11979293D01*
X9830300Y-11979293D02*
X9820777Y-11998341D01*
X9820777Y-11998341D02*
X9811253Y-12007865D01*
X9811253Y-12007865D02*
X9792205Y-12017389D01*
X9792205Y-12017389D02*
X9773158Y-12017389D01*
X9773158Y-12017389D02*
X9754110Y-12007865D01*
X9754110Y-12007865D02*
X9744586Y-11998341D01*
X9744586Y-11998341D02*
X9735062Y-11979293D01*
X9735062Y-11979293D02*
X9725539Y-11941198D01*
X9725539Y-11941198D02*
X9725539Y-11893579D01*
X9725539Y-11893579D02*
X9735062Y-11855484D01*
X9735062Y-11855484D02*
X9744586Y-11836436D01*
X9744586Y-11836436D02*
X9754110Y-11826913D01*
X9754110Y-11826913D02*
X9773158Y-11817389D01*
X9963634Y-11817389D02*
X9982681Y-11817389D01*
X9982681Y-11817389D02*
X10001729Y-11826913D01*
X10001729Y-11826913D02*
X10011253Y-11836436D01*
X10011253Y-11836436D02*
X10020777Y-11855484D01*
X10020777Y-11855484D02*
X10030300Y-11893579D01*
X10030300Y-11893579D02*
X10030300Y-11941198D01*
X10030300Y-11941198D02*
X10020777Y-11979293D01*
X10020777Y-11979293D02*
X10011253Y-11998341D01*
X10011253Y-11998341D02*
X10001729Y-12007865D01*
X10001729Y-12007865D02*
X9982681Y-12017389D01*
X9982681Y-12017389D02*
X9963634Y-12017389D01*
X9963634Y-12017389D02*
X9944586Y-12007865D01*
X9944586Y-12007865D02*
X9935062Y-11998341D01*
X9935062Y-11998341D02*
X9925539Y-11979293D01*
X9925539Y-11979293D02*
X9916015Y-11941198D01*
X9916015Y-11941198D02*
X9916015Y-11893579D01*
X9916015Y-11893579D02*
X9925539Y-11855484D01*
X9925539Y-11855484D02*
X9935062Y-11836436D01*
X9935062Y-11836436D02*
X9944586Y-11826913D01*
X9944586Y-11826913D02*
X9963634Y-11817389D01*
X10116015Y-12017389D02*
X10116015Y-11884055D01*
X10116015Y-11903103D02*
X10125539Y-11893579D01*
X10125539Y-11893579D02*
X10144586Y-11884055D01*
X10144586Y-11884055D02*
X10173158Y-11884055D01*
X10173158Y-11884055D02*
X10192205Y-11893579D01*
X10192205Y-11893579D02*
X10201729Y-11912627D01*
X10201729Y-11912627D02*
X10201729Y-12017389D01*
X10201729Y-11912627D02*
X10211253Y-11893579D01*
X10211253Y-11893579D02*
X10230300Y-11884055D01*
X10230300Y-11884055D02*
X10258872Y-11884055D01*
X10258872Y-11884055D02*
X10277920Y-11893579D01*
X10277920Y-11893579D02*
X10287443Y-11912627D01*
X10287443Y-11912627D02*
X10287443Y-12017389D01*
X10382681Y-12017389D02*
X10382681Y-11884055D01*
X10382681Y-11903103D02*
X10392205Y-11893579D01*
X10392205Y-11893579D02*
X10411253Y-11884055D01*
X10411253Y-11884055D02*
X10439824Y-11884055D01*
X10439824Y-11884055D02*
X10458872Y-11893579D01*
X10458872Y-11893579D02*
X10468396Y-11912627D01*
X10468396Y-11912627D02*
X10468396Y-12017389D01*
X10468396Y-11912627D02*
X10477920Y-11893579D01*
X10477920Y-11893579D02*
X10496967Y-11884055D01*
X10496967Y-11884055D02*
X10525539Y-11884055D01*
X10525539Y-11884055D02*
X10544586Y-11893579D01*
X10544586Y-11893579D02*
X10554110Y-11912627D01*
X10554110Y-11912627D02*
X10554110Y-12017389D01*
X10944586Y-11807865D02*
X10773158Y-12065008D01*
X11201729Y-11817389D02*
X11220777Y-11817389D01*
X11220777Y-11817389D02*
X11239824Y-11826913D01*
X11239824Y-11826913D02*
X11249348Y-11836436D01*
X11249348Y-11836436D02*
X11258872Y-11855484D01*
X11258872Y-11855484D02*
X11268396Y-11893579D01*
X11268396Y-11893579D02*
X11268396Y-11941198D01*
X11268396Y-11941198D02*
X11258872Y-11979293D01*
X11258872Y-11979293D02*
X11249348Y-11998341D01*
X11249348Y-11998341D02*
X11239824Y-12007865D01*
X11239824Y-12007865D02*
X11220777Y-12017389D01*
X11220777Y-12017389D02*
X11201729Y-12017389D01*
X11201729Y-12017389D02*
X11182682Y-12007865D01*
X11182682Y-12007865D02*
X11173158Y-11998341D01*
X11173158Y-11998341D02*
X11163634Y-11979293D01*
X11163634Y-11979293D02*
X11154110Y-11941198D01*
X11154110Y-11941198D02*
X11154110Y-11893579D01*
X11154110Y-11893579D02*
X11163634Y-11855484D01*
X11163634Y-11855484D02*
X11173158Y-11836436D01*
X11173158Y-11836436D02*
X11182682Y-11826913D01*
X11182682Y-11826913D02*
X11201729Y-11817389D01*
X11354110Y-11998341D02*
X11363634Y-12007865D01*
X11363634Y-12007865D02*
X11354110Y-12017389D01*
X11354110Y-12017389D02*
X11344586Y-12007865D01*
X11344586Y-12007865D02*
X11354110Y-11998341D01*
X11354110Y-11998341D02*
X11354110Y-12017389D01*
X11487443Y-11817389D02*
X11506491Y-11817389D01*
X11506491Y-11817389D02*
X11525539Y-11826913D01*
X11525539Y-11826913D02*
X11535062Y-11836436D01*
X11535062Y-11836436D02*
X11544586Y-11855484D01*
X11544586Y-11855484D02*
X11554110Y-11893579D01*
X11554110Y-11893579D02*
X11554110Y-11941198D01*
X11554110Y-11941198D02*
X11544586Y-11979293D01*
X11544586Y-11979293D02*
X11535062Y-11998341D01*
X11535062Y-11998341D02*
X11525539Y-12007865D01*
X11525539Y-12007865D02*
X11506491Y-12017389D01*
X11506491Y-12017389D02*
X11487443Y-12017389D01*
X11487443Y-12017389D02*
X11468396Y-12007865D01*
X11468396Y-12007865D02*
X11458872Y-11998341D01*
X11458872Y-11998341D02*
X11449348Y-11979293D01*
X11449348Y-11979293D02*
X11439824Y-11941198D01*
X11439824Y-11941198D02*
X11439824Y-11893579D01*
X11439824Y-11893579D02*
X11449348Y-11855484D01*
X11449348Y-11855484D02*
X11458872Y-11836436D01*
X11458872Y-11836436D02*
X11468396Y-11826913D01*
X11468396Y-11826913D02*
X11487443Y-11817389D01*
X11725539Y-11884055D02*
X11725539Y-12017389D01*
X11677920Y-11807865D02*
X11630301Y-11950722D01*
X11630301Y-11950722D02*
X11754110Y-11950722D01*
X11811253Y-11817389D02*
X11935062Y-11817389D01*
X11935062Y-11817389D02*
X11868396Y-11893579D01*
X11868396Y-11893579D02*
X11896967Y-11893579D01*
X11896967Y-11893579D02*
X11916015Y-11903103D01*
X11916015Y-11903103D02*
X11925539Y-11912627D01*
X11925539Y-11912627D02*
X11935062Y-11931674D01*
X11935062Y-11931674D02*
X11935062Y-11979293D01*
X11935062Y-11979293D02*
X11925539Y-11998341D01*
X11925539Y-11998341D02*
X11916015Y-12007865D01*
X11916015Y-12007865D02*
X11896967Y-12017389D01*
X11896967Y-12017389D02*
X11839824Y-12017389D01*
X11839824Y-12017389D02*
X11820777Y-12007865D01*
X11820777Y-12007865D02*
X11811253Y-11998341D01*
X12001729Y-11817389D02*
X12125539Y-11817389D01*
X12125539Y-11817389D02*
X12058872Y-11893579D01*
X12058872Y-11893579D02*
X12087443Y-11893579D01*
X12087443Y-11893579D02*
X12106491Y-11903103D01*
X12106491Y-11903103D02*
X12116015Y-11912627D01*
X12116015Y-11912627D02*
X12125539Y-11931674D01*
X12125539Y-11931674D02*
X12125539Y-11979293D01*
X12125539Y-11979293D02*
X12116015Y-11998341D01*
X12116015Y-11998341D02*
X12106491Y-12007865D01*
X12106491Y-12007865D02*
X12087443Y-12017389D01*
X12087443Y-12017389D02*
X12030301Y-12017389D01*
X12030301Y-12017389D02*
X12011253Y-12007865D01*
X12011253Y-12007865D02*
X12001729Y-11998341D01*
X12201729Y-11817389D02*
X12201729Y-11855484D01*
X12277920Y-11817389D02*
X12277920Y-11855484D01*
X12573158Y-12093579D02*
X12563634Y-12084055D01*
X12563634Y-12084055D02*
X12544586Y-12055484D01*
X12544586Y-12055484D02*
X12535063Y-12036436D01*
X12535063Y-12036436D02*
X12525539Y-12007865D01*
X12525539Y-12007865D02*
X12516015Y-11960246D01*
X12516015Y-11960246D02*
X12516015Y-11922151D01*
X12516015Y-11922151D02*
X12525539Y-11874532D01*
X12525539Y-11874532D02*
X12535063Y-11845960D01*
X12535063Y-11845960D02*
X12544586Y-11826913D01*
X12544586Y-11826913D02*
X12563634Y-11798341D01*
X12563634Y-11798341D02*
X12573158Y-11788817D01*
X12754110Y-12017389D02*
X12639824Y-12017389D01*
X12696967Y-12017389D02*
X12696967Y-11817389D01*
X12696967Y-11817389D02*
X12677920Y-11845960D01*
X12677920Y-11845960D02*
X12658872Y-11865008D01*
X12658872Y-11865008D02*
X12639824Y-11874532D01*
X12830301Y-11836436D02*
X12839824Y-11826913D01*
X12839824Y-11826913D02*
X12858872Y-11817389D01*
X12858872Y-11817389D02*
X12906491Y-11817389D01*
X12906491Y-11817389D02*
X12925539Y-11826913D01*
X12925539Y-11826913D02*
X12935063Y-11836436D01*
X12935063Y-11836436D02*
X12944586Y-11855484D01*
X12944586Y-11855484D02*
X12944586Y-11874532D01*
X12944586Y-11874532D02*
X12935063Y-11903103D01*
X12935063Y-11903103D02*
X12820777Y-12017389D01*
X12820777Y-12017389D02*
X12944586Y-12017389D01*
X13182682Y-12017389D02*
X13182682Y-11817389D01*
X13268396Y-12017389D02*
X13268396Y-11912627D01*
X13268396Y-11912627D02*
X13258872Y-11893579D01*
X13258872Y-11893579D02*
X13239825Y-11884055D01*
X13239825Y-11884055D02*
X13211253Y-11884055D01*
X13211253Y-11884055D02*
X13192205Y-11893579D01*
X13192205Y-11893579D02*
X13182682Y-11903103D01*
X13392205Y-12017389D02*
X13373158Y-12007865D01*
X13373158Y-12007865D02*
X13363634Y-11998341D01*
X13363634Y-11998341D02*
X13354110Y-11979293D01*
X13354110Y-11979293D02*
X13354110Y-11922151D01*
X13354110Y-11922151D02*
X13363634Y-11903103D01*
X13363634Y-11903103D02*
X13373158Y-11893579D01*
X13373158Y-11893579D02*
X13392205Y-11884055D01*
X13392205Y-11884055D02*
X13420777Y-11884055D01*
X13420777Y-11884055D02*
X13439825Y-11893579D01*
X13439825Y-11893579D02*
X13449348Y-11903103D01*
X13449348Y-11903103D02*
X13458872Y-11922151D01*
X13458872Y-11922151D02*
X13458872Y-11979293D01*
X13458872Y-11979293D02*
X13449348Y-11998341D01*
X13449348Y-11998341D02*
X13439825Y-12007865D01*
X13439825Y-12007865D02*
X13420777Y-12017389D01*
X13420777Y-12017389D02*
X13392205Y-12017389D01*
X13573158Y-12017389D02*
X13554110Y-12007865D01*
X13554110Y-12007865D02*
X13544586Y-11988817D01*
X13544586Y-11988817D02*
X13544586Y-11817389D01*
X13725539Y-12007865D02*
X13706491Y-12017389D01*
X13706491Y-12017389D02*
X13668396Y-12017389D01*
X13668396Y-12017389D02*
X13649348Y-12007865D01*
X13649348Y-12007865D02*
X13639825Y-11988817D01*
X13639825Y-11988817D02*
X13639825Y-11912627D01*
X13639825Y-11912627D02*
X13649348Y-11893579D01*
X13649348Y-11893579D02*
X13668396Y-11884055D01*
X13668396Y-11884055D02*
X13706491Y-11884055D01*
X13706491Y-11884055D02*
X13725539Y-11893579D01*
X13725539Y-11893579D02*
X13735063Y-11912627D01*
X13735063Y-11912627D02*
X13735063Y-11931674D01*
X13735063Y-11931674D02*
X13639825Y-11950722D01*
X13811253Y-12007865D02*
X13830301Y-12017389D01*
X13830301Y-12017389D02*
X13868396Y-12017389D01*
X13868396Y-12017389D02*
X13887444Y-12007865D01*
X13887444Y-12007865D02*
X13896967Y-11988817D01*
X13896967Y-11988817D02*
X13896967Y-11979293D01*
X13896967Y-11979293D02*
X13887444Y-11960246D01*
X13887444Y-11960246D02*
X13868396Y-11950722D01*
X13868396Y-11950722D02*
X13839825Y-11950722D01*
X13839825Y-11950722D02*
X13820777Y-11941198D01*
X13820777Y-11941198D02*
X13811253Y-11922151D01*
X13811253Y-11922151D02*
X13811253Y-11912627D01*
X13811253Y-11912627D02*
X13820777Y-11893579D01*
X13820777Y-11893579D02*
X13839825Y-11884055D01*
X13839825Y-11884055D02*
X13868396Y-11884055D01*
X13868396Y-11884055D02*
X13887444Y-11893579D01*
X13963634Y-12093579D02*
X13973158Y-12084055D01*
X13973158Y-12084055D02*
X13992206Y-12055484D01*
X13992206Y-12055484D02*
X14001729Y-12036436D01*
X14001729Y-12036436D02*
X14011253Y-12007865D01*
X14011253Y-12007865D02*
X14020777Y-11960246D01*
X14020777Y-11960246D02*
X14020777Y-11922151D01*
X14020777Y-11922151D02*
X14011253Y-11874532D01*
X14011253Y-11874532D02*
X14001729Y-11845960D01*
X14001729Y-11845960D02*
X13992206Y-11826913D01*
X13992206Y-11826913D02*
X13973158Y-11798341D01*
X13973158Y-11798341D02*
X13963634Y-11788817D01*
M02*
