%TF.GenerationSoftware,KiCad,Pcbnew,9.0.7*%
%TF.CreationDate,2026-03-08T14:49:00+01:00*%
%TF.ProjectId,test,74657374-2e6b-4696-9361-645f70636258,rev?*%
%TF.SameCoordinates,Original*%
%TF.FileFunction,Copper,L1,Top*%
%TF.FilePolarity,Positive*%
%FSLAX46Y46*%
G04 Gerber Fmt 4.6, Leading zero omitted, Abs format (unit mm)*
G04 Created by KiCad (PCBNEW 9.0.7) date 2026-03-08 14:49:00*
%MOMM*%
%LPD*%
G01*
G04 APERTURE LIST*
%TA.AperFunction,ComponentPad*%
%ADD10C,1.524000*%
%TD*%
%TA.AperFunction,ComponentPad*%
%ADD11R,1.524000X1.524000*%
%TD*%
%TA.AperFunction,ComponentPad*%
%ADD12C,1.542000*%
%TD*%
%TA.AperFunction,ComponentPad*%
%ADD13R,1.542000X1.542000*%
%TD*%
%TA.AperFunction,ComponentPad*%
%ADD14C,1.600000*%
%TD*%
%TA.AperFunction,ComponentPad*%
%ADD15C,2.000000*%
%TD*%
%TA.AperFunction,ComponentPad*%
%ADD16R,1.600000X1.600000*%
%TD*%
%TA.AperFunction,ComponentPad*%
%ADD17O,1.600000X1.600000*%
%TD*%
%TA.AperFunction,ComponentPad*%
%ADD18R,1.800000X1.800000*%
%TD*%
%TA.AperFunction,ComponentPad*%
%ADD19C,1.800000*%
%TD*%
%TA.AperFunction,ViaPad*%
%ADD20C,0.600000*%
%TD*%
%TA.AperFunction,Conductor*%
%ADD21C,0.200000*%
%TD*%
%TA.AperFunction,Conductor*%
%ADD22C,0.400000*%
%TD*%
G04 APERTURE END LIST*
D10*
%TO.P,U1,5,VCC*%
%TO.N,+5V*%
X103666000Y-81915000D03*
%TO.P,U1,4,GND*%
%TO.N,GND*%
X101166000Y-81915000D03*
%TO.P,U1,3,SCL*%
%TO.N,Net-(A1-A5)*%
X98666000Y-81915000D03*
%TO.P,U1,2,SDA*%
%TO.N,Net-(A1-A4)*%
X96166000Y-81915000D03*
D11*
%TO.P,U1,1,INT*%
%TO.N,unconnected-(U1-INT-Pad1)*%
X93666000Y-81915000D03*
%TD*%
D12*
%TO.P,U2,4,SDA*%
%TO.N,Net-(A1-A4)*%
X108585000Y-50165000D03*
%TO.P,U2,3,SCL*%
%TO.N,Net-(A1-A5)*%
X106045000Y-50165000D03*
%TO.P,U2,2,VCC*%
%TO.N,+5V*%
X103505000Y-50165000D03*
D13*
%TO.P,U2,1,GND*%
%TO.N,GND*%
X100965000Y-50165000D03*
%TD*%
D14*
%TO.P,C3,1*%
%TO.N,Net-(A1-D4)*%
X148590000Y-90170000D03*
%TO.P,C3,2*%
%TO.N,GND*%
X148590000Y-85170000D03*
%TD*%
%TO.P,R4,1*%
%TO.N,Net-(A1-D12)*%
X151130000Y-50800000D03*
%TO.P,R4,2*%
%TO.N,Net-(D1-A)*%
X158750000Y-50800000D03*
%TD*%
D15*
%TO.P,DOWN,1,1*%
%TO.N,GND*%
X163830000Y-84400000D03*
X170330000Y-84400000D03*
%TO.P,DOWN,2,2*%
%TO.N,Net-(A1-D4)*%
X163830000Y-88900000D03*
X170330000Y-88900000D03*
%TD*%
%TO.P,MENU,1,1*%
%TO.N,GND*%
X163680000Y-59000000D03*
X170180000Y-59000000D03*
%TO.P,MENU,2,2*%
%TO.N,Net-(A1-D2)*%
X163680000Y-63500000D03*
X170180000Y-63500000D03*
%TD*%
D16*
%TO.P,A1,1,D1/TX*%
%TO.N,unconnected-(A1-D1{slash}TX-Pad1)*%
X142240000Y-89535000D03*
D17*
%TO.P,A1,2,D0/RX*%
%TO.N,unconnected-(A1-D0{slash}RX-Pad2)*%
X142240000Y-86995000D03*
%TO.P,A1,3,~{RESET}*%
%TO.N,unconnected-(A1-~{RESET}-Pad3)*%
X142240000Y-84455000D03*
%TO.P,A1,4,GND*%
%TO.N,GND*%
X142240000Y-81915000D03*
%TO.P,A1,5,D2*%
%TO.N,Net-(A1-D2)*%
X142240000Y-79375000D03*
%TO.P,A1,6,D3*%
%TO.N,Net-(A1-D3)*%
X142240000Y-76835000D03*
%TO.P,A1,7,D4*%
%TO.N,Net-(A1-D4)*%
X142240000Y-74295000D03*
%TO.P,A1,8,D5*%
%TO.N,unconnected-(A1-D5-Pad8)*%
X142240000Y-71755000D03*
%TO.P,A1,9,D6*%
%TO.N,unconnected-(A1-D6-Pad9)*%
X142240000Y-69215000D03*
%TO.P,A1,10,D7*%
%TO.N,unconnected-(A1-D7-Pad10)*%
X142240000Y-66675000D03*
%TO.P,A1,11,D8*%
%TO.N,unconnected-(A1-D8-Pad11)*%
X142240000Y-64135000D03*
%TO.P,A1,12,D9*%
%TO.N,unconnected-(A1-D9-Pad12)*%
X142240000Y-61595000D03*
%TO.P,A1,13,D10*%
%TO.N,unconnected-(A1-D10-Pad13)*%
X142240000Y-59055000D03*
%TO.P,A1,14,D11*%
%TO.N,unconnected-(A1-D11-Pad14)*%
X142240000Y-56515000D03*
%TO.P,A1,15,D12*%
%TO.N,Net-(A1-D12)*%
X142240000Y-53975000D03*
%TO.P,A1,16,D13*%
%TO.N,unconnected-(A1-D13-Pad16)*%
X127000000Y-53975000D03*
%TO.P,A1,17,3V3*%
%TO.N,unconnected-(A1-3V3-Pad17)*%
X127000000Y-56515000D03*
%TO.P,A1,18,AREF*%
%TO.N,unconnected-(A1-AREF-Pad18)*%
X127000000Y-59055000D03*
%TO.P,A1,19,A0*%
%TO.N,unconnected-(A1-A0-Pad19)*%
X127000000Y-61595000D03*
%TO.P,A1,20,A1*%
%TO.N,unconnected-(A1-A1-Pad20)*%
X127000000Y-64135000D03*
%TO.P,A1,21,A2*%
%TO.N,unconnected-(A1-A2-Pad21)*%
X127000000Y-66675000D03*
%TO.P,A1,22,A3*%
%TO.N,unconnected-(A1-A3-Pad22)*%
X127000000Y-69215000D03*
%TO.P,A1,23,A4*%
%TO.N,Net-(A1-A4)*%
X127000000Y-71755000D03*
%TO.P,A1,24,A5*%
%TO.N,Net-(A1-A5)*%
X127000000Y-74295000D03*
%TO.P,A1,25,A6*%
%TO.N,unconnected-(A1-A6-Pad25)*%
X127000000Y-76835000D03*
%TO.P,A1,26,A7*%
%TO.N,unconnected-(A1-A7-Pad26)*%
X127000000Y-79375000D03*
%TO.P,A1,27,+5V*%
%TO.N,+5V*%
X127000000Y-81915000D03*
%TO.P,A1,28,~{RESET}*%
%TO.N,unconnected-(A1-~{RESET}-Pad28)*%
X127000000Y-84455000D03*
%TO.P,A1,29,GND*%
%TO.N,GND*%
X127000000Y-86995000D03*
%TO.P,A1,30,VIN*%
%TO.N,unconnected-(A1-VIN-Pad30)*%
X127000000Y-89535000D03*
%TD*%
D14*
%TO.P,R1,1*%
%TO.N,+5V*%
X157330000Y-57730000D03*
%TO.P,R1,2*%
%TO.N,Net-(A1-D2)*%
X157330000Y-65350000D03*
%TD*%
%TO.P,C2,1*%
%TO.N,Net-(A1-D3)*%
X149860000Y-77470000D03*
%TO.P,C2,2*%
%TO.N,GND*%
X149860000Y-72470000D03*
%TD*%
D18*
%TO.P,ALARM,1,K*%
%TO.N,GND*%
X167640000Y-52070000D03*
D19*
%TO.P,ALARM,2,A*%
%TO.N,Net-(D1-A)*%
X167640000Y-49530000D03*
%TD*%
D14*
%TO.P,R2,1*%
%TO.N,+5V*%
X157480000Y-71120000D03*
%TO.P,R2,2*%
%TO.N,Net-(A1-D3)*%
X157480000Y-78740000D03*
%TD*%
%TO.P,R3,1*%
%TO.N,+5V*%
X157480000Y-83820000D03*
%TO.P,R3,2*%
%TO.N,Net-(A1-D4)*%
X157480000Y-91440000D03*
%TD*%
D15*
%TO.P,UP,1,1*%
%TO.N,GND*%
X163830000Y-71700000D03*
X170330000Y-71700000D03*
%TO.P,UP,2,2*%
%TO.N,Net-(A1-D3)*%
X163830000Y-76200000D03*
X170330000Y-76200000D03*
%TD*%
D14*
%TO.P,C1,1*%
%TO.N,Net-(A1-D2)*%
X149710000Y-64040000D03*
%TO.P,C1,2*%
%TO.N,GND*%
X149710000Y-59040000D03*
%TD*%
D20*
%TO.N,Net-(A1-A4)*%
X107600000Y-71500000D03*
%TO.N,Net-(A1-D4)*%
X147173000Y-74700000D03*
%TO.N,Net-(A1-D2)*%
X147700000Y-78900000D03*
%TO.N,Net-(A1-A5)*%
X106200000Y-74300000D03*
%TD*%
D21*
%TO.N,Net-(A1-A4)*%
X126955000Y-71800000D02*
X127000000Y-71755000D01*
X107900000Y-71800000D02*
X126955000Y-71800000D01*
X107600000Y-71500000D02*
X107900000Y-71800000D01*
X96200000Y-78300000D02*
X96200000Y-81881000D01*
X107100000Y-71800000D02*
X100600000Y-78300000D01*
X100600000Y-78300000D02*
X96200000Y-78300000D01*
X107300000Y-71800000D02*
X107100000Y-71800000D01*
X107600000Y-71500000D02*
X107300000Y-71800000D01*
X96200000Y-81881000D02*
X96166000Y-81915000D01*
%TO.N,Net-(A1-D4)*%
X148590000Y-90170000D02*
X156210000Y-90170000D01*
X146768000Y-74295000D02*
X147173000Y-74700000D01*
X157480000Y-91440000D02*
X161290000Y-91440000D01*
X142240000Y-74295000D02*
X146768000Y-74295000D01*
X156210000Y-90170000D02*
X157480000Y-91440000D01*
X163830000Y-88900000D02*
X170330000Y-88900000D01*
X161290000Y-91440000D02*
X163830000Y-88900000D01*
%TO.N,Net-(A1-D3)*%
X161290000Y-78740000D02*
X163830000Y-76200000D01*
D22*
X142240000Y-76835000D02*
X149225000Y-76835000D01*
D21*
X157480000Y-78740000D02*
X161290000Y-78740000D01*
X156210000Y-77470000D02*
X157480000Y-78740000D01*
D22*
X149225000Y-76835000D02*
X149860000Y-77470000D01*
D21*
X163830000Y-76200000D02*
X170330000Y-76200000D01*
X149860000Y-77470000D02*
X156210000Y-77470000D01*
%TO.N,Net-(A1-D2)*%
X157330000Y-65350000D02*
X161830000Y-65350000D01*
X163680000Y-63500000D02*
X170180000Y-63500000D01*
X161830000Y-65350000D02*
X163680000Y-63500000D01*
X149710000Y-64040000D02*
X156020000Y-64040000D01*
X156020000Y-64040000D02*
X157330000Y-65350000D01*
X142240000Y-79375000D02*
X147225000Y-79375000D01*
X147225000Y-79375000D02*
X147700000Y-78900000D01*
%TO.N,Net-(A1-A5)*%
X106200000Y-74300000D02*
X126995000Y-74300000D01*
X126995000Y-74300000D02*
X127000000Y-74295000D01*
X106200000Y-74381000D02*
X98666000Y-81915000D01*
D22*
X106200000Y-74300000D02*
X106200000Y-74381000D01*
D21*
%TO.N,Net-(A1-D12)*%
X147955000Y-53975000D02*
X151130000Y-50800000D01*
X142240000Y-53975000D02*
X147955000Y-53975000D01*
%TO.N,+5V*%
X128115000Y-80800000D02*
X127000000Y-81915000D01*
X154460000Y-80800000D02*
X128115000Y-80800000D01*
D22*
X127000000Y-81915000D02*
X103666000Y-81915000D01*
D21*
X157480000Y-83820000D02*
X154460000Y-80800000D01*
%TO.N,Net-(D1-A)*%
X158750000Y-50800000D02*
X166370000Y-50800000D01*
X166370000Y-50800000D02*
X167640000Y-49530000D01*
%TD*%
%TA.AperFunction,Conductor*%
%TO.N,GND*%
G36*
X125839985Y-74920185D02*
G01*
X125883432Y-74968208D01*
X125887713Y-74976612D01*
X126008028Y-75142213D01*
X126152786Y-75286971D01*
X126307749Y-75399556D01*
X126318390Y-75407287D01*
X126409840Y-75453883D01*
X126411080Y-75454515D01*
X126461876Y-75502490D01*
X126478671Y-75570311D01*
X126456134Y-75636446D01*
X126411080Y-75675485D01*
X126318386Y-75722715D01*
X126152786Y-75843028D01*
X126008028Y-75987786D01*
X125887715Y-76153386D01*
X125794781Y-76335776D01*
X125731522Y-76530465D01*
X125699500Y-76732648D01*
X125699500Y-76937351D01*
X125731522Y-77139534D01*
X125794781Y-77334223D01*
X125858691Y-77459653D01*
X125864739Y-77471522D01*
X125887715Y-77516613D01*
X126008028Y-77682213D01*
X126152786Y-77826971D01*
X126296372Y-77931290D01*
X126318390Y-77947287D01*
X126409840Y-77993883D01*
X126411080Y-77994515D01*
X126461876Y-78042490D01*
X126478671Y-78110311D01*
X126456134Y-78176446D01*
X126411080Y-78215485D01*
X126318386Y-78262715D01*
X126152786Y-78383028D01*
X126008028Y-78527786D01*
X125887715Y-78693386D01*
X125794781Y-78875776D01*
X125731522Y-79070465D01*
X125699500Y-79272648D01*
X125699500Y-79477351D01*
X125731522Y-79679534D01*
X125794781Y-79874223D01*
X125842331Y-79967543D01*
X125882602Y-80046580D01*
X125887715Y-80056613D01*
X126008028Y-80222213D01*
X126152786Y-80366971D01*
X126264036Y-80447797D01*
X126318390Y-80487287D01*
X126409840Y-80533883D01*
X126411080Y-80534515D01*
X126461876Y-80582490D01*
X126478671Y-80650311D01*
X126456134Y-80716446D01*
X126411080Y-80755485D01*
X126318386Y-80802715D01*
X126152786Y-80923028D01*
X126008030Y-81067784D01*
X125938575Y-81163384D01*
X125883245Y-81206051D01*
X125838256Y-81214500D01*
X104780774Y-81214500D01*
X104713735Y-81194815D01*
X104680457Y-81163387D01*
X104628981Y-81092536D01*
X104488464Y-80952019D01*
X104327694Y-80835213D01*
X104150632Y-80744994D01*
X104150629Y-80744993D01*
X103961637Y-80683587D01*
X103863498Y-80668043D01*
X103765361Y-80652500D01*
X103566639Y-80652500D01*
X103501214Y-80662862D01*
X103370362Y-80683587D01*
X103181370Y-80744993D01*
X103181367Y-80744994D01*
X103004305Y-80835213D01*
X102843533Y-80952021D01*
X102703021Y-81092533D01*
X102586213Y-81253305D01*
X102526204Y-81371079D01*
X102478229Y-81421875D01*
X102410408Y-81438670D01*
X102344273Y-81416132D01*
X102305234Y-81371079D01*
X102245358Y-81253567D01*
X102218268Y-81216283D01*
X101547000Y-81887551D01*
X101547000Y-81864840D01*
X101521036Y-81767939D01*
X101470876Y-81681060D01*
X101399940Y-81610124D01*
X101313061Y-81559964D01*
X101216160Y-81534000D01*
X101193446Y-81534000D01*
X101864715Y-80862730D01*
X101827432Y-80835641D01*
X101650437Y-80745457D01*
X101461522Y-80684075D01*
X101265321Y-80653000D01*
X101076595Y-80653000D01*
X101009556Y-80633315D01*
X100963801Y-80580511D01*
X100953857Y-80511353D01*
X100982882Y-80447797D01*
X100988900Y-80441333D01*
X106315775Y-75114458D01*
X106377096Y-75080975D01*
X106379121Y-75080552D01*
X106433497Y-75069737D01*
X106579179Y-75009394D01*
X106628244Y-74976610D01*
X106710875Y-74921398D01*
X106777553Y-74900520D01*
X106779766Y-74900500D01*
X125772946Y-74900500D01*
X125839985Y-74920185D01*
G37*
%TD.AperFunction*%
%TA.AperFunction,Conductor*%
G36*
X173442539Y-46520185D02*
G01*
X173488294Y-46572989D01*
X173499500Y-46624500D01*
X173499500Y-96375500D01*
X173479815Y-96442539D01*
X173427011Y-96488294D01*
X173375500Y-96499500D01*
X90624500Y-96499500D01*
X90557461Y-96479815D01*
X90511706Y-96427011D01*
X90500500Y-96375500D01*
X90500500Y-81105135D01*
X92403500Y-81105135D01*
X92403500Y-82724870D01*
X92403501Y-82724876D01*
X92409908Y-82784483D01*
X92460202Y-82919328D01*
X92460206Y-82919335D01*
X92546452Y-83034544D01*
X92546455Y-83034547D01*
X92661664Y-83120793D01*
X92661671Y-83120797D01*
X92796517Y-83171091D01*
X92796516Y-83171091D01*
X92803444Y-83171835D01*
X92856127Y-83177500D01*
X94475872Y-83177499D01*
X94535483Y-83171091D01*
X94670331Y-83120796D01*
X94785546Y-83034546D01*
X94871796Y-82919331D01*
X94922091Y-82784483D01*
X94928299Y-82726739D01*
X94955034Y-82662193D01*
X95012426Y-82622344D01*
X95082251Y-82619849D01*
X95142341Y-82655501D01*
X95151904Y-82667112D01*
X95181405Y-82707715D01*
X95203019Y-82737464D01*
X95343536Y-82877981D01*
X95504306Y-82994787D01*
X95568085Y-83027284D01*
X95681367Y-83085005D01*
X95681370Y-83085006D01*
X95768369Y-83113273D01*
X95870364Y-83146413D01*
X96066639Y-83177500D01*
X96066640Y-83177500D01*
X96265360Y-83177500D01*
X96265361Y-83177500D01*
X96461636Y-83146413D01*
X96650632Y-83085005D01*
X96827694Y-82994787D01*
X96988464Y-82877981D01*
X97128981Y-82737464D01*
X97245787Y-82576694D01*
X97305515Y-82459470D01*
X97353490Y-82408675D01*
X97421311Y-82391880D01*
X97487445Y-82414417D01*
X97526484Y-82459469D01*
X97586213Y-82576694D01*
X97703019Y-82737464D01*
X97843536Y-82877981D01*
X98004306Y-82994787D01*
X98068085Y-83027284D01*
X98181367Y-83085005D01*
X98181370Y-83085006D01*
X98268369Y-83113273D01*
X98370364Y-83146413D01*
X98566639Y-83177500D01*
X98566640Y-83177500D01*
X98765360Y-83177500D01*
X98765361Y-83177500D01*
X98961636Y-83146413D01*
X99150632Y-83085005D01*
X99327694Y-82994787D01*
X99488464Y-82877981D01*
X99628981Y-82737464D01*
X99745787Y-82576694D01*
X99805796Y-82458919D01*
X99853769Y-82408124D01*
X99921590Y-82391329D01*
X99987725Y-82413866D01*
X100026765Y-82458920D01*
X100086641Y-82576432D01*
X100113730Y-82613715D01*
X100785000Y-81942445D01*
X100785000Y-81965160D01*
X100810964Y-82062061D01*
X100861124Y-82148940D01*
X100932060Y-82219876D01*
X101018939Y-82270036D01*
X101115840Y-82296000D01*
X101138553Y-82296000D01*
X100467283Y-82967268D01*
X100467283Y-82967269D01*
X100504567Y-82994358D01*
X100681562Y-83084542D01*
X100870477Y-83145924D01*
X101066679Y-83177000D01*
X101265321Y-83177000D01*
X101461520Y-83145924D01*
X101461523Y-83145924D01*
X101650437Y-83084542D01*
X101827425Y-82994362D01*
X101864716Y-82967268D01*
X101193448Y-82296000D01*
X101216160Y-82296000D01*
X101313061Y-82270036D01*
X101399940Y-82219876D01*
X101470876Y-82148940D01*
X101521036Y-82062061D01*
X101547000Y-81965160D01*
X101547000Y-81942447D01*
X102218268Y-82613715D01*
X102245364Y-82576422D01*
X102305234Y-82458921D01*
X102353208Y-82408124D01*
X102421029Y-82391329D01*
X102487164Y-82413866D01*
X102526203Y-82458919D01*
X102586213Y-82576694D01*
X102703019Y-82737464D01*
X102843536Y-82877981D01*
X103004306Y-82994787D01*
X103068085Y-83027284D01*
X103181367Y-83085005D01*
X103181370Y-83085006D01*
X103268369Y-83113273D01*
X103370364Y-83146413D01*
X103566639Y-83177500D01*
X103566640Y-83177500D01*
X103765360Y-83177500D01*
X103765361Y-83177500D01*
X103961636Y-83146413D01*
X104150632Y-83085005D01*
X104327694Y-82994787D01*
X104488464Y-82877981D01*
X104628981Y-82737464D01*
X104680457Y-82666613D01*
X104735786Y-82623949D01*
X104780774Y-82615500D01*
X125838256Y-82615500D01*
X125905295Y-82635185D01*
X125938575Y-82666616D01*
X126008030Y-82762215D01*
X126152786Y-82906971D01*
X126307749Y-83019556D01*
X126318390Y-83027287D01*
X126409840Y-83073883D01*
X126411080Y-83074515D01*
X126461876Y-83122490D01*
X126478671Y-83190311D01*
X126456134Y-83256446D01*
X126411080Y-83295485D01*
X126318386Y-83342715D01*
X126152786Y-83463028D01*
X126008028Y-83607786D01*
X125887715Y-83773386D01*
X125794781Y-83955776D01*
X125731522Y-84150465D01*
X125699500Y-84352648D01*
X125699500Y-84557351D01*
X125731522Y-84759534D01*
X125794781Y-84954223D01*
X125887715Y-85136613D01*
X126008028Y-85302213D01*
X126152786Y-85446971D01*
X126284605Y-85542741D01*
X126318390Y-85567287D01*
X126390424Y-85603990D01*
X126411629Y-85614795D01*
X126462425Y-85662770D01*
X126479220Y-85730591D01*
X126456682Y-85796726D01*
X126411629Y-85835765D01*
X126318650Y-85883140D01*
X126153105Y-86003417D01*
X126153104Y-86003417D01*
X126008417Y-86148104D01*
X126008417Y-86148105D01*
X125888140Y-86313650D01*
X125795244Y-86495970D01*
X125732009Y-86690586D01*
X125723391Y-86745000D01*
X126566988Y-86745000D01*
X126534075Y-86802007D01*
X126500000Y-86929174D01*
X126500000Y-87060826D01*
X126534075Y-87187993D01*
X126566988Y-87245000D01*
X125723391Y-87245000D01*
X125732009Y-87299413D01*
X125795244Y-87494029D01*
X125888140Y-87676349D01*
X126008417Y-87841894D01*
X126008417Y-87841895D01*
X126153104Y-87986582D01*
X126318652Y-88106861D01*
X126411628Y-88154234D01*
X126462425Y-88202208D01*
X126479220Y-88270029D01*
X126456683Y-88336164D01*
X126411630Y-88375203D01*
X126318388Y-88422713D01*
X126152786Y-88543028D01*
X126008028Y-88687786D01*
X125887715Y-88853386D01*
X125794781Y-89035776D01*
X125731522Y-89230465D01*
X125699500Y-89432648D01*
X125699500Y-89637351D01*
X125731522Y-89839534D01*
X125794781Y-90034223D01*
X125858691Y-90159653D01*
X125864739Y-90171522D01*
X125887715Y-90216613D01*
X126008028Y-90382213D01*
X126152786Y-90526971D01*
X126307749Y-90639556D01*
X126318390Y-90647287D01*
X126407212Y-90692544D01*
X126500776Y-90740218D01*
X126500778Y-90740218D01*
X126500781Y-90740220D01*
X126556703Y-90758390D01*
X126695465Y-90803477D01*
X126796557Y-90819488D01*
X126897648Y-90835500D01*
X126897649Y-90835500D01*
X127102351Y-90835500D01*
X127102352Y-90835500D01*
X127304534Y-90803477D01*
X127499219Y-90740220D01*
X127681610Y-90647287D01*
X127777901Y-90577328D01*
X127847213Y-90526971D01*
X127847215Y-90526968D01*
X127847219Y-90526966D01*
X127991966Y-90382219D01*
X127991968Y-90382215D01*
X127991971Y-90382213D01*
X128071789Y-90272351D01*
X128112287Y-90216610D01*
X128205220Y-90034219D01*
X128268477Y-89839534D01*
X128300500Y-89637352D01*
X128300500Y-89432648D01*
X128283099Y-89322786D01*
X128268477Y-89230465D01*
X128239127Y-89140137D01*
X128205220Y-89035781D01*
X128205218Y-89035778D01*
X128205218Y-89035776D01*
X128169043Y-88964780D01*
X128112287Y-88853390D01*
X128060353Y-88781908D01*
X127991971Y-88687786D01*
X127847213Y-88543028D01*
X127681611Y-88422713D01*
X127588369Y-88375203D01*
X127537574Y-88327229D01*
X127520779Y-88259407D01*
X127543317Y-88193273D01*
X127588371Y-88154234D01*
X127681347Y-88106861D01*
X127846894Y-87986582D01*
X127846895Y-87986582D01*
X127991582Y-87841895D01*
X127991582Y-87841894D01*
X128111859Y-87676349D01*
X128204755Y-87494029D01*
X128267990Y-87299413D01*
X128276609Y-87245000D01*
X127433012Y-87245000D01*
X127465925Y-87187993D01*
X127500000Y-87060826D01*
X127500000Y-86929174D01*
X127465925Y-86802007D01*
X127433012Y-86745000D01*
X128276609Y-86745000D01*
X128267990Y-86690586D01*
X128204755Y-86495970D01*
X128111859Y-86313650D01*
X127991582Y-86148105D01*
X127991582Y-86148104D01*
X127846895Y-86003417D01*
X127681349Y-85883140D01*
X127588370Y-85835765D01*
X127537574Y-85787790D01*
X127520779Y-85719969D01*
X127543316Y-85653835D01*
X127588370Y-85614795D01*
X127588920Y-85614515D01*
X127681610Y-85567287D01*
X127741805Y-85523553D01*
X127847213Y-85446971D01*
X127847215Y-85446968D01*
X127847219Y-85446966D01*
X127991966Y-85302219D01*
X127991968Y-85302215D01*
X127991971Y-85302213D01*
X128076277Y-85186174D01*
X128112287Y-85136610D01*
X128205220Y-84954219D01*
X128268477Y-84759534D01*
X128300500Y-84557352D01*
X128300500Y-84352648D01*
X128268477Y-84150466D01*
X128260052Y-84124538D01*
X128234679Y-84046446D01*
X128205220Y-83955781D01*
X128205218Y-83955778D01*
X128205218Y-83955776D01*
X128161512Y-83870000D01*
X128112287Y-83773390D01*
X128104556Y-83762749D01*
X127991971Y-83607786D01*
X127847213Y-83463028D01*
X127681614Y-83342715D01*
X127638550Y-83320773D01*
X127588917Y-83295483D01*
X127538123Y-83247511D01*
X127521328Y-83179690D01*
X127543865Y-83113555D01*
X127588917Y-83074516D01*
X127681610Y-83027287D01*
X127756632Y-82972781D01*
X127847213Y-82906971D01*
X127847215Y-82906968D01*
X127847219Y-82906966D01*
X127991966Y-82762219D01*
X127991968Y-82762215D01*
X127991971Y-82762213D01*
X128061425Y-82666616D01*
X128112287Y-82596610D01*
X128205220Y-82414219D01*
X128268477Y-82219534D01*
X128300500Y-82017352D01*
X128300500Y-81812648D01*
X128268477Y-81610466D01*
X128263827Y-81596157D01*
X128263392Y-81580944D01*
X128258074Y-81566683D01*
X128262414Y-81546730D01*
X128261831Y-81526318D01*
X128269920Y-81512228D01*
X128272927Y-81498410D01*
X128294078Y-81470156D01*
X128327418Y-81436817D01*
X128388742Y-81403333D01*
X128415098Y-81400500D01*
X140869599Y-81400500D01*
X140936638Y-81420185D01*
X140982393Y-81472989D01*
X140992337Y-81542147D01*
X140987530Y-81562818D01*
X140972009Y-81610585D01*
X140972009Y-81610586D01*
X140963391Y-81665000D01*
X141806988Y-81665000D01*
X141774075Y-81722007D01*
X141740000Y-81849174D01*
X141740000Y-81980826D01*
X141774075Y-82107993D01*
X141806988Y-82165000D01*
X140963391Y-82165000D01*
X140972009Y-82219413D01*
X141035244Y-82414029D01*
X141128140Y-82596349D01*
X141248417Y-82761894D01*
X141248417Y-82761895D01*
X141393104Y-82906582D01*
X141558652Y-83026861D01*
X141651628Y-83074234D01*
X141702425Y-83122208D01*
X141719220Y-83190029D01*
X141696683Y-83256164D01*
X141651630Y-83295203D01*
X141558388Y-83342713D01*
X141392786Y-83463028D01*
X141248028Y-83607786D01*
X141127715Y-83773386D01*
X141034781Y-83955776D01*
X140971522Y-84150465D01*
X140939500Y-84352648D01*
X140939500Y-84557351D01*
X140971522Y-84759534D01*
X141034781Y-84954223D01*
X141127715Y-85136613D01*
X141248028Y-85302213D01*
X141392786Y-85446971D01*
X141524605Y-85542741D01*
X141558390Y-85567287D01*
X141649840Y-85613883D01*
X141651080Y-85614515D01*
X141701876Y-85662490D01*
X141718671Y-85730311D01*
X141696134Y-85796446D01*
X141651080Y-85835485D01*
X141558386Y-85882715D01*
X141392786Y-86003028D01*
X141248028Y-86147786D01*
X141127715Y-86313386D01*
X141034781Y-86495776D01*
X140971522Y-86690465D01*
X140939500Y-86892648D01*
X140939500Y-87097351D01*
X140971522Y-87299534D01*
X141034781Y-87494223D01*
X141127715Y-87676613D01*
X141248028Y-87842213D01*
X141392784Y-87986969D01*
X141429068Y-88013330D01*
X141471735Y-88068659D01*
X141477715Y-88138273D01*
X141445109Y-88200068D01*
X141384271Y-88234426D01*
X141369440Y-88236938D01*
X141332519Y-88240907D01*
X141197671Y-88291202D01*
X141197664Y-88291206D01*
X141082455Y-88377452D01*
X141082452Y-88377455D01*
X140996206Y-88492664D01*
X140996202Y-88492671D01*
X140945908Y-88627517D01*
X140939501Y-88687116D01*
X140939501Y-88687123D01*
X140939500Y-88687135D01*
X140939500Y-90382870D01*
X140939501Y-90382876D01*
X140945908Y-90442483D01*
X140996202Y-90577328D01*
X140996206Y-90577335D01*
X141082452Y-90692544D01*
X141082455Y-90692547D01*
X141197664Y-90778793D01*
X141197671Y-90778797D01*
X141332517Y-90829091D01*
X141332516Y-90829091D01*
X141339444Y-90829835D01*
X141392127Y-90835500D01*
X143087872Y-90835499D01*
X143147483Y-90829091D01*
X143282331Y-90778796D01*
X143397546Y-90692546D01*
X143483796Y-90577331D01*
X143534091Y-90442483D01*
X143540500Y-90382873D01*
X143540500Y-90067648D01*
X147289500Y-90067648D01*
X147289500Y-90272351D01*
X147321522Y-90474534D01*
X147384781Y-90669223D01*
X147477715Y-90851613D01*
X147598028Y-91017213D01*
X147742786Y-91161971D01*
X147897749Y-91274556D01*
X147908390Y-91282287D01*
X148017042Y-91337648D01*
X148090776Y-91375218D01*
X148090778Y-91375218D01*
X148090781Y-91375220D01*
X148195137Y-91409127D01*
X148285465Y-91438477D01*
X148386557Y-91454488D01*
X148487648Y-91470500D01*
X148487649Y-91470500D01*
X148692351Y-91470500D01*
X148692352Y-91470500D01*
X148894534Y-91438477D01*
X149089219Y-91375220D01*
X149271610Y-91282287D01*
X149364590Y-91214732D01*
X149437213Y-91161971D01*
X149437215Y-91161968D01*
X149437219Y-91161966D01*
X149581966Y-91017219D01*
X149581968Y-91017215D01*
X149581971Y-91017213D01*
X149702284Y-90851614D01*
X149702285Y-90851613D01*
X149702287Y-90851610D01*
X149709117Y-90838204D01*
X149757091Y-90787409D01*
X149819602Y-90770500D01*
X155909903Y-90770500D01*
X155976942Y-90790185D01*
X155997584Y-90806819D01*
X156185922Y-90995157D01*
X156219407Y-91056480D01*
X156216173Y-91121155D01*
X156211522Y-91135468D01*
X156179500Y-91337648D01*
X156179500Y-91542351D01*
X156211522Y-91744534D01*
X156274781Y-91939223D01*
X156367715Y-92121613D01*
X156488028Y-92287213D01*
X156632786Y-92431971D01*
X156787749Y-92544556D01*
X156798390Y-92552287D01*
X156914607Y-92611503D01*
X156980776Y-92645218D01*
X156980778Y-92645218D01*
X156980781Y-92645220D01*
X157085137Y-92679127D01*
X157175465Y-92708477D01*
X157276557Y-92724488D01*
X157377648Y-92740500D01*
X157377649Y-92740500D01*
X157582351Y-92740500D01*
X157582352Y-92740500D01*
X157784534Y-92708477D01*
X157979219Y-92645220D01*
X158161610Y-92552287D01*
X158254590Y-92484732D01*
X158327213Y-92431971D01*
X158327215Y-92431968D01*
X158327219Y-92431966D01*
X158471966Y-92287219D01*
X158471968Y-92287215D01*
X158471971Y-92287213D01*
X158592284Y-92121614D01*
X158592285Y-92121613D01*
X158592287Y-92121610D01*
X158599117Y-92108204D01*
X158647091Y-92057409D01*
X158709602Y-92040500D01*
X161203331Y-92040500D01*
X161203347Y-92040501D01*
X161210943Y-92040501D01*
X161369054Y-92040501D01*
X161369057Y-92040501D01*
X161521785Y-91999577D01*
X161571904Y-91970639D01*
X161658716Y-91920520D01*
X161770520Y-91808716D01*
X161770520Y-91808714D01*
X161780728Y-91798507D01*
X161780730Y-91798504D01*
X163226437Y-90352796D01*
X163287758Y-90319313D01*
X163352433Y-90322547D01*
X163478632Y-90363553D01*
X163566110Y-90377408D01*
X163711903Y-90400500D01*
X163711908Y-90400500D01*
X163948097Y-90400500D01*
X164181368Y-90363553D01*
X164214468Y-90352798D01*
X164405992Y-90290568D01*
X164616433Y-90183343D01*
X164807510Y-90044517D01*
X164974517Y-89877510D01*
X165113343Y-89686433D01*
X165173583Y-89568204D01*
X165221558Y-89517409D01*
X165284068Y-89500500D01*
X168875932Y-89500500D01*
X168942971Y-89520185D01*
X168986416Y-89568203D01*
X169046657Y-89686433D01*
X169185483Y-89877510D01*
X169352490Y-90044517D01*
X169543567Y-90183343D01*
X169608863Y-90216613D01*
X169754003Y-90290566D01*
X169754005Y-90290566D01*
X169754008Y-90290568D01*
X169842476Y-90319313D01*
X169978631Y-90363553D01*
X170211903Y-90400500D01*
X170211908Y-90400500D01*
X170448097Y-90400500D01*
X170681368Y-90363553D01*
X170714468Y-90352798D01*
X170905992Y-90290568D01*
X171116433Y-90183343D01*
X171307510Y-90044517D01*
X171474517Y-89877510D01*
X171613343Y-89686433D01*
X171720568Y-89475992D01*
X171793553Y-89251368D01*
X171805169Y-89178028D01*
X171830500Y-89018097D01*
X171830500Y-88781902D01*
X171793553Y-88548631D01*
X171737202Y-88375203D01*
X171720568Y-88324008D01*
X171720566Y-88324005D01*
X171720566Y-88324003D01*
X171634064Y-88154234D01*
X171613343Y-88113567D01*
X171474517Y-87922490D01*
X171307510Y-87755483D01*
X171116433Y-87616657D01*
X170905996Y-87509433D01*
X170681368Y-87436446D01*
X170448097Y-87399500D01*
X170448092Y-87399500D01*
X170211908Y-87399500D01*
X170211903Y-87399500D01*
X169978631Y-87436446D01*
X169754003Y-87509433D01*
X169543566Y-87616657D01*
X169461408Y-87676349D01*
X169352490Y-87755483D01*
X169352488Y-87755485D01*
X169352487Y-87755485D01*
X169185485Y-87922487D01*
X169185485Y-87922488D01*
X169185483Y-87922490D01*
X169138917Y-87986582D01*
X169046657Y-88113566D01*
X169026662Y-88152809D01*
X168997420Y-88210201D01*
X168986417Y-88231795D01*
X168938442Y-88282591D01*
X168875932Y-88299500D01*
X165284068Y-88299500D01*
X165217029Y-88279815D01*
X165173583Y-88231795D01*
X165113343Y-88113567D01*
X164974517Y-87922490D01*
X164807510Y-87755483D01*
X164616433Y-87616657D01*
X164405996Y-87509433D01*
X164181368Y-87436446D01*
X163948097Y-87399500D01*
X163948092Y-87399500D01*
X163711908Y-87399500D01*
X163711903Y-87399500D01*
X163478631Y-87436446D01*
X163254003Y-87509433D01*
X163043566Y-87616657D01*
X162961408Y-87676349D01*
X162852490Y-87755483D01*
X162852488Y-87755485D01*
X162852487Y-87755485D01*
X162685485Y-87922487D01*
X162685485Y-87922488D01*
X162685483Y-87922490D01*
X162638917Y-87986582D01*
X162546657Y-88113566D01*
X162439433Y-88324003D01*
X162366446Y-88548631D01*
X162329500Y-88781902D01*
X162329500Y-89018097D01*
X162366447Y-89251369D01*
X162366447Y-89251372D01*
X162407450Y-89377564D01*
X162409445Y-89447405D01*
X162377200Y-89503563D01*
X161077584Y-90803181D01*
X161016261Y-90836666D01*
X160989903Y-90839500D01*
X158709602Y-90839500D01*
X158642563Y-90819815D01*
X158599117Y-90771795D01*
X158592284Y-90758385D01*
X158471971Y-90592786D01*
X158327213Y-90448028D01*
X158161613Y-90327715D01*
X158161612Y-90327714D01*
X158161610Y-90327713D01*
X158088705Y-90290566D01*
X157979223Y-90234781D01*
X157784534Y-90171522D01*
X157609995Y-90143878D01*
X157582352Y-90139500D01*
X157377648Y-90139500D01*
X157339599Y-90145526D01*
X157175468Y-90171522D01*
X157166717Y-90174365D01*
X157161154Y-90176173D01*
X157091313Y-90178167D01*
X157035157Y-90145922D01*
X156697590Y-89808355D01*
X156697588Y-89808352D01*
X156578717Y-89689481D01*
X156578716Y-89689480D01*
X156481826Y-89633541D01*
X156441785Y-89610423D01*
X156289057Y-89569499D01*
X156130943Y-89569499D01*
X156123347Y-89569499D01*
X156123331Y-89569500D01*
X149819602Y-89569500D01*
X149752563Y-89549815D01*
X149709117Y-89501795D01*
X149702284Y-89488385D01*
X149581971Y-89322786D01*
X149437213Y-89178028D01*
X149271613Y-89057715D01*
X149271612Y-89057714D01*
X149271610Y-89057713D01*
X149214653Y-89028691D01*
X149089223Y-88964781D01*
X148894534Y-88901522D01*
X148719995Y-88873878D01*
X148692352Y-88869500D01*
X148487648Y-88869500D01*
X148463329Y-88873351D01*
X148285465Y-88901522D01*
X148090776Y-88964781D01*
X147908386Y-89057715D01*
X147742786Y-89178028D01*
X147598028Y-89322786D01*
X147477715Y-89488386D01*
X147384781Y-89670776D01*
X147321522Y-89865465D01*
X147289500Y-90067648D01*
X143540500Y-90067648D01*
X143540499Y-89520185D01*
X143540499Y-88687129D01*
X143540498Y-88687123D01*
X143540497Y-88687116D01*
X143534091Y-88627517D01*
X143504668Y-88548631D01*
X143483797Y-88492671D01*
X143483793Y-88492664D01*
X143397547Y-88377455D01*
X143397544Y-88377452D01*
X143282335Y-88291206D01*
X143282328Y-88291202D01*
X143147482Y-88240908D01*
X143147483Y-88240908D01*
X143110560Y-88236939D01*
X143046009Y-88210201D01*
X143006160Y-88152809D01*
X143003667Y-88082984D01*
X143039319Y-88022895D01*
X143050930Y-88013331D01*
X143087219Y-87986966D01*
X143231966Y-87842219D01*
X143231968Y-87842215D01*
X143231971Y-87842213D01*
X143294983Y-87755483D01*
X143352287Y-87676610D01*
X143445220Y-87494219D01*
X143508477Y-87299534D01*
X143540500Y-87097352D01*
X143540500Y-86892648D01*
X143526144Y-86802007D01*
X143508477Y-86690465D01*
X143445218Y-86495776D01*
X143352285Y-86313387D01*
X143324468Y-86275099D01*
X143324467Y-86275098D01*
X143231971Y-86147787D01*
X143231967Y-86147782D01*
X143087213Y-86003028D01*
X142921614Y-85882715D01*
X142915006Y-85879348D01*
X142828917Y-85835483D01*
X142778123Y-85787511D01*
X142761328Y-85719690D01*
X142783865Y-85653555D01*
X142828917Y-85614516D01*
X142921610Y-85567287D01*
X142981805Y-85523553D01*
X143087213Y-85446971D01*
X143087215Y-85446968D01*
X143087219Y-85446966D01*
X143231966Y-85302219D01*
X143231968Y-85302215D01*
X143231971Y-85302213D01*
X143316277Y-85186174D01*
X143352287Y-85136610D01*
X143387408Y-85067682D01*
X147290000Y-85067682D01*
X147290000Y-85272317D01*
X147322009Y-85474417D01*
X147385244Y-85669031D01*
X147478141Y-85851350D01*
X147478147Y-85851359D01*
X147510523Y-85895921D01*
X147510524Y-85895922D01*
X148190000Y-85216446D01*
X148190000Y-85222661D01*
X148217259Y-85324394D01*
X148269920Y-85415606D01*
X148344394Y-85490080D01*
X148435606Y-85542741D01*
X148537339Y-85570000D01*
X148543553Y-85570000D01*
X147864076Y-86249474D01*
X147908650Y-86281859D01*
X148090968Y-86374755D01*
X148285582Y-86437990D01*
X148487683Y-86470000D01*
X148692317Y-86470000D01*
X148894417Y-86437990D01*
X149089031Y-86374755D01*
X149271349Y-86281859D01*
X149315921Y-86249474D01*
X148636447Y-85570000D01*
X148642661Y-85570000D01*
X148744394Y-85542741D01*
X148835606Y-85490080D01*
X148910080Y-85415606D01*
X148962741Y-85324394D01*
X148990000Y-85222661D01*
X148990000Y-85216448D01*
X149669474Y-85895922D01*
X149669474Y-85895921D01*
X149701859Y-85851349D01*
X149794755Y-85669029D01*
X149837629Y-85537081D01*
X149837629Y-85537079D01*
X149857990Y-85474415D01*
X149890000Y-85272317D01*
X149890000Y-85067682D01*
X149857990Y-84865582D01*
X149794755Y-84670968D01*
X149701859Y-84488650D01*
X149669474Y-84444077D01*
X149669474Y-84444076D01*
X148990000Y-85123551D01*
X148990000Y-85117339D01*
X148962741Y-85015606D01*
X148910080Y-84924394D01*
X148835606Y-84849920D01*
X148744394Y-84797259D01*
X148642661Y-84770000D01*
X148636446Y-84770000D01*
X149315922Y-84090524D01*
X149315921Y-84090523D01*
X149271359Y-84058147D01*
X149271350Y-84058141D01*
X149089031Y-83965244D01*
X148894417Y-83902009D01*
X148692317Y-83870000D01*
X148487683Y-83870000D01*
X148285582Y-83902009D01*
X148090968Y-83965244D01*
X147908644Y-84058143D01*
X147864077Y-84090523D01*
X147864077Y-84090524D01*
X148543554Y-84770000D01*
X148537339Y-84770000D01*
X148435606Y-84797259D01*
X148344394Y-84849920D01*
X148269920Y-84924394D01*
X148217259Y-85015606D01*
X148190000Y-85117339D01*
X148190000Y-85123553D01*
X147510524Y-84444077D01*
X147510523Y-84444077D01*
X147478143Y-84488644D01*
X147385244Y-84670968D01*
X147322009Y-84865582D01*
X147290000Y-85067682D01*
X143387408Y-85067682D01*
X143445220Y-84954219D01*
X143508477Y-84759534D01*
X143540500Y-84557352D01*
X143540500Y-84352648D01*
X143508477Y-84150466D01*
X143500052Y-84124538D01*
X143474679Y-84046446D01*
X143445220Y-83955781D01*
X143445218Y-83955778D01*
X143445218Y-83955776D01*
X143401512Y-83870000D01*
X143352287Y-83773390D01*
X143344556Y-83762749D01*
X143231971Y-83607786D01*
X143087213Y-83463028D01*
X142921611Y-83342713D01*
X142828369Y-83295203D01*
X142777574Y-83247229D01*
X142760779Y-83179407D01*
X142783317Y-83113273D01*
X142828371Y-83074234D01*
X142921347Y-83026861D01*
X143086894Y-82906582D01*
X143086895Y-82906582D01*
X143231582Y-82761895D01*
X143231582Y-82761894D01*
X143351859Y-82596349D01*
X143444755Y-82414029D01*
X143507990Y-82219413D01*
X143516609Y-82165000D01*
X142673012Y-82165000D01*
X142705925Y-82107993D01*
X142740000Y-81980826D01*
X142740000Y-81849174D01*
X142705925Y-81722007D01*
X142673012Y-81665000D01*
X143516609Y-81665000D01*
X143507990Y-81610586D01*
X143507990Y-81610585D01*
X143492470Y-81562818D01*
X143490475Y-81492977D01*
X143526556Y-81433144D01*
X143589257Y-81402316D01*
X143610401Y-81400500D01*
X154159903Y-81400500D01*
X154226942Y-81420185D01*
X154247584Y-81436819D01*
X156185922Y-83375157D01*
X156219407Y-83436480D01*
X156216173Y-83501155D01*
X156211522Y-83515468D01*
X156179500Y-83717648D01*
X156179500Y-83922351D01*
X156211522Y-84124534D01*
X156274781Y-84319223D01*
X156338398Y-84444076D01*
X156361106Y-84488644D01*
X156367715Y-84501613D01*
X156488028Y-84667213D01*
X156632786Y-84811971D01*
X156771180Y-84912518D01*
X156798390Y-84932287D01*
X156883793Y-84975802D01*
X156980776Y-85025218D01*
X156980778Y-85025218D01*
X156980781Y-85025220D01*
X157085137Y-85059127D01*
X157175465Y-85088477D01*
X157276557Y-85104488D01*
X157377648Y-85120500D01*
X157377649Y-85120500D01*
X157582351Y-85120500D01*
X157582352Y-85120500D01*
X157784534Y-85088477D01*
X157979219Y-85025220D01*
X158161610Y-84932287D01*
X158254590Y-84864732D01*
X158327213Y-84811971D01*
X158327215Y-84811968D01*
X158327219Y-84811966D01*
X158471966Y-84667219D01*
X158471968Y-84667215D01*
X158471971Y-84667213D01*
X158580341Y-84518052D01*
X158592287Y-84501610D01*
X158685220Y-84319219D01*
X158697331Y-84281947D01*
X162330000Y-84281947D01*
X162330000Y-84518052D01*
X162366934Y-84751247D01*
X162439897Y-84975802D01*
X162547087Y-85186174D01*
X162607338Y-85269104D01*
X162607340Y-85269105D01*
X163306212Y-84570233D01*
X163317482Y-84612292D01*
X163389890Y-84737708D01*
X163492292Y-84840110D01*
X163617708Y-84912518D01*
X163659765Y-84923787D01*
X162960893Y-85622658D01*
X163043828Y-85682914D01*
X163254197Y-85790102D01*
X163478752Y-85863065D01*
X163478751Y-85863065D01*
X163711948Y-85900000D01*
X163948052Y-85900000D01*
X164181247Y-85863065D01*
X164405802Y-85790102D01*
X164616163Y-85682918D01*
X164616169Y-85682914D01*
X164699104Y-85622658D01*
X164699105Y-85622658D01*
X164000233Y-84923787D01*
X164042292Y-84912518D01*
X164167708Y-84840110D01*
X164270110Y-84737708D01*
X164342518Y-84612292D01*
X164353787Y-84570233D01*
X165052658Y-85269105D01*
X165052658Y-85269104D01*
X165112914Y-85186169D01*
X165112918Y-85186163D01*
X165220102Y-84975802D01*
X165293065Y-84751247D01*
X165330000Y-84518052D01*
X165330000Y-84281947D01*
X168830000Y-84281947D01*
X168830000Y-84518052D01*
X168866934Y-84751247D01*
X168939897Y-84975802D01*
X169047087Y-85186174D01*
X169107338Y-85269104D01*
X169107340Y-85269105D01*
X169806212Y-84570233D01*
X169817482Y-84612292D01*
X169889890Y-84737708D01*
X169992292Y-84840110D01*
X170117708Y-84912518D01*
X170159765Y-84923787D01*
X169460893Y-85622658D01*
X169543828Y-85682914D01*
X169754197Y-85790102D01*
X169978752Y-85863065D01*
X169978751Y-85863065D01*
X170211948Y-85900000D01*
X170448052Y-85900000D01*
X170681247Y-85863065D01*
X170905802Y-85790102D01*
X171116163Y-85682918D01*
X171116169Y-85682914D01*
X171199104Y-85622658D01*
X171199105Y-85622658D01*
X170500233Y-84923787D01*
X170542292Y-84912518D01*
X170667708Y-84840110D01*
X170770110Y-84737708D01*
X170842518Y-84612292D01*
X170853787Y-84570234D01*
X171552658Y-85269105D01*
X171552658Y-85269104D01*
X171612914Y-85186169D01*
X171612918Y-85186163D01*
X171720102Y-84975802D01*
X171793065Y-84751247D01*
X171830000Y-84518052D01*
X171830000Y-84281947D01*
X171793065Y-84048752D01*
X171720102Y-83824197D01*
X171612914Y-83613828D01*
X171552658Y-83530894D01*
X171552658Y-83530893D01*
X170853787Y-84229765D01*
X170842518Y-84187708D01*
X170770110Y-84062292D01*
X170667708Y-83959890D01*
X170542292Y-83887482D01*
X170500234Y-83876212D01*
X171199105Y-83177340D01*
X171199104Y-83177338D01*
X171116174Y-83117087D01*
X170905802Y-83009897D01*
X170681247Y-82936934D01*
X170681248Y-82936934D01*
X170448052Y-82900000D01*
X170211948Y-82900000D01*
X169978752Y-82936934D01*
X169754197Y-83009897D01*
X169543830Y-83117084D01*
X169460894Y-83177340D01*
X170159766Y-83876212D01*
X170117708Y-83887482D01*
X169992292Y-83959890D01*
X169889890Y-84062292D01*
X169817482Y-84187708D01*
X169806212Y-84229766D01*
X169107340Y-83530894D01*
X169047084Y-83613830D01*
X168939897Y-83824197D01*
X168866934Y-84048752D01*
X168830000Y-84281947D01*
X165330000Y-84281947D01*
X165293065Y-84048752D01*
X165220102Y-83824197D01*
X165112914Y-83613828D01*
X165052658Y-83530894D01*
X165052658Y-83530893D01*
X164353787Y-84229765D01*
X164342518Y-84187708D01*
X164270110Y-84062292D01*
X164167708Y-83959890D01*
X164042292Y-83887482D01*
X164000234Y-83876212D01*
X164699105Y-83177340D01*
X164699104Y-83177339D01*
X164616174Y-83117087D01*
X164405802Y-83009897D01*
X164181247Y-82936934D01*
X164181248Y-82936934D01*
X163948052Y-82900000D01*
X163711948Y-82900000D01*
X163478752Y-82936934D01*
X163254197Y-83009897D01*
X163043830Y-83117084D01*
X162960894Y-83177340D01*
X163659766Y-83876212D01*
X163617708Y-83887482D01*
X163492292Y-83959890D01*
X163389890Y-84062292D01*
X163317482Y-84187708D01*
X163306212Y-84229766D01*
X162607340Y-83530894D01*
X162547084Y-83613830D01*
X162439897Y-83824197D01*
X162366934Y-84048752D01*
X162330000Y-84281947D01*
X158697331Y-84281947D01*
X158740052Y-84150465D01*
X158748476Y-84124538D01*
X158748476Y-84124537D01*
X158748477Y-84124534D01*
X158780500Y-83922352D01*
X158780500Y-83717648D01*
X158763099Y-83607786D01*
X158748477Y-83515465D01*
X158702888Y-83375157D01*
X158685220Y-83320781D01*
X158685218Y-83320778D01*
X158685217Y-83320773D01*
X158664898Y-83280895D01*
X158664897Y-83280894D01*
X158613186Y-83179407D01*
X158592287Y-83138390D01*
X158576810Y-83117087D01*
X158471971Y-82972786D01*
X158327213Y-82828028D01*
X158161613Y-82707715D01*
X158161612Y-82707714D01*
X158161610Y-82707713D01*
X158104653Y-82678691D01*
X157979223Y-82614781D01*
X157784534Y-82551522D01*
X157609995Y-82523878D01*
X157582352Y-82519500D01*
X157377648Y-82519500D01*
X157339599Y-82525526D01*
X157175468Y-82551522D01*
X157166717Y-82554365D01*
X157161154Y-82556173D01*
X157091313Y-82558167D01*
X157035157Y-82525922D01*
X154947590Y-80438355D01*
X154947588Y-80438352D01*
X154828717Y-80319481D01*
X154828716Y-80319480D01*
X154741904Y-80269360D01*
X154741904Y-80269359D01*
X154741900Y-80269358D01*
X154691785Y-80240423D01*
X154539057Y-80199499D01*
X154380943Y-80199499D01*
X154373347Y-80199499D01*
X154373331Y-80199500D01*
X147409953Y-80199500D01*
X147398062Y-80196008D01*
X147385718Y-80197109D01*
X147365166Y-80186349D01*
X147342914Y-80179815D01*
X147334798Y-80170449D01*
X147323819Y-80164701D01*
X147312347Y-80144539D01*
X147297159Y-80127011D01*
X147295395Y-80114745D01*
X147289266Y-80103973D01*
X147290515Y-80080810D01*
X147287215Y-80057853D01*
X147292363Y-80046580D01*
X147293031Y-80034205D01*
X147306604Y-80015396D01*
X147316240Y-79994297D01*
X147327660Y-79986218D01*
X147333918Y-79977548D01*
X147354062Y-79967543D01*
X147364594Y-79960094D01*
X147371102Y-79957535D01*
X147456785Y-79934577D01*
X147506904Y-79905639D01*
X147593716Y-79855520D01*
X147705520Y-79743716D01*
X147705521Y-79743713D01*
X147714661Y-79734572D01*
X147775984Y-79701088D01*
X147778152Y-79700637D01*
X147778841Y-79700500D01*
X147778842Y-79700500D01*
X147933497Y-79669737D01*
X148079179Y-79609394D01*
X148210289Y-79521789D01*
X148321789Y-79410289D01*
X148409394Y-79279179D01*
X148469737Y-79133497D01*
X148500500Y-78978842D01*
X148500500Y-78821158D01*
X148500500Y-78821155D01*
X148500499Y-78821153D01*
X148487303Y-78754815D01*
X148469737Y-78666503D01*
X148412277Y-78527781D01*
X148409397Y-78520827D01*
X148409390Y-78520814D01*
X148321789Y-78389711D01*
X148321786Y-78389707D01*
X148210292Y-78278213D01*
X148210288Y-78278210D01*
X148079185Y-78190609D01*
X148079172Y-78190602D01*
X147933501Y-78130264D01*
X147933489Y-78130261D01*
X147778845Y-78099500D01*
X147778842Y-78099500D01*
X147621158Y-78099500D01*
X147621155Y-78099500D01*
X147466510Y-78130261D01*
X147466498Y-78130264D01*
X147320827Y-78190602D01*
X147320814Y-78190609D01*
X147189711Y-78278210D01*
X147189707Y-78278213D01*
X147078213Y-78389707D01*
X147078210Y-78389711D01*
X146990609Y-78520814D01*
X146990602Y-78520827D01*
X146930263Y-78666501D01*
X146930263Y-78666502D01*
X146929799Y-78668831D01*
X146928634Y-78674691D01*
X146896250Y-78736601D01*
X146835535Y-78771176D01*
X146807017Y-78774500D01*
X143469602Y-78774500D01*
X143402563Y-78754815D01*
X143359117Y-78706795D01*
X143352284Y-78693385D01*
X143231971Y-78527786D01*
X143087213Y-78383028D01*
X142921614Y-78262715D01*
X142915006Y-78259348D01*
X142828917Y-78215483D01*
X142778123Y-78167511D01*
X142761328Y-78099690D01*
X142783865Y-78033555D01*
X142828917Y-77994516D01*
X142921610Y-77947287D01*
X142996632Y-77892781D01*
X143087213Y-77826971D01*
X143087215Y-77826968D01*
X143087219Y-77826966D01*
X143231966Y-77682219D01*
X143301425Y-77586615D01*
X143356755Y-77543949D01*
X143401744Y-77535500D01*
X148447758Y-77535500D01*
X148514797Y-77555185D01*
X148560552Y-77607989D01*
X148570231Y-77640102D01*
X148591523Y-77774534D01*
X148654781Y-77969223D01*
X148747715Y-78151613D01*
X148868028Y-78317213D01*
X149012786Y-78461971D01*
X149167749Y-78574556D01*
X149178390Y-78582287D01*
X149287042Y-78637648D01*
X149360776Y-78675218D01*
X149360778Y-78675218D01*
X149360781Y-78675220D01*
X149416703Y-78693390D01*
X149555465Y-78738477D01*
X149656557Y-78754488D01*
X149757648Y-78770500D01*
X149757649Y-78770500D01*
X149962351Y-78770500D01*
X149962352Y-78770500D01*
X150164534Y-78738477D01*
X150359219Y-78675220D01*
X150541610Y-78582287D01*
X150634590Y-78514732D01*
X150707213Y-78461971D01*
X150707215Y-78461968D01*
X150707219Y-78461966D01*
X150851966Y-78317219D01*
X150851968Y-78317215D01*
X150851971Y-78317213D01*
X150972284Y-78151614D01*
X150972285Y-78151613D01*
X150972287Y-78151610D01*
X150979117Y-78138204D01*
X151027091Y-78087409D01*
X151089602Y-78070500D01*
X155909903Y-78070500D01*
X155976942Y-78090185D01*
X155997584Y-78106819D01*
X156185922Y-78295157D01*
X156219407Y-78356480D01*
X156216173Y-78421155D01*
X156211522Y-78435468D01*
X156179500Y-78637648D01*
X156179500Y-78842351D01*
X156211522Y-79044534D01*
X156274781Y-79239223D01*
X156326385Y-79340500D01*
X156361946Y-79410292D01*
X156367715Y-79421613D01*
X156488028Y-79587213D01*
X156632786Y-79731971D01*
X156787749Y-79844556D01*
X156798390Y-79852287D01*
X156903099Y-79905639D01*
X156980776Y-79945218D01*
X156980778Y-79945218D01*
X156980781Y-79945220D01*
X157073973Y-79975500D01*
X157175465Y-80008477D01*
X157219150Y-80015396D01*
X157377648Y-80040500D01*
X157377649Y-80040500D01*
X157582351Y-80040500D01*
X157582352Y-80040500D01*
X157784534Y-80008477D01*
X157979219Y-79945220D01*
X158161610Y-79852287D01*
X158254590Y-79784732D01*
X158327213Y-79731971D01*
X158327215Y-79731968D01*
X158327219Y-79731966D01*
X158471966Y-79587219D01*
X158471968Y-79587215D01*
X158471971Y-79587213D01*
X158592284Y-79421614D01*
X158592285Y-79421613D01*
X158592287Y-79421610D01*
X158599117Y-79408204D01*
X158647091Y-79357409D01*
X158709602Y-79340500D01*
X161203331Y-79340500D01*
X161203347Y-79340501D01*
X161210943Y-79340501D01*
X161369054Y-79340501D01*
X161369057Y-79340501D01*
X161521785Y-79299577D01*
X161575237Y-79268716D01*
X161658716Y-79220520D01*
X161770520Y-79108716D01*
X161770520Y-79108714D01*
X161780724Y-79098511D01*
X161780728Y-79098506D01*
X163226437Y-77652796D01*
X163287758Y-77619313D01*
X163352433Y-77622547D01*
X163478632Y-77663553D01*
X163566110Y-77677408D01*
X163711903Y-77700500D01*
X163711908Y-77700500D01*
X163948097Y-77700500D01*
X164181368Y-77663553D01*
X164214468Y-77652798D01*
X164405992Y-77590568D01*
X164616433Y-77483343D01*
X164807510Y-77344517D01*
X164974517Y-77177510D01*
X165113343Y-76986433D01*
X165173583Y-76868204D01*
X165221558Y-76817409D01*
X165284068Y-76800500D01*
X168875932Y-76800500D01*
X168942971Y-76820185D01*
X168986416Y-76868203D01*
X169046657Y-76986433D01*
X169185483Y-77177510D01*
X169352490Y-77344517D01*
X169543567Y-77483343D01*
X169608863Y-77516613D01*
X169754003Y-77590566D01*
X169754005Y-77590566D01*
X169754008Y-77590568D01*
X169842476Y-77619313D01*
X169978631Y-77663553D01*
X170211903Y-77700500D01*
X170211908Y-77700500D01*
X170448097Y-77700500D01*
X170681368Y-77663553D01*
X170714468Y-77652798D01*
X170905992Y-77590568D01*
X171116433Y-77483343D01*
X171307510Y-77344517D01*
X171474517Y-77177510D01*
X171613343Y-76986433D01*
X171720568Y-76775992D01*
X171793553Y-76551368D01*
X171805169Y-76478028D01*
X171830500Y-76318097D01*
X171830500Y-76081902D01*
X171793553Y-75848631D01*
X171720566Y-75624003D01*
X171664002Y-75512991D01*
X171613343Y-75413567D01*
X171474517Y-75222490D01*
X171307510Y-75055483D01*
X171116433Y-74916657D01*
X171108096Y-74912409D01*
X170905996Y-74809433D01*
X170681368Y-74736446D01*
X170448097Y-74699500D01*
X170448092Y-74699500D01*
X170211908Y-74699500D01*
X170211903Y-74699500D01*
X169978631Y-74736446D01*
X169754003Y-74809433D01*
X169543566Y-74916657D01*
X169434550Y-74995862D01*
X169352490Y-75055483D01*
X169352488Y-75055485D01*
X169352487Y-75055485D01*
X169185485Y-75222487D01*
X169185485Y-75222488D01*
X169185483Y-75222490D01*
X169138638Y-75286966D01*
X169046657Y-75413566D01*
X168986417Y-75531795D01*
X168938442Y-75582591D01*
X168875932Y-75599500D01*
X165284068Y-75599500D01*
X165217029Y-75579815D01*
X165173583Y-75531795D01*
X165113343Y-75413567D01*
X164974517Y-75222490D01*
X164807510Y-75055483D01*
X164616433Y-74916657D01*
X164608096Y-74912409D01*
X164405996Y-74809433D01*
X164181368Y-74736446D01*
X163948097Y-74699500D01*
X163948092Y-74699500D01*
X163711908Y-74699500D01*
X163711903Y-74699500D01*
X163478631Y-74736446D01*
X163254003Y-74809433D01*
X163043566Y-74916657D01*
X162934550Y-74995862D01*
X162852490Y-75055483D01*
X162852488Y-75055485D01*
X162852487Y-75055485D01*
X162685485Y-75222487D01*
X162685485Y-75222488D01*
X162685483Y-75222490D01*
X162638638Y-75286966D01*
X162546657Y-75413566D01*
X162439433Y-75624003D01*
X162366446Y-75848631D01*
X162329500Y-76081902D01*
X162329500Y-76318097D01*
X162366447Y-76551369D01*
X162366447Y-76551372D01*
X162407450Y-76677564D01*
X162409445Y-76747405D01*
X162377200Y-76803563D01*
X161077584Y-78103181D01*
X161016261Y-78136666D01*
X160989903Y-78139500D01*
X158709602Y-78139500D01*
X158642563Y-78119815D01*
X158599117Y-78071795D01*
X158598457Y-78070500D01*
X158592287Y-78058390D01*
X158592285Y-78058387D01*
X158592284Y-78058385D01*
X158471971Y-77892786D01*
X158327213Y-77748028D01*
X158161613Y-77627715D01*
X158161612Y-77627714D01*
X158161610Y-77627713D01*
X158080953Y-77586616D01*
X157979223Y-77534781D01*
X157784534Y-77471522D01*
X157609995Y-77443878D01*
X157582352Y-77439500D01*
X157377648Y-77439500D01*
X157339599Y-77445526D01*
X157175468Y-77471522D01*
X157166717Y-77474365D01*
X157161154Y-77476173D01*
X157091313Y-77478167D01*
X157035157Y-77445922D01*
X156697590Y-77108355D01*
X156697588Y-77108352D01*
X156578717Y-76989481D01*
X156578716Y-76989480D01*
X156481826Y-76933541D01*
X156441785Y-76910423D01*
X156289057Y-76869499D01*
X156130943Y-76869499D01*
X156123347Y-76869499D01*
X156123331Y-76869500D01*
X151089602Y-76869500D01*
X151022563Y-76849815D01*
X150979117Y-76801795D01*
X150972284Y-76788385D01*
X150851971Y-76622786D01*
X150707213Y-76478028D01*
X150541613Y-76357715D01*
X150541612Y-76357714D01*
X150541610Y-76357713D01*
X150484653Y-76328691D01*
X150359223Y-76264781D01*
X150164534Y-76201522D01*
X149989995Y-76173878D01*
X149962352Y-76169500D01*
X149757648Y-76169500D01*
X149714998Y-76176255D01*
X149568797Y-76199411D01*
X149501949Y-76191500D01*
X149429328Y-76161420D01*
X149429321Y-76161418D01*
X149293996Y-76134500D01*
X149293994Y-76134500D01*
X149293993Y-76134500D01*
X143401744Y-76134500D01*
X143334705Y-76114815D01*
X143301425Y-76083384D01*
X143300348Y-76081902D01*
X143231970Y-75987786D01*
X143231969Y-75987784D01*
X143087213Y-75843028D01*
X142921614Y-75722715D01*
X142915006Y-75719348D01*
X142828917Y-75675483D01*
X142778123Y-75627511D01*
X142761328Y-75559690D01*
X142783865Y-75493555D01*
X142828917Y-75454516D01*
X142921610Y-75407287D01*
X143039289Y-75321789D01*
X143087213Y-75286971D01*
X143087215Y-75286968D01*
X143087219Y-75286966D01*
X143231966Y-75142219D01*
X143231968Y-75142215D01*
X143231971Y-75142213D01*
X143352284Y-74976614D01*
X143352285Y-74976613D01*
X143352287Y-74976610D01*
X143359117Y-74963204D01*
X143407091Y-74912409D01*
X143469602Y-74895500D01*
X146304670Y-74895500D01*
X146371709Y-74915185D01*
X146417464Y-74967989D01*
X146419231Y-74972048D01*
X146463602Y-75079172D01*
X146463609Y-75079185D01*
X146551210Y-75210288D01*
X146551213Y-75210292D01*
X146662707Y-75321786D01*
X146662711Y-75321789D01*
X146793814Y-75409390D01*
X146793827Y-75409397D01*
X146939498Y-75469735D01*
X146939503Y-75469737D01*
X147092750Y-75500220D01*
X147094153Y-75500499D01*
X147094156Y-75500500D01*
X147094158Y-75500500D01*
X147251844Y-75500500D01*
X147251845Y-75500499D01*
X147406497Y-75469737D01*
X147519166Y-75423067D01*
X147552172Y-75409397D01*
X147552172Y-75409396D01*
X147552179Y-75409394D01*
X147683289Y-75321789D01*
X147794789Y-75210289D01*
X147882394Y-75079179D01*
X147942737Y-74933497D01*
X147973500Y-74778842D01*
X147973500Y-74621158D01*
X147973500Y-74621155D01*
X147973499Y-74621153D01*
X147942738Y-74466510D01*
X147942737Y-74466503D01*
X147914094Y-74397351D01*
X147882397Y-74320827D01*
X147882390Y-74320814D01*
X147794789Y-74189711D01*
X147794786Y-74189707D01*
X147683292Y-74078213D01*
X147683288Y-74078210D01*
X147552185Y-73990609D01*
X147552172Y-73990602D01*
X147406501Y-73930264D01*
X147406491Y-73930261D01*
X147251151Y-73899362D01*
X147201651Y-73877472D01*
X147194208Y-73871972D01*
X147136716Y-73814480D01*
X147049904Y-73764360D01*
X146999785Y-73735423D01*
X146847057Y-73694499D01*
X146688943Y-73694499D01*
X146681347Y-73694499D01*
X146681331Y-73694500D01*
X143469602Y-73694500D01*
X143461488Y-73692117D01*
X143453133Y-73693401D01*
X143428468Y-73682421D01*
X143402563Y-73674815D01*
X143395364Y-73667685D01*
X143389302Y-73664987D01*
X143377273Y-73649768D01*
X143365934Y-73638537D01*
X143362205Y-73632855D01*
X143352287Y-73613390D01*
X143322736Y-73572716D01*
X143322728Y-73572704D01*
X143231971Y-73447787D01*
X143231967Y-73447782D01*
X143087213Y-73303028D01*
X142921614Y-73182715D01*
X142915006Y-73179348D01*
X142828917Y-73135483D01*
X142778123Y-73087511D01*
X142761328Y-73019690D01*
X142783865Y-72953555D01*
X142828917Y-72914516D01*
X142921610Y-72867287D01*
X142981805Y-72823553D01*
X143087213Y-72746971D01*
X143087215Y-72746968D01*
X143087219Y-72746966D01*
X143231966Y-72602219D01*
X143231968Y-72602215D01*
X143231971Y-72602213D01*
X143316277Y-72486174D01*
X143352287Y-72436610D01*
X143387408Y-72367682D01*
X148560000Y-72367682D01*
X148560000Y-72572317D01*
X148592009Y-72774417D01*
X148655244Y-72969031D01*
X148748141Y-73151350D01*
X148748147Y-73151359D01*
X148780523Y-73195921D01*
X148780524Y-73195922D01*
X149460000Y-72516446D01*
X149460000Y-72522661D01*
X149487259Y-72624394D01*
X149539920Y-72715606D01*
X149614394Y-72790080D01*
X149705606Y-72842741D01*
X149807339Y-72870000D01*
X149813553Y-72870000D01*
X149134076Y-73549474D01*
X149178650Y-73581859D01*
X149360968Y-73674755D01*
X149555582Y-73737990D01*
X149757683Y-73770000D01*
X149962317Y-73770000D01*
X150164417Y-73737990D01*
X150359031Y-73674755D01*
X150541349Y-73581859D01*
X150585921Y-73549474D01*
X149906447Y-72870000D01*
X149912661Y-72870000D01*
X150014394Y-72842741D01*
X150105606Y-72790080D01*
X150180080Y-72715606D01*
X150232741Y-72624394D01*
X150260000Y-72522661D01*
X150260000Y-72516447D01*
X150939474Y-73195921D01*
X150971859Y-73151349D01*
X151064755Y-72969029D01*
X151107629Y-72837081D01*
X151107629Y-72837079D01*
X151127990Y-72774415D01*
X151160000Y-72572317D01*
X151160000Y-72367682D01*
X151127990Y-72165582D01*
X151064755Y-71970968D01*
X150971859Y-71788650D01*
X150939474Y-71744077D01*
X150939474Y-71744076D01*
X150260000Y-72423551D01*
X150260000Y-72417339D01*
X150232741Y-72315606D01*
X150180080Y-72224394D01*
X150105606Y-72149920D01*
X150014394Y-72097259D01*
X149912661Y-72070000D01*
X149906446Y-72070000D01*
X150585922Y-71390524D01*
X150585921Y-71390523D01*
X150541359Y-71358147D01*
X150541350Y-71358141D01*
X150359031Y-71265244D01*
X150164417Y-71202009D01*
X149962317Y-71170000D01*
X149757683Y-71170000D01*
X149555582Y-71202009D01*
X149360968Y-71265244D01*
X149178644Y-71358143D01*
X149134077Y-71390523D01*
X149134077Y-71390524D01*
X149813554Y-72070000D01*
X149807339Y-72070000D01*
X149705606Y-72097259D01*
X149614394Y-72149920D01*
X149539920Y-72224394D01*
X149487259Y-72315606D01*
X149460000Y-72417339D01*
X149460000Y-72423553D01*
X148780524Y-71744077D01*
X148780523Y-71744077D01*
X148748143Y-71788644D01*
X148655244Y-71970968D01*
X148592009Y-72165582D01*
X148560000Y-72367682D01*
X143387408Y-72367682D01*
X143445220Y-72254219D01*
X143508477Y-72059534D01*
X143540500Y-71857352D01*
X143540500Y-71652648D01*
X143508477Y-71450466D01*
X143502244Y-71431284D01*
X143451965Y-71276540D01*
X143445220Y-71255781D01*
X143445218Y-71255778D01*
X143445218Y-71255776D01*
X143378174Y-71124197D01*
X143352287Y-71073390D01*
X143352285Y-71073387D01*
X143352284Y-71073385D01*
X143311789Y-71017648D01*
X156179500Y-71017648D01*
X156179500Y-71222351D01*
X156211522Y-71424534D01*
X156274781Y-71619223D01*
X156338398Y-71744076D01*
X156361106Y-71788644D01*
X156367715Y-71801613D01*
X156488028Y-71967213D01*
X156632786Y-72111971D01*
X156771180Y-72212518D01*
X156798390Y-72232287D01*
X156883793Y-72275802D01*
X156980776Y-72325218D01*
X156980778Y-72325218D01*
X156980781Y-72325220D01*
X157060118Y-72350998D01*
X157175465Y-72388477D01*
X157251375Y-72400500D01*
X157377648Y-72420500D01*
X157377649Y-72420500D01*
X157582351Y-72420500D01*
X157582352Y-72420500D01*
X157784534Y-72388477D01*
X157979219Y-72325220D01*
X158161610Y-72232287D01*
X158254590Y-72164732D01*
X158327213Y-72111971D01*
X158327215Y-72111968D01*
X158327219Y-72111966D01*
X158471966Y-71967219D01*
X158471968Y-71967215D01*
X158471971Y-71967213D01*
X158580341Y-71818052D01*
X158592287Y-71801610D01*
X158685220Y-71619219D01*
X158697331Y-71581947D01*
X162330000Y-71581947D01*
X162330000Y-71818052D01*
X162366934Y-72051247D01*
X162439897Y-72275802D01*
X162547087Y-72486174D01*
X162607338Y-72569104D01*
X162607340Y-72569105D01*
X163306212Y-71870233D01*
X163317482Y-71912292D01*
X163389890Y-72037708D01*
X163492292Y-72140110D01*
X163617708Y-72212518D01*
X163659765Y-72223787D01*
X162960893Y-72922658D01*
X163043828Y-72982914D01*
X163254197Y-73090102D01*
X163478752Y-73163065D01*
X163478751Y-73163065D01*
X163711948Y-73200000D01*
X163948052Y-73200000D01*
X164181247Y-73163065D01*
X164405802Y-73090102D01*
X164616163Y-72982918D01*
X164616169Y-72982914D01*
X164699104Y-72922658D01*
X164699105Y-72922658D01*
X164000233Y-72223787D01*
X164042292Y-72212518D01*
X164167708Y-72140110D01*
X164270110Y-72037708D01*
X164342518Y-71912292D01*
X164353787Y-71870233D01*
X165052658Y-72569105D01*
X165052658Y-72569104D01*
X165112914Y-72486169D01*
X165112918Y-72486163D01*
X165220102Y-72275802D01*
X165293065Y-72051247D01*
X165330000Y-71818052D01*
X165330000Y-71581947D01*
X168830000Y-71581947D01*
X168830000Y-71818052D01*
X168866934Y-72051247D01*
X168939897Y-72275802D01*
X169047087Y-72486174D01*
X169107338Y-72569104D01*
X169107340Y-72569105D01*
X169806212Y-71870233D01*
X169817482Y-71912292D01*
X169889890Y-72037708D01*
X169992292Y-72140110D01*
X170117708Y-72212518D01*
X170159765Y-72223787D01*
X169460893Y-72922658D01*
X169543828Y-72982914D01*
X169754197Y-73090102D01*
X169978752Y-73163065D01*
X169978751Y-73163065D01*
X170211948Y-73200000D01*
X170448052Y-73200000D01*
X170681247Y-73163065D01*
X170905802Y-73090102D01*
X171116163Y-72982918D01*
X171116169Y-72982914D01*
X171199104Y-72922658D01*
X171199105Y-72922658D01*
X170500233Y-72223787D01*
X170542292Y-72212518D01*
X170667708Y-72140110D01*
X170770110Y-72037708D01*
X170842518Y-71912292D01*
X170853787Y-71870234D01*
X171552658Y-72569105D01*
X171552658Y-72569104D01*
X171612914Y-72486169D01*
X171612918Y-72486163D01*
X171720102Y-72275802D01*
X171793065Y-72051247D01*
X171830000Y-71818052D01*
X171830000Y-71581947D01*
X171793065Y-71348752D01*
X171720102Y-71124197D01*
X171612914Y-70913828D01*
X171552658Y-70830894D01*
X171552658Y-70830893D01*
X170853787Y-71529765D01*
X170842518Y-71487708D01*
X170770110Y-71362292D01*
X170667708Y-71259890D01*
X170542292Y-71187482D01*
X170500234Y-71176212D01*
X171199105Y-70477340D01*
X171199104Y-70477338D01*
X171116174Y-70417087D01*
X170905802Y-70309897D01*
X170681247Y-70236934D01*
X170681248Y-70236934D01*
X170448052Y-70200000D01*
X170211948Y-70200000D01*
X169978752Y-70236934D01*
X169754197Y-70309897D01*
X169543830Y-70417084D01*
X169460894Y-70477340D01*
X170159766Y-71176212D01*
X170117708Y-71187482D01*
X169992292Y-71259890D01*
X169889890Y-71362292D01*
X169817482Y-71487708D01*
X169806212Y-71529766D01*
X169107340Y-70830894D01*
X169047084Y-70913830D01*
X168939897Y-71124197D01*
X168866934Y-71348752D01*
X168830000Y-71581947D01*
X165330000Y-71581947D01*
X165293065Y-71348752D01*
X165220102Y-71124197D01*
X165112914Y-70913828D01*
X165052658Y-70830894D01*
X165052658Y-70830893D01*
X164353787Y-71529765D01*
X164342518Y-71487708D01*
X164270110Y-71362292D01*
X164167708Y-71259890D01*
X164042292Y-71187482D01*
X164000234Y-71176212D01*
X164699105Y-70477340D01*
X164699104Y-70477339D01*
X164616174Y-70417087D01*
X164405802Y-70309897D01*
X164181247Y-70236934D01*
X164181248Y-70236934D01*
X163948052Y-70200000D01*
X163711948Y-70200000D01*
X163478752Y-70236934D01*
X163254197Y-70309897D01*
X163043830Y-70417084D01*
X162960894Y-70477340D01*
X163659766Y-71176212D01*
X163617708Y-71187482D01*
X163492292Y-71259890D01*
X163389890Y-71362292D01*
X163317482Y-71487708D01*
X163306212Y-71529766D01*
X162607340Y-70830894D01*
X162547084Y-70913830D01*
X162439897Y-71124197D01*
X162366934Y-71348752D01*
X162330000Y-71581947D01*
X158697331Y-71581947D01*
X158740052Y-71450465D01*
X158748476Y-71424538D01*
X158748476Y-71424537D01*
X158748477Y-71424534D01*
X158780500Y-71222352D01*
X158780500Y-71017648D01*
X158763099Y-70907786D01*
X158748477Y-70815465D01*
X158710797Y-70699500D01*
X158685220Y-70620781D01*
X158685218Y-70620778D01*
X158685217Y-70620773D01*
X158664898Y-70580895D01*
X158664897Y-70580894D01*
X158613330Y-70479690D01*
X158592287Y-70438390D01*
X158576810Y-70417087D01*
X158471971Y-70272786D01*
X158327213Y-70128028D01*
X158161613Y-70007715D01*
X158161612Y-70007714D01*
X158161610Y-70007713D01*
X158104653Y-69978691D01*
X157979223Y-69914781D01*
X157784534Y-69851522D01*
X157609995Y-69823878D01*
X157582352Y-69819500D01*
X157377648Y-69819500D01*
X157353329Y-69823351D01*
X157175465Y-69851522D01*
X156980776Y-69914781D01*
X156798386Y-70007715D01*
X156632786Y-70128028D01*
X156488028Y-70272786D01*
X156367715Y-70438386D01*
X156274781Y-70620776D01*
X156211522Y-70815465D01*
X156179500Y-71017648D01*
X143311789Y-71017648D01*
X143231971Y-70907786D01*
X143087213Y-70763028D01*
X142921614Y-70642715D01*
X142878550Y-70620773D01*
X142828917Y-70595483D01*
X142778123Y-70547511D01*
X142761328Y-70479690D01*
X142783865Y-70413555D01*
X142828917Y-70374516D01*
X142921610Y-70327287D01*
X142996632Y-70272781D01*
X143087213Y-70206971D01*
X143087215Y-70206968D01*
X143087219Y-70206966D01*
X143231966Y-70062219D01*
X143231968Y-70062215D01*
X143231971Y-70062213D01*
X143284732Y-69989590D01*
X143352287Y-69896610D01*
X143445220Y-69714219D01*
X143508477Y-69519534D01*
X143540500Y-69317352D01*
X143540500Y-69112648D01*
X143508477Y-68910466D01*
X143445220Y-68715781D01*
X143445218Y-68715778D01*
X143445218Y-68715776D01*
X143411503Y-68649607D01*
X143352287Y-68533390D01*
X143344556Y-68522749D01*
X143231971Y-68367786D01*
X143087213Y-68223028D01*
X142921614Y-68102715D01*
X142915006Y-68099348D01*
X142828917Y-68055483D01*
X142778123Y-68007511D01*
X142761328Y-67939690D01*
X142783865Y-67873555D01*
X142828917Y-67834516D01*
X142921610Y-67787287D01*
X142942770Y-67771913D01*
X143087213Y-67666971D01*
X143087215Y-67666968D01*
X143087219Y-67666966D01*
X143231966Y-67522219D01*
X143231968Y-67522215D01*
X143231971Y-67522213D01*
X143284732Y-67449590D01*
X143352287Y-67356610D01*
X143445220Y-67174219D01*
X143508477Y-66979534D01*
X143540500Y-66777352D01*
X143540500Y-66572648D01*
X143508477Y-66370466D01*
X143499218Y-66341971D01*
X143479127Y-66280137D01*
X143445220Y-66175781D01*
X143445218Y-66175778D01*
X143445218Y-66175776D01*
X143411503Y-66109607D01*
X143352287Y-65993390D01*
X143291394Y-65909577D01*
X143231971Y-65827786D01*
X143087213Y-65683028D01*
X142921614Y-65562715D01*
X142915006Y-65559348D01*
X142828917Y-65515483D01*
X142778123Y-65467511D01*
X142761328Y-65399690D01*
X142783865Y-65333555D01*
X142828917Y-65294516D01*
X142921610Y-65247287D01*
X142942770Y-65231913D01*
X143087213Y-65126971D01*
X143087215Y-65126968D01*
X143087219Y-65126966D01*
X143231966Y-64982219D01*
X143231968Y-64982215D01*
X143231971Y-64982213D01*
X143300991Y-64887213D01*
X143352287Y-64816610D01*
X143445220Y-64634219D01*
X143508477Y-64439534D01*
X143540500Y-64237352D01*
X143540500Y-64032648D01*
X143525453Y-63937648D01*
X148409500Y-63937648D01*
X148409500Y-64142351D01*
X148441522Y-64344534D01*
X148504781Y-64539223D01*
X148558432Y-64644517D01*
X148593418Y-64713181D01*
X148597715Y-64721613D01*
X148718028Y-64887213D01*
X148862786Y-65031971D01*
X148993538Y-65126966D01*
X149028390Y-65152287D01*
X149144607Y-65211503D01*
X149210776Y-65245218D01*
X149210778Y-65245218D01*
X149210781Y-65245220D01*
X149315137Y-65279127D01*
X149405465Y-65308477D01*
X149506557Y-65324488D01*
X149607648Y-65340500D01*
X149607649Y-65340500D01*
X149812351Y-65340500D01*
X149812352Y-65340500D01*
X150014534Y-65308477D01*
X150209219Y-65245220D01*
X150391610Y-65152287D01*
X150484590Y-65084732D01*
X150557213Y-65031971D01*
X150557215Y-65031968D01*
X150557219Y-65031966D01*
X150701966Y-64887219D01*
X150701968Y-64887215D01*
X150701971Y-64887213D01*
X150822284Y-64721614D01*
X150822285Y-64721613D01*
X150822287Y-64721610D01*
X150829117Y-64708204D01*
X150877091Y-64657409D01*
X150939602Y-64640500D01*
X155719903Y-64640500D01*
X155786942Y-64660185D01*
X155807584Y-64676819D01*
X156035922Y-64905157D01*
X156069407Y-64966480D01*
X156066173Y-65031155D01*
X156061522Y-65045468D01*
X156029500Y-65247648D01*
X156029500Y-65452351D01*
X156061522Y-65654534D01*
X156124781Y-65849223D01*
X156217715Y-66031613D01*
X156338028Y-66197213D01*
X156482786Y-66341971D01*
X156637749Y-66454556D01*
X156648390Y-66462287D01*
X156764607Y-66521503D01*
X156830776Y-66555218D01*
X156830778Y-66555218D01*
X156830781Y-66555220D01*
X156884419Y-66572648D01*
X157025465Y-66618477D01*
X157126557Y-66634488D01*
X157227648Y-66650500D01*
X157227649Y-66650500D01*
X157432351Y-66650500D01*
X157432352Y-66650500D01*
X157634534Y-66618477D01*
X157829219Y-66555220D01*
X158011610Y-66462287D01*
X158137992Y-66370466D01*
X158177213Y-66341971D01*
X158177215Y-66341968D01*
X158177219Y-66341966D01*
X158321966Y-66197219D01*
X158321968Y-66197215D01*
X158321971Y-66197213D01*
X158442284Y-66031614D01*
X158442285Y-66031613D01*
X158442287Y-66031610D01*
X158449117Y-66018204D01*
X158497091Y-65967409D01*
X158559602Y-65950500D01*
X161743331Y-65950500D01*
X161743347Y-65950501D01*
X161750943Y-65950501D01*
X161909054Y-65950501D01*
X161909057Y-65950501D01*
X162061785Y-65909577D01*
X162111904Y-65880639D01*
X162198716Y-65830520D01*
X162310520Y-65718716D01*
X162310520Y-65718714D01*
X162320728Y-65708507D01*
X162320730Y-65708504D01*
X163076437Y-64952796D01*
X163137758Y-64919313D01*
X163202433Y-64922547D01*
X163328632Y-64963553D01*
X163416110Y-64977408D01*
X163561903Y-65000500D01*
X163561908Y-65000500D01*
X163798097Y-65000500D01*
X164031368Y-64963553D01*
X164064468Y-64952798D01*
X164255992Y-64890568D01*
X164466433Y-64783343D01*
X164657510Y-64644517D01*
X164824517Y-64477510D01*
X164963343Y-64286433D01*
X165023583Y-64168204D01*
X165071558Y-64117409D01*
X165134068Y-64100500D01*
X168725932Y-64100500D01*
X168792971Y-64120185D01*
X168836416Y-64168203D01*
X168896657Y-64286433D01*
X169035483Y-64477510D01*
X169202490Y-64644517D01*
X169393567Y-64783343D01*
X169458863Y-64816613D01*
X169604003Y-64890566D01*
X169604005Y-64890566D01*
X169604008Y-64890568D01*
X169692476Y-64919313D01*
X169828631Y-64963553D01*
X170061903Y-65000500D01*
X170061908Y-65000500D01*
X170298097Y-65000500D01*
X170531368Y-64963553D01*
X170564468Y-64952798D01*
X170755992Y-64890568D01*
X170966433Y-64783343D01*
X171157510Y-64644517D01*
X171324517Y-64477510D01*
X171463343Y-64286433D01*
X171570568Y-64075992D01*
X171643553Y-63851368D01*
X171661910Y-63735465D01*
X171680500Y-63618097D01*
X171680500Y-63381902D01*
X171643553Y-63148631D01*
X171571772Y-62927715D01*
X171570568Y-62924008D01*
X171570566Y-62924005D01*
X171570566Y-62924003D01*
X171514002Y-62812991D01*
X171463343Y-62713567D01*
X171324517Y-62522490D01*
X171157510Y-62355483D01*
X170966433Y-62216657D01*
X170755996Y-62109433D01*
X170531368Y-62036446D01*
X170298097Y-61999500D01*
X170298092Y-61999500D01*
X170061908Y-61999500D01*
X170061903Y-61999500D01*
X169828631Y-62036446D01*
X169604003Y-62109433D01*
X169393566Y-62216657D01*
X169311049Y-62276610D01*
X169202490Y-62355483D01*
X169202488Y-62355485D01*
X169202487Y-62355485D01*
X169035485Y-62522487D01*
X169035485Y-62522488D01*
X169035483Y-62522490D01*
X168988638Y-62586966D01*
X168896657Y-62713566D01*
X168836417Y-62831795D01*
X168788442Y-62882591D01*
X168725932Y-62899500D01*
X165134068Y-62899500D01*
X165067029Y-62879815D01*
X165023583Y-62831795D01*
X164963343Y-62713567D01*
X164824517Y-62522490D01*
X164657510Y-62355483D01*
X164466433Y-62216657D01*
X164255996Y-62109433D01*
X164031368Y-62036446D01*
X163798097Y-61999500D01*
X163798092Y-61999500D01*
X163561908Y-61999500D01*
X163561903Y-61999500D01*
X163328631Y-62036446D01*
X163104003Y-62109433D01*
X162893566Y-62216657D01*
X162811049Y-62276610D01*
X162702490Y-62355483D01*
X162702488Y-62355485D01*
X162702487Y-62355485D01*
X162535485Y-62522487D01*
X162535485Y-62522488D01*
X162535483Y-62522490D01*
X162488638Y-62586966D01*
X162396657Y-62713566D01*
X162289433Y-62924003D01*
X162216446Y-63148631D01*
X162179500Y-63381902D01*
X162179500Y-63618097D01*
X162216447Y-63851369D01*
X162216447Y-63851372D01*
X162257450Y-63977564D01*
X162259445Y-64047405D01*
X162227200Y-64103563D01*
X161617584Y-64713181D01*
X161556261Y-64746666D01*
X161529903Y-64749500D01*
X158559602Y-64749500D01*
X158492563Y-64729815D01*
X158449117Y-64681795D01*
X158442284Y-64668385D01*
X158321971Y-64502786D01*
X158177213Y-64358028D01*
X158011613Y-64237715D01*
X158011612Y-64237714D01*
X158011610Y-64237713D01*
X157954653Y-64208691D01*
X157829223Y-64144781D01*
X157634534Y-64081522D01*
X157459995Y-64053878D01*
X157432352Y-64049500D01*
X157227648Y-64049500D01*
X157189599Y-64055526D01*
X157025468Y-64081522D01*
X157016717Y-64084365D01*
X157011154Y-64086173D01*
X156941313Y-64088167D01*
X156885157Y-64055922D01*
X156507590Y-63678355D01*
X156507588Y-63678352D01*
X156388717Y-63559481D01*
X156388716Y-63559480D01*
X156280875Y-63497218D01*
X156280873Y-63497217D01*
X156251785Y-63480423D01*
X156251784Y-63480422D01*
X156251783Y-63480422D01*
X156195881Y-63465443D01*
X156099057Y-63439499D01*
X155940943Y-63439499D01*
X155933347Y-63439499D01*
X155933331Y-63439500D01*
X150939602Y-63439500D01*
X150872563Y-63419815D01*
X150829117Y-63371795D01*
X150822284Y-63358385D01*
X150701971Y-63192786D01*
X150557213Y-63048028D01*
X150391613Y-62927715D01*
X150391612Y-62927714D01*
X150391610Y-62927713D01*
X150334653Y-62898691D01*
X150209223Y-62834781D01*
X150014534Y-62771522D01*
X149839995Y-62743878D01*
X149812352Y-62739500D01*
X149607648Y-62739500D01*
X149583329Y-62743351D01*
X149405465Y-62771522D01*
X149210776Y-62834781D01*
X149028386Y-62927715D01*
X148862786Y-63048028D01*
X148718028Y-63192786D01*
X148597715Y-63358386D01*
X148504781Y-63540776D01*
X148441522Y-63735465D01*
X148409500Y-63937648D01*
X143525453Y-63937648D01*
X143508477Y-63830466D01*
X143445220Y-63635781D01*
X143445218Y-63635778D01*
X143445218Y-63635776D01*
X143396812Y-63540776D01*
X143352287Y-63453390D01*
X143300353Y-63381908D01*
X143231971Y-63287786D01*
X143087213Y-63143028D01*
X142921614Y-63022715D01*
X142915006Y-63019348D01*
X142828917Y-62975483D01*
X142778123Y-62927511D01*
X142761328Y-62859690D01*
X142783865Y-62793555D01*
X142828917Y-62754516D01*
X142921610Y-62707287D01*
X142942770Y-62691913D01*
X143087213Y-62586971D01*
X143087215Y-62586968D01*
X143087219Y-62586966D01*
X143231966Y-62442219D01*
X143231968Y-62442215D01*
X143231971Y-62442213D01*
X143294983Y-62355483D01*
X143352287Y-62276610D01*
X143445220Y-62094219D01*
X143508477Y-61899534D01*
X143540500Y-61697352D01*
X143540500Y-61492648D01*
X143508477Y-61290466D01*
X143445220Y-61095781D01*
X143445218Y-61095778D01*
X143445218Y-61095776D01*
X143411503Y-61029607D01*
X143352287Y-60913390D01*
X143344556Y-60902749D01*
X143231971Y-60747786D01*
X143087213Y-60603028D01*
X142921614Y-60482715D01*
X142915006Y-60479348D01*
X142828917Y-60435483D01*
X142778123Y-60387511D01*
X142761328Y-60319690D01*
X142783865Y-60253555D01*
X142828917Y-60214516D01*
X142921610Y-60167287D01*
X142942845Y-60151859D01*
X143087213Y-60046971D01*
X143087215Y-60046968D01*
X143087219Y-60046966D01*
X143231966Y-59902219D01*
X143231968Y-59902215D01*
X143231971Y-59902213D01*
X143316277Y-59786174D01*
X143352287Y-59736610D01*
X143445220Y-59554219D01*
X143508477Y-59359534D01*
X143540500Y-59157352D01*
X143540500Y-58952648D01*
X143538130Y-58937682D01*
X148410000Y-58937682D01*
X148410000Y-59142317D01*
X148442009Y-59344417D01*
X148505244Y-59539031D01*
X148598141Y-59721350D01*
X148598147Y-59721359D01*
X148630523Y-59765921D01*
X148630524Y-59765922D01*
X149310000Y-59086446D01*
X149310000Y-59092661D01*
X149337259Y-59194394D01*
X149389920Y-59285606D01*
X149464394Y-59360080D01*
X149555606Y-59412741D01*
X149657339Y-59440000D01*
X149663553Y-59440000D01*
X148984076Y-60119474D01*
X149028650Y-60151859D01*
X149210968Y-60244755D01*
X149405582Y-60307990D01*
X149607683Y-60340000D01*
X149812317Y-60340000D01*
X150014417Y-60307990D01*
X150209031Y-60244755D01*
X150391349Y-60151859D01*
X150435921Y-60119474D01*
X150435921Y-60119473D01*
X149756447Y-59440000D01*
X149762661Y-59440000D01*
X149864394Y-59412741D01*
X149955606Y-59360080D01*
X150030080Y-59285606D01*
X150082741Y-59194394D01*
X150110000Y-59092661D01*
X150110000Y-59086447D01*
X150789474Y-59765921D01*
X150821859Y-59721349D01*
X150914755Y-59539031D01*
X150977990Y-59344417D01*
X151010000Y-59142317D01*
X151010000Y-58937682D01*
X150977990Y-58735582D01*
X150914755Y-58540968D01*
X150821859Y-58358650D01*
X150789474Y-58314077D01*
X150789474Y-58314076D01*
X150110000Y-58993551D01*
X150110000Y-58987339D01*
X150082741Y-58885606D01*
X150030080Y-58794394D01*
X149955606Y-58719920D01*
X149864394Y-58667259D01*
X149762661Y-58640000D01*
X149756446Y-58640000D01*
X150435922Y-57960524D01*
X150435921Y-57960523D01*
X150391359Y-57928147D01*
X150391350Y-57928141D01*
X150209031Y-57835244D01*
X150014417Y-57772009D01*
X149845458Y-57745249D01*
X149812317Y-57740000D01*
X149607683Y-57740000D01*
X149405582Y-57772009D01*
X149210968Y-57835244D01*
X149028644Y-57928143D01*
X148984077Y-57960523D01*
X148984077Y-57960524D01*
X149663554Y-58640000D01*
X149657339Y-58640000D01*
X149555606Y-58667259D01*
X149464394Y-58719920D01*
X149389920Y-58794394D01*
X149337259Y-58885606D01*
X149310000Y-58987339D01*
X149310000Y-58993553D01*
X148630524Y-58314077D01*
X148630523Y-58314077D01*
X148598143Y-58358644D01*
X148505244Y-58540968D01*
X148442009Y-58735582D01*
X148410000Y-58937682D01*
X143538130Y-58937682D01*
X143508477Y-58750466D01*
X143499218Y-58721971D01*
X143472584Y-58640000D01*
X143445220Y-58555781D01*
X143445218Y-58555778D01*
X143445218Y-58555776D01*
X143410420Y-58487482D01*
X143352287Y-58373390D01*
X143341578Y-58358650D01*
X143231971Y-58207786D01*
X143087213Y-58063028D01*
X142921614Y-57942715D01*
X142915006Y-57939348D01*
X142828917Y-57895483D01*
X142778123Y-57847511D01*
X142761328Y-57779690D01*
X142783865Y-57713555D01*
X142828917Y-57674516D01*
X142920901Y-57627648D01*
X156029500Y-57627648D01*
X156029500Y-57832351D01*
X156061522Y-58034534D01*
X156124781Y-58229223D01*
X156168017Y-58314076D01*
X156190728Y-58358650D01*
X156217715Y-58411613D01*
X156338028Y-58577213D01*
X156482786Y-58721971D01*
X156582470Y-58794394D01*
X156648390Y-58842287D01*
X156764607Y-58901503D01*
X156830776Y-58935218D01*
X156830778Y-58935218D01*
X156830781Y-58935220D01*
X156935137Y-58969127D01*
X157025465Y-58998477D01*
X157126557Y-59014488D01*
X157227648Y-59030500D01*
X157227649Y-59030500D01*
X157432351Y-59030500D01*
X157432352Y-59030500D01*
X157634534Y-58998477D01*
X157829219Y-58935220D01*
X157933773Y-58881947D01*
X162180000Y-58881947D01*
X162180000Y-59118052D01*
X162216934Y-59351247D01*
X162289897Y-59575802D01*
X162397087Y-59786174D01*
X162457338Y-59869104D01*
X162457340Y-59869105D01*
X163156212Y-59170233D01*
X163167482Y-59212292D01*
X163239890Y-59337708D01*
X163342292Y-59440110D01*
X163467708Y-59512518D01*
X163509765Y-59523787D01*
X162810893Y-60222658D01*
X162893828Y-60282914D01*
X163104197Y-60390102D01*
X163328752Y-60463065D01*
X163328751Y-60463065D01*
X163561948Y-60500000D01*
X163798052Y-60500000D01*
X164031247Y-60463065D01*
X164255802Y-60390102D01*
X164466163Y-60282918D01*
X164466169Y-60282914D01*
X164549104Y-60222658D01*
X164549105Y-60222658D01*
X163850233Y-59523787D01*
X163892292Y-59512518D01*
X164017708Y-59440110D01*
X164120110Y-59337708D01*
X164192518Y-59212292D01*
X164203787Y-59170234D01*
X164902658Y-59869105D01*
X164902658Y-59869104D01*
X164962914Y-59786169D01*
X164962918Y-59786163D01*
X165070102Y-59575802D01*
X165143065Y-59351247D01*
X165180000Y-59118052D01*
X165180000Y-58881947D01*
X168680000Y-58881947D01*
X168680000Y-59118052D01*
X168716934Y-59351247D01*
X168789897Y-59575802D01*
X168897087Y-59786174D01*
X168957338Y-59869104D01*
X168957340Y-59869105D01*
X169656212Y-59170233D01*
X169667482Y-59212292D01*
X169739890Y-59337708D01*
X169842292Y-59440110D01*
X169967708Y-59512518D01*
X170009765Y-59523787D01*
X169310893Y-60222658D01*
X169393828Y-60282914D01*
X169604197Y-60390102D01*
X169828752Y-60463065D01*
X169828751Y-60463065D01*
X170061948Y-60500000D01*
X170298052Y-60500000D01*
X170531247Y-60463065D01*
X170755802Y-60390102D01*
X170966163Y-60282918D01*
X170966169Y-60282914D01*
X171049104Y-60222658D01*
X171049105Y-60222658D01*
X170350233Y-59523787D01*
X170392292Y-59512518D01*
X170517708Y-59440110D01*
X170620110Y-59337708D01*
X170692518Y-59212292D01*
X170703787Y-59170233D01*
X171402658Y-59869105D01*
X171402658Y-59869104D01*
X171462914Y-59786169D01*
X171462918Y-59786163D01*
X171570102Y-59575802D01*
X171643065Y-59351247D01*
X171680000Y-59118052D01*
X171680000Y-58881947D01*
X171643065Y-58648752D01*
X171570102Y-58424197D01*
X171462914Y-58213828D01*
X171402658Y-58130894D01*
X171402658Y-58130893D01*
X170703787Y-58829765D01*
X170692518Y-58787708D01*
X170620110Y-58662292D01*
X170517708Y-58559890D01*
X170392292Y-58487482D01*
X170350234Y-58476212D01*
X171049105Y-57777340D01*
X171049104Y-57777338D01*
X170966174Y-57717087D01*
X170755802Y-57609897D01*
X170531247Y-57536934D01*
X170531248Y-57536934D01*
X170298052Y-57500000D01*
X170061948Y-57500000D01*
X169828752Y-57536934D01*
X169604197Y-57609897D01*
X169393830Y-57717084D01*
X169310894Y-57777340D01*
X170009766Y-58476212D01*
X169967708Y-58487482D01*
X169842292Y-58559890D01*
X169739890Y-58662292D01*
X169667482Y-58787708D01*
X169656212Y-58829765D01*
X168957340Y-58130894D01*
X168897084Y-58213830D01*
X168789897Y-58424197D01*
X168716934Y-58648752D01*
X168680000Y-58881947D01*
X165180000Y-58881947D01*
X165143065Y-58648752D01*
X165070102Y-58424197D01*
X164962914Y-58213828D01*
X164902658Y-58130894D01*
X164902658Y-58130893D01*
X164203787Y-58829765D01*
X164192518Y-58787708D01*
X164120110Y-58662292D01*
X164017708Y-58559890D01*
X163892292Y-58487482D01*
X163850234Y-58476212D01*
X164549105Y-57777340D01*
X164549104Y-57777339D01*
X164466174Y-57717087D01*
X164255802Y-57609897D01*
X164031247Y-57536934D01*
X164031248Y-57536934D01*
X163798052Y-57500000D01*
X163561948Y-57500000D01*
X163328752Y-57536934D01*
X163104197Y-57609897D01*
X162893830Y-57717084D01*
X162810894Y-57777340D01*
X163509766Y-58476212D01*
X163467708Y-58487482D01*
X163342292Y-58559890D01*
X163239890Y-58662292D01*
X163167482Y-58787708D01*
X163156212Y-58829766D01*
X162457340Y-58130894D01*
X162397084Y-58213830D01*
X162289897Y-58424197D01*
X162216934Y-58648752D01*
X162180000Y-58881947D01*
X157933773Y-58881947D01*
X158011610Y-58842287D01*
X158177219Y-58721966D01*
X158321966Y-58577219D01*
X158321968Y-58577215D01*
X158321971Y-58577213D01*
X158414395Y-58450000D01*
X158442287Y-58411610D01*
X158535220Y-58229219D01*
X158598477Y-58034534D01*
X158630500Y-57832352D01*
X158630500Y-57627648D01*
X158598477Y-57425466D01*
X158535220Y-57230781D01*
X158535218Y-57230778D01*
X158535218Y-57230776D01*
X158501503Y-57164607D01*
X158442287Y-57048390D01*
X158434556Y-57037749D01*
X158321971Y-56882786D01*
X158177213Y-56738028D01*
X158011613Y-56617715D01*
X158011612Y-56617714D01*
X158011610Y-56617713D01*
X157954653Y-56588691D01*
X157829223Y-56524781D01*
X157634534Y-56461522D01*
X157459995Y-56433878D01*
X157432352Y-56429500D01*
X157227648Y-56429500D01*
X157203329Y-56433351D01*
X157025465Y-56461522D01*
X156830776Y-56524781D01*
X156648386Y-56617715D01*
X156482786Y-56738028D01*
X156338028Y-56882786D01*
X156217715Y-57048386D01*
X156124781Y-57230776D01*
X156061522Y-57425465D01*
X156029500Y-57627648D01*
X142920901Y-57627648D01*
X142921610Y-57627287D01*
X142945545Y-57609897D01*
X143087213Y-57506971D01*
X143087215Y-57506968D01*
X143087219Y-57506966D01*
X143231966Y-57362219D01*
X143231968Y-57362215D01*
X143231971Y-57362213D01*
X143284732Y-57289590D01*
X143352287Y-57196610D01*
X143445220Y-57014219D01*
X143508477Y-56819534D01*
X143540500Y-56617352D01*
X143540500Y-56412648D01*
X143508477Y-56210466D01*
X143445220Y-56015781D01*
X143445218Y-56015778D01*
X143445218Y-56015776D01*
X143411503Y-55949607D01*
X143352287Y-55833390D01*
X143344556Y-55822749D01*
X143231971Y-55667786D01*
X143087213Y-55523028D01*
X142921614Y-55402715D01*
X142915006Y-55399348D01*
X142828917Y-55355483D01*
X142778123Y-55307511D01*
X142761328Y-55239690D01*
X142783865Y-55173555D01*
X142828917Y-55134516D01*
X142921610Y-55087287D01*
X142942770Y-55071913D01*
X143087213Y-54966971D01*
X143087215Y-54966968D01*
X143087219Y-54966966D01*
X143231966Y-54822219D01*
X143231968Y-54822215D01*
X143231971Y-54822213D01*
X143352284Y-54656614D01*
X143352285Y-54656613D01*
X143352287Y-54656610D01*
X143359117Y-54643204D01*
X143407091Y-54592409D01*
X143469602Y-54575500D01*
X147868331Y-54575500D01*
X147868347Y-54575501D01*
X147875943Y-54575501D01*
X148034054Y-54575501D01*
X148034057Y-54575501D01*
X148186785Y-54534577D01*
X148236904Y-54505639D01*
X148323716Y-54455520D01*
X148435520Y-54343716D01*
X148435520Y-54343714D01*
X148445728Y-54333507D01*
X148445730Y-54333504D01*
X150685158Y-52094075D01*
X150746479Y-52060592D01*
X150811151Y-52063825D01*
X150825466Y-52068477D01*
X151027648Y-52100500D01*
X151027649Y-52100500D01*
X151232351Y-52100500D01*
X151232352Y-52100500D01*
X151434534Y-52068477D01*
X151629219Y-52005220D01*
X151811610Y-51912287D01*
X151904590Y-51844732D01*
X151977213Y-51791971D01*
X151977215Y-51791968D01*
X151977219Y-51791966D01*
X152121966Y-51647219D01*
X152121968Y-51647215D01*
X152121971Y-51647213D01*
X152174732Y-51574590D01*
X152242287Y-51481610D01*
X152335220Y-51299219D01*
X152398477Y-51104534D01*
X152430500Y-50902352D01*
X152430500Y-50697648D01*
X157449500Y-50697648D01*
X157449500Y-50902351D01*
X157481522Y-51104534D01*
X157544781Y-51299223D01*
X157598776Y-51405192D01*
X157633320Y-51472989D01*
X157637715Y-51481613D01*
X157758028Y-51647213D01*
X157902786Y-51791971D01*
X158046394Y-51896306D01*
X158068390Y-51912287D01*
X158184607Y-51971503D01*
X158250776Y-52005218D01*
X158250778Y-52005218D01*
X158250781Y-52005220D01*
X158355137Y-52039127D01*
X158445465Y-52068477D01*
X158546557Y-52084488D01*
X158647648Y-52100500D01*
X158647649Y-52100500D01*
X158852351Y-52100500D01*
X158852352Y-52100500D01*
X159054534Y-52068477D01*
X159249219Y-52005220D01*
X159431610Y-51912287D01*
X159524590Y-51844732D01*
X159597213Y-51791971D01*
X159597215Y-51791968D01*
X159597219Y-51791966D01*
X159741966Y-51647219D01*
X159741968Y-51647215D01*
X159741971Y-51647213D01*
X159862284Y-51481614D01*
X159862285Y-51481613D01*
X159862287Y-51481610D01*
X159869117Y-51468204D01*
X159917091Y-51417409D01*
X159979602Y-51400500D01*
X166116000Y-51400500D01*
X166183039Y-51420185D01*
X166228794Y-51472989D01*
X166240000Y-51524500D01*
X166240000Y-51820000D01*
X167264722Y-51820000D01*
X167220667Y-51896306D01*
X167190000Y-52010756D01*
X167190000Y-52129244D01*
X167220667Y-52243694D01*
X167264722Y-52320000D01*
X166240000Y-52320000D01*
X166240000Y-53017844D01*
X166246401Y-53077372D01*
X166246403Y-53077379D01*
X166296645Y-53212086D01*
X166296649Y-53212093D01*
X166382809Y-53327187D01*
X166382812Y-53327190D01*
X166497906Y-53413350D01*
X166497913Y-53413354D01*
X166632620Y-53463596D01*
X166632627Y-53463598D01*
X166692155Y-53469999D01*
X166692172Y-53470000D01*
X167390000Y-53470000D01*
X167390000Y-52445277D01*
X167466306Y-52489333D01*
X167580756Y-52520000D01*
X167699244Y-52520000D01*
X167813694Y-52489333D01*
X167890000Y-52445277D01*
X167890000Y-53470000D01*
X168587828Y-53470000D01*
X168587844Y-53469999D01*
X168647372Y-53463598D01*
X168647379Y-53463596D01*
X168782086Y-53413354D01*
X168782093Y-53413350D01*
X168897187Y-53327190D01*
X168897190Y-53327187D01*
X168983350Y-53212093D01*
X168983354Y-53212086D01*
X169033596Y-53077379D01*
X169033598Y-53077372D01*
X169039999Y-53017844D01*
X169040000Y-53017827D01*
X169040000Y-52320000D01*
X168015278Y-52320000D01*
X168059333Y-52243694D01*
X168090000Y-52129244D01*
X168090000Y-52010756D01*
X168059333Y-51896306D01*
X168015278Y-51820000D01*
X169040000Y-51820000D01*
X169040000Y-51122172D01*
X169039999Y-51122155D01*
X169033598Y-51062627D01*
X169033596Y-51062620D01*
X168983354Y-50927913D01*
X168983350Y-50927906D01*
X168897190Y-50812812D01*
X168897187Y-50812809D01*
X168782093Y-50726649D01*
X168782087Y-50726646D01*
X168702030Y-50696786D01*
X168646097Y-50654914D01*
X168621680Y-50589450D01*
X168636532Y-50521177D01*
X168657681Y-50492925D01*
X168708242Y-50442365D01*
X168837815Y-50264022D01*
X168937895Y-50067606D01*
X169006015Y-49857951D01*
X169040500Y-49640222D01*
X169040500Y-49419778D01*
X169006015Y-49202049D01*
X168937895Y-48992394D01*
X168937895Y-48992393D01*
X168887505Y-48893500D01*
X168837815Y-48795978D01*
X168821260Y-48773192D01*
X168708247Y-48617641D01*
X168708243Y-48617636D01*
X168552363Y-48461756D01*
X168552358Y-48461752D01*
X168374025Y-48332187D01*
X168374024Y-48332186D01*
X168374022Y-48332185D01*
X168311096Y-48300122D01*
X168177606Y-48232104D01*
X168177603Y-48232103D01*
X167967952Y-48163985D01*
X167859086Y-48146742D01*
X167750222Y-48129500D01*
X167529778Y-48129500D01*
X167457201Y-48140995D01*
X167312047Y-48163985D01*
X167102396Y-48232103D01*
X167102393Y-48232104D01*
X166905974Y-48332187D01*
X166727641Y-48461752D01*
X166727636Y-48461756D01*
X166571756Y-48617636D01*
X166571752Y-48617641D01*
X166442187Y-48795974D01*
X166342104Y-48992393D01*
X166342103Y-48992396D01*
X166273985Y-49202047D01*
X166243444Y-49394875D01*
X166239500Y-49419778D01*
X166239500Y-49640222D01*
X166247022Y-49687713D01*
X166273985Y-49857952D01*
X166296811Y-49928204D01*
X166297245Y-49943415D01*
X166302564Y-49957675D01*
X166298222Y-49977630D01*
X166298806Y-49998045D01*
X166290717Y-50012132D01*
X166287712Y-50025948D01*
X166266564Y-50054200D01*
X166157582Y-50163182D01*
X166096262Y-50196666D01*
X166069903Y-50199500D01*
X159979602Y-50199500D01*
X159912563Y-50179815D01*
X159869117Y-50131795D01*
X159862284Y-50118385D01*
X159741971Y-49952786D01*
X159597213Y-49808028D01*
X159431613Y-49687715D01*
X159431612Y-49687714D01*
X159431610Y-49687713D01*
X159337880Y-49639955D01*
X159249223Y-49594781D01*
X159054534Y-49531522D01*
X158879995Y-49503878D01*
X158852352Y-49499500D01*
X158647648Y-49499500D01*
X158623329Y-49503351D01*
X158445465Y-49531522D01*
X158250776Y-49594781D01*
X158068386Y-49687715D01*
X157902786Y-49808028D01*
X157758028Y-49952786D01*
X157637715Y-50118386D01*
X157544781Y-50300776D01*
X157481522Y-50495465D01*
X157449500Y-50697648D01*
X152430500Y-50697648D01*
X152429296Y-50690044D01*
X152398477Y-50495465D01*
X152335218Y-50300776D01*
X152290319Y-50212658D01*
X152242287Y-50118390D01*
X152205391Y-50067606D01*
X152121971Y-49952786D01*
X151977213Y-49808028D01*
X151811613Y-49687715D01*
X151811612Y-49687714D01*
X151811610Y-49687713D01*
X151717880Y-49639955D01*
X151629223Y-49594781D01*
X151434534Y-49531522D01*
X151259995Y-49503878D01*
X151232352Y-49499500D01*
X151027648Y-49499500D01*
X151003329Y-49503351D01*
X150825465Y-49531522D01*
X150630776Y-49594781D01*
X150448386Y-49687715D01*
X150282786Y-49808028D01*
X150138028Y-49952786D01*
X150017715Y-50118386D01*
X149924781Y-50300776D01*
X149861522Y-50495465D01*
X149829500Y-50697648D01*
X149829500Y-50902351D01*
X149861522Y-51104534D01*
X149866173Y-51118848D01*
X149868165Y-51188690D01*
X149835921Y-51244842D01*
X147742584Y-53338181D01*
X147681261Y-53371666D01*
X147654903Y-53374500D01*
X143469602Y-53374500D01*
X143402563Y-53354815D01*
X143359117Y-53306795D01*
X143352284Y-53293385D01*
X143231971Y-53127786D01*
X143087213Y-52983028D01*
X142921613Y-52862715D01*
X142921612Y-52862714D01*
X142921610Y-52862713D01*
X142864653Y-52833691D01*
X142739223Y-52769781D01*
X142544534Y-52706522D01*
X142369995Y-52678878D01*
X142342352Y-52674500D01*
X142137648Y-52674500D01*
X142113329Y-52678351D01*
X141935465Y-52706522D01*
X141740776Y-52769781D01*
X141558386Y-52862715D01*
X141392786Y-52983028D01*
X141248028Y-53127786D01*
X141127715Y-53293386D01*
X141034781Y-53475776D01*
X140971522Y-53670465D01*
X140939500Y-53872648D01*
X140939500Y-54077351D01*
X140971522Y-54279534D01*
X141034781Y-54474223D01*
X141127715Y-54656613D01*
X141248028Y-54822213D01*
X141392786Y-54966971D01*
X141547749Y-55079556D01*
X141558390Y-55087287D01*
X141649840Y-55133883D01*
X141651080Y-55134515D01*
X141701876Y-55182490D01*
X141718671Y-55250311D01*
X141696134Y-55316446D01*
X141651080Y-55355485D01*
X141558386Y-55402715D01*
X141392786Y-55523028D01*
X141248028Y-55667786D01*
X141127715Y-55833386D01*
X141034781Y-56015776D01*
X140971522Y-56210465D01*
X140939500Y-56412648D01*
X140939500Y-56617352D01*
X140943878Y-56644995D01*
X140971522Y-56819534D01*
X141034781Y-57014223D01*
X141127715Y-57196613D01*
X141248028Y-57362213D01*
X141392786Y-57506971D01*
X141547749Y-57619556D01*
X141558390Y-57627287D01*
X141649840Y-57673883D01*
X141651080Y-57674515D01*
X141701876Y-57722490D01*
X141718671Y-57790311D01*
X141696134Y-57856446D01*
X141651080Y-57895485D01*
X141558386Y-57942715D01*
X141392786Y-58063028D01*
X141248028Y-58207786D01*
X141127715Y-58373386D01*
X141034781Y-58555776D01*
X140971522Y-58750465D01*
X140939500Y-58952648D01*
X140939500Y-59157351D01*
X140971522Y-59359534D01*
X141034781Y-59554223D01*
X141098691Y-59679653D01*
X141119942Y-59721359D01*
X141127715Y-59736613D01*
X141248028Y-59902213D01*
X141392786Y-60046971D01*
X141537155Y-60151859D01*
X141558390Y-60167287D01*
X141649840Y-60213883D01*
X141651080Y-60214515D01*
X141701876Y-60262490D01*
X141718671Y-60330311D01*
X141696134Y-60396446D01*
X141651080Y-60435485D01*
X141558386Y-60482715D01*
X141392786Y-60603028D01*
X141248028Y-60747786D01*
X141127715Y-60913386D01*
X141034781Y-61095776D01*
X140971522Y-61290465D01*
X140939500Y-61492648D01*
X140939500Y-61697351D01*
X140971522Y-61899534D01*
X141034781Y-62094223D01*
X141127715Y-62276613D01*
X141248028Y-62442213D01*
X141392786Y-62586971D01*
X141547749Y-62699556D01*
X141558390Y-62707287D01*
X141649840Y-62753883D01*
X141651080Y-62754515D01*
X141701876Y-62802490D01*
X141718671Y-62870311D01*
X141696134Y-62936446D01*
X141651080Y-62975485D01*
X141558386Y-63022715D01*
X141392786Y-63143028D01*
X141248028Y-63287786D01*
X141127715Y-63453386D01*
X141034781Y-63635776D01*
X140971522Y-63830465D01*
X140939500Y-64032648D01*
X140939500Y-64237352D01*
X140943878Y-64264995D01*
X140971522Y-64439534D01*
X141034781Y-64634223D01*
X141127715Y-64816613D01*
X141248028Y-64982213D01*
X141392786Y-65126971D01*
X141547749Y-65239556D01*
X141558390Y-65247287D01*
X141649840Y-65293883D01*
X141651080Y-65294515D01*
X141701876Y-65342490D01*
X141718671Y-65410311D01*
X141696134Y-65476446D01*
X141651080Y-65515485D01*
X141558386Y-65562715D01*
X141392786Y-65683028D01*
X141248028Y-65827786D01*
X141127715Y-65993386D01*
X141034781Y-66175776D01*
X140971522Y-66370465D01*
X140939500Y-66572648D01*
X140939500Y-66777351D01*
X140971522Y-66979534D01*
X141034781Y-67174223D01*
X141127715Y-67356613D01*
X141248028Y-67522213D01*
X141392786Y-67666971D01*
X141547749Y-67779556D01*
X141558390Y-67787287D01*
X141649840Y-67833883D01*
X141651080Y-67834515D01*
X141701876Y-67882490D01*
X141718671Y-67950311D01*
X141696134Y-68016446D01*
X141651080Y-68055485D01*
X141558386Y-68102715D01*
X141392786Y-68223028D01*
X141248028Y-68367786D01*
X141127715Y-68533386D01*
X141034781Y-68715776D01*
X140971522Y-68910465D01*
X140939500Y-69112648D01*
X140939500Y-69317351D01*
X140971522Y-69519534D01*
X141034781Y-69714223D01*
X141088423Y-69819500D01*
X141104739Y-69851522D01*
X141127715Y-69896613D01*
X141248028Y-70062213D01*
X141392786Y-70206971D01*
X141547749Y-70319556D01*
X141558390Y-70327287D01*
X141649840Y-70373883D01*
X141651080Y-70374515D01*
X141701876Y-70422490D01*
X141718671Y-70490311D01*
X141696134Y-70556446D01*
X141651080Y-70595485D01*
X141558386Y-70642715D01*
X141392786Y-70763028D01*
X141248028Y-70907786D01*
X141127715Y-71073386D01*
X141034781Y-71255776D01*
X140971522Y-71450465D01*
X140939500Y-71652648D01*
X140939500Y-71857351D01*
X140971522Y-72059534D01*
X141034781Y-72254223D01*
X141092592Y-72367682D01*
X141126822Y-72434862D01*
X141127715Y-72436613D01*
X141248028Y-72602213D01*
X141392786Y-72746971D01*
X141524605Y-72842741D01*
X141558390Y-72867287D01*
X141649840Y-72913883D01*
X141651080Y-72914515D01*
X141701876Y-72962490D01*
X141718671Y-73030311D01*
X141696134Y-73096446D01*
X141651080Y-73135485D01*
X141558386Y-73182715D01*
X141392786Y-73303028D01*
X141248028Y-73447786D01*
X141127715Y-73613386D01*
X141034781Y-73795776D01*
X140971522Y-73990465D01*
X140939500Y-74192648D01*
X140939500Y-74397351D01*
X140971522Y-74599534D01*
X141034781Y-74794223D01*
X141086385Y-74895500D01*
X141123320Y-74967989D01*
X141127715Y-74976613D01*
X141248028Y-75142213D01*
X141392786Y-75286971D01*
X141547749Y-75399556D01*
X141558390Y-75407287D01*
X141649840Y-75453883D01*
X141651080Y-75454515D01*
X141701876Y-75502490D01*
X141718671Y-75570311D01*
X141696134Y-75636446D01*
X141651080Y-75675485D01*
X141558386Y-75722715D01*
X141392786Y-75843028D01*
X141248028Y-75987786D01*
X141127715Y-76153386D01*
X141034781Y-76335776D01*
X140971522Y-76530465D01*
X140939500Y-76732648D01*
X140939500Y-76937351D01*
X140971522Y-77139534D01*
X141034781Y-77334223D01*
X141098691Y-77459653D01*
X141104739Y-77471522D01*
X141127715Y-77516613D01*
X141248028Y-77682213D01*
X141392786Y-77826971D01*
X141536372Y-77931290D01*
X141558390Y-77947287D01*
X141649840Y-77993883D01*
X141651080Y-77994515D01*
X141701876Y-78042490D01*
X141718671Y-78110311D01*
X141696134Y-78176446D01*
X141651080Y-78215485D01*
X141558386Y-78262715D01*
X141392786Y-78383028D01*
X141248028Y-78527786D01*
X141127715Y-78693386D01*
X141034781Y-78875776D01*
X140971522Y-79070465D01*
X140939500Y-79272648D01*
X140939500Y-79477351D01*
X140971522Y-79679534D01*
X141034781Y-79874223D01*
X141108654Y-80019205D01*
X141121550Y-80087874D01*
X141095274Y-80152615D01*
X141038167Y-80192872D01*
X140998169Y-80199500D01*
X128241831Y-80199500D01*
X128174792Y-80179815D01*
X128129037Y-80127011D01*
X128119093Y-80057853D01*
X128131346Y-80019205D01*
X128205218Y-79874223D01*
X128205218Y-79874222D01*
X128205220Y-79874219D01*
X128268477Y-79679534D01*
X128300500Y-79477352D01*
X128300500Y-79272648D01*
X128274059Y-79105709D01*
X128268477Y-79070465D01*
X128231759Y-78957461D01*
X128205220Y-78875781D01*
X128205218Y-78875778D01*
X128205218Y-78875776D01*
X128168842Y-78804385D01*
X128112287Y-78693390D01*
X128092749Y-78666498D01*
X127991971Y-78527786D01*
X127847213Y-78383028D01*
X127681614Y-78262715D01*
X127675006Y-78259348D01*
X127588917Y-78215483D01*
X127538123Y-78167511D01*
X127521328Y-78099690D01*
X127543865Y-78033555D01*
X127588917Y-77994516D01*
X127681610Y-77947287D01*
X127756632Y-77892781D01*
X127847213Y-77826971D01*
X127847215Y-77826968D01*
X127847219Y-77826966D01*
X127991966Y-77682219D01*
X127991968Y-77682215D01*
X127991971Y-77682213D01*
X128071788Y-77572352D01*
X128112287Y-77516610D01*
X128205220Y-77334219D01*
X128268477Y-77139534D01*
X128300500Y-76937352D01*
X128300500Y-76732648D01*
X128283099Y-76622786D01*
X128268477Y-76530465D01*
X128239127Y-76440137D01*
X128205220Y-76335781D01*
X128205218Y-76335778D01*
X128205218Y-76335776D01*
X128169043Y-76264780D01*
X128112287Y-76153390D01*
X128084261Y-76114815D01*
X127991971Y-75987786D01*
X127847213Y-75843028D01*
X127681614Y-75722715D01*
X127675006Y-75719348D01*
X127588917Y-75675483D01*
X127538123Y-75627511D01*
X127521328Y-75559690D01*
X127543865Y-75493555D01*
X127588917Y-75454516D01*
X127681610Y-75407287D01*
X127799289Y-75321789D01*
X127847213Y-75286971D01*
X127847215Y-75286968D01*
X127847219Y-75286966D01*
X127991966Y-75142219D01*
X127991968Y-75142215D01*
X127991971Y-75142213D01*
X128088471Y-75009390D01*
X128112287Y-74976610D01*
X128205220Y-74794219D01*
X128268477Y-74599534D01*
X128300500Y-74397352D01*
X128300500Y-74192648D01*
X128268477Y-73990466D01*
X128205220Y-73795781D01*
X128205218Y-73795778D01*
X128205218Y-73795776D01*
X128156162Y-73699500D01*
X128112287Y-73613390D01*
X128065850Y-73549474D01*
X127991971Y-73447786D01*
X127847213Y-73303028D01*
X127681614Y-73182715D01*
X127675006Y-73179348D01*
X127588917Y-73135483D01*
X127538123Y-73087511D01*
X127521328Y-73019690D01*
X127543865Y-72953555D01*
X127588917Y-72914516D01*
X127681610Y-72867287D01*
X127741805Y-72823553D01*
X127847213Y-72746971D01*
X127847215Y-72746968D01*
X127847219Y-72746966D01*
X127991966Y-72602219D01*
X127991968Y-72602215D01*
X127991971Y-72602213D01*
X128076277Y-72486174D01*
X128112287Y-72436610D01*
X128205220Y-72254219D01*
X128268477Y-72059534D01*
X128300500Y-71857352D01*
X128300500Y-71652648D01*
X128268477Y-71450466D01*
X128262244Y-71431284D01*
X128211965Y-71276540D01*
X128205220Y-71255781D01*
X128205218Y-71255778D01*
X128205218Y-71255776D01*
X128161512Y-71170000D01*
X128112287Y-71073390D01*
X128104556Y-71062749D01*
X127991971Y-70907786D01*
X127847213Y-70763028D01*
X127681614Y-70642715D01*
X127638550Y-70620773D01*
X127588917Y-70595483D01*
X127538123Y-70547511D01*
X127521328Y-70479690D01*
X127543865Y-70413555D01*
X127588917Y-70374516D01*
X127681610Y-70327287D01*
X127756632Y-70272781D01*
X127847213Y-70206971D01*
X127847215Y-70206968D01*
X127847219Y-70206966D01*
X127991966Y-70062219D01*
X127991968Y-70062215D01*
X127991971Y-70062213D01*
X128044732Y-69989590D01*
X128112287Y-69896610D01*
X128205220Y-69714219D01*
X128268477Y-69519534D01*
X128300500Y-69317352D01*
X128300500Y-69112648D01*
X128268477Y-68910466D01*
X128205220Y-68715781D01*
X128205218Y-68715778D01*
X128205218Y-68715776D01*
X128171503Y-68649607D01*
X128112287Y-68533390D01*
X128104556Y-68522749D01*
X127991971Y-68367786D01*
X127847213Y-68223028D01*
X127681614Y-68102715D01*
X127675006Y-68099348D01*
X127588917Y-68055483D01*
X127538123Y-68007511D01*
X127521328Y-67939690D01*
X127543865Y-67873555D01*
X127588917Y-67834516D01*
X127681610Y-67787287D01*
X127702770Y-67771913D01*
X127847213Y-67666971D01*
X127847215Y-67666968D01*
X127847219Y-67666966D01*
X127991966Y-67522219D01*
X127991968Y-67522215D01*
X127991971Y-67522213D01*
X128044732Y-67449590D01*
X128112287Y-67356610D01*
X128205220Y-67174219D01*
X128268477Y-66979534D01*
X128300500Y-66777352D01*
X128300500Y-66572648D01*
X128268477Y-66370466D01*
X128259218Y-66341971D01*
X128239127Y-66280137D01*
X128205220Y-66175781D01*
X128205218Y-66175778D01*
X128205218Y-66175776D01*
X128171503Y-66109607D01*
X128112287Y-65993390D01*
X128051394Y-65909577D01*
X127991971Y-65827786D01*
X127847213Y-65683028D01*
X127681614Y-65562715D01*
X127675006Y-65559348D01*
X127588917Y-65515483D01*
X127538123Y-65467511D01*
X127521328Y-65399690D01*
X127543865Y-65333555D01*
X127588917Y-65294516D01*
X127681610Y-65247287D01*
X127702770Y-65231913D01*
X127847213Y-65126971D01*
X127847215Y-65126968D01*
X127847219Y-65126966D01*
X127991966Y-64982219D01*
X127991968Y-64982215D01*
X127991971Y-64982213D01*
X128060991Y-64887213D01*
X128112287Y-64816610D01*
X128205220Y-64634219D01*
X128268477Y-64439534D01*
X128300500Y-64237352D01*
X128300500Y-64032648D01*
X128268477Y-63830466D01*
X128205220Y-63635781D01*
X128205218Y-63635778D01*
X128205218Y-63635776D01*
X128156812Y-63540776D01*
X128112287Y-63453390D01*
X128060353Y-63381908D01*
X127991971Y-63287786D01*
X127847213Y-63143028D01*
X127681614Y-63022715D01*
X127675006Y-63019348D01*
X127588917Y-62975483D01*
X127538123Y-62927511D01*
X127521328Y-62859690D01*
X127543865Y-62793555D01*
X127588917Y-62754516D01*
X127681610Y-62707287D01*
X127702770Y-62691913D01*
X127847213Y-62586971D01*
X127847215Y-62586968D01*
X127847219Y-62586966D01*
X127991966Y-62442219D01*
X127991968Y-62442215D01*
X127991971Y-62442213D01*
X128054983Y-62355483D01*
X128112287Y-62276610D01*
X128205220Y-62094219D01*
X128268477Y-61899534D01*
X128300500Y-61697352D01*
X128300500Y-61492648D01*
X128268477Y-61290466D01*
X128205220Y-61095781D01*
X128205218Y-61095778D01*
X128205218Y-61095776D01*
X128171503Y-61029607D01*
X128112287Y-60913390D01*
X128104556Y-60902749D01*
X127991971Y-60747786D01*
X127847213Y-60603028D01*
X127681614Y-60482715D01*
X127675006Y-60479348D01*
X127588917Y-60435483D01*
X127538123Y-60387511D01*
X127521328Y-60319690D01*
X127543865Y-60253555D01*
X127588917Y-60214516D01*
X127681610Y-60167287D01*
X127702845Y-60151859D01*
X127847213Y-60046971D01*
X127847215Y-60046968D01*
X127847219Y-60046966D01*
X127991966Y-59902219D01*
X127991968Y-59902215D01*
X127991971Y-59902213D01*
X128076277Y-59786174D01*
X128112287Y-59736610D01*
X128205220Y-59554219D01*
X128268477Y-59359534D01*
X128300500Y-59157352D01*
X128300500Y-58952648D01*
X128268477Y-58750466D01*
X128259218Y-58721971D01*
X128232584Y-58640000D01*
X128205220Y-58555781D01*
X128205218Y-58555778D01*
X128205218Y-58555776D01*
X128170420Y-58487482D01*
X128112287Y-58373390D01*
X128101578Y-58358650D01*
X127991971Y-58207786D01*
X127847213Y-58063028D01*
X127681614Y-57942715D01*
X127675006Y-57939348D01*
X127588917Y-57895483D01*
X127538123Y-57847511D01*
X127521328Y-57779690D01*
X127543865Y-57713555D01*
X127588917Y-57674516D01*
X127681610Y-57627287D01*
X127705545Y-57609897D01*
X127847213Y-57506971D01*
X127847215Y-57506968D01*
X127847219Y-57506966D01*
X127991966Y-57362219D01*
X127991968Y-57362215D01*
X127991971Y-57362213D01*
X128044732Y-57289590D01*
X128112287Y-57196610D01*
X128205220Y-57014219D01*
X128268477Y-56819534D01*
X128300500Y-56617352D01*
X128300500Y-56412648D01*
X128268477Y-56210466D01*
X128205220Y-56015781D01*
X128205218Y-56015778D01*
X128205218Y-56015776D01*
X128171503Y-55949607D01*
X128112287Y-55833390D01*
X128104556Y-55822749D01*
X127991971Y-55667786D01*
X127847213Y-55523028D01*
X127681614Y-55402715D01*
X127675006Y-55399348D01*
X127588917Y-55355483D01*
X127538123Y-55307511D01*
X127521328Y-55239690D01*
X127543865Y-55173555D01*
X127588917Y-55134516D01*
X127681610Y-55087287D01*
X127702770Y-55071913D01*
X127847213Y-54966971D01*
X127847215Y-54966968D01*
X127847219Y-54966966D01*
X127991966Y-54822219D01*
X127991968Y-54822215D01*
X127991971Y-54822213D01*
X128044732Y-54749590D01*
X128112287Y-54656610D01*
X128205220Y-54474219D01*
X128268477Y-54279534D01*
X128300500Y-54077352D01*
X128300500Y-53872648D01*
X128268477Y-53670466D01*
X128205220Y-53475781D01*
X128205218Y-53475778D01*
X128205218Y-53475776D01*
X128171503Y-53409607D01*
X128112287Y-53293390D01*
X128053217Y-53212086D01*
X127991971Y-53127786D01*
X127847213Y-52983028D01*
X127681613Y-52862715D01*
X127681612Y-52862714D01*
X127681610Y-52862713D01*
X127624653Y-52833691D01*
X127499223Y-52769781D01*
X127304534Y-52706522D01*
X127129995Y-52678878D01*
X127102352Y-52674500D01*
X126897648Y-52674500D01*
X126873329Y-52678351D01*
X126695465Y-52706522D01*
X126500776Y-52769781D01*
X126318386Y-52862715D01*
X126152786Y-52983028D01*
X126008028Y-53127786D01*
X125887715Y-53293386D01*
X125794781Y-53475776D01*
X125731522Y-53670465D01*
X125699500Y-53872648D01*
X125699500Y-54077351D01*
X125731522Y-54279534D01*
X125794781Y-54474223D01*
X125887715Y-54656613D01*
X126008028Y-54822213D01*
X126152786Y-54966971D01*
X126307749Y-55079556D01*
X126318390Y-55087287D01*
X126409840Y-55133883D01*
X126411080Y-55134515D01*
X126461876Y-55182490D01*
X126478671Y-55250311D01*
X126456134Y-55316446D01*
X126411080Y-55355485D01*
X126318386Y-55402715D01*
X126152786Y-55523028D01*
X126008028Y-55667786D01*
X125887715Y-55833386D01*
X125794781Y-56015776D01*
X125731522Y-56210465D01*
X125699500Y-56412648D01*
X125699500Y-56617352D01*
X125703878Y-56644995D01*
X125731522Y-56819534D01*
X125794781Y-57014223D01*
X125887715Y-57196613D01*
X126008028Y-57362213D01*
X126152786Y-57506971D01*
X126307749Y-57619556D01*
X126318390Y-57627287D01*
X126409840Y-57673883D01*
X126411080Y-57674515D01*
X126461876Y-57722490D01*
X126478671Y-57790311D01*
X126456134Y-57856446D01*
X126411080Y-57895485D01*
X126318386Y-57942715D01*
X126152786Y-58063028D01*
X126008028Y-58207786D01*
X125887715Y-58373386D01*
X125794781Y-58555776D01*
X125731522Y-58750465D01*
X125699500Y-58952648D01*
X125699500Y-59157351D01*
X125731522Y-59359534D01*
X125794781Y-59554223D01*
X125858691Y-59679653D01*
X125879942Y-59721359D01*
X125887715Y-59736613D01*
X126008028Y-59902213D01*
X126152786Y-60046971D01*
X126297155Y-60151859D01*
X126318390Y-60167287D01*
X126409840Y-60213883D01*
X126411080Y-60214515D01*
X126461876Y-60262490D01*
X126478671Y-60330311D01*
X126456134Y-60396446D01*
X126411080Y-60435485D01*
X126318386Y-60482715D01*
X126152786Y-60603028D01*
X126008028Y-60747786D01*
X125887715Y-60913386D01*
X125794781Y-61095776D01*
X125731522Y-61290465D01*
X125699500Y-61492648D01*
X125699500Y-61697351D01*
X125731522Y-61899534D01*
X125794781Y-62094223D01*
X125887715Y-62276613D01*
X126008028Y-62442213D01*
X126152786Y-62586971D01*
X126307749Y-62699556D01*
X126318390Y-62707287D01*
X126409840Y-62753883D01*
X126411080Y-62754515D01*
X126461876Y-62802490D01*
X126478671Y-62870311D01*
X126456134Y-62936446D01*
X126411080Y-62975485D01*
X126318386Y-63022715D01*
X126152786Y-63143028D01*
X126008028Y-63287786D01*
X125887715Y-63453386D01*
X125794781Y-63635776D01*
X125731522Y-63830465D01*
X125699500Y-64032648D01*
X125699500Y-64237352D01*
X125703878Y-64264995D01*
X125731522Y-64439534D01*
X125794781Y-64634223D01*
X125887715Y-64816613D01*
X126008028Y-64982213D01*
X126152786Y-65126971D01*
X126307749Y-65239556D01*
X126318390Y-65247287D01*
X126409840Y-65293883D01*
X126411080Y-65294515D01*
X126461876Y-65342490D01*
X126478671Y-65410311D01*
X126456134Y-65476446D01*
X126411080Y-65515485D01*
X126318386Y-65562715D01*
X126152786Y-65683028D01*
X126008028Y-65827786D01*
X125887715Y-65993386D01*
X125794781Y-66175776D01*
X125731522Y-66370465D01*
X125699500Y-66572648D01*
X125699500Y-66777351D01*
X125731522Y-66979534D01*
X125794781Y-67174223D01*
X125887715Y-67356613D01*
X126008028Y-67522213D01*
X126152786Y-67666971D01*
X126307749Y-67779556D01*
X126318390Y-67787287D01*
X126409840Y-67833883D01*
X126411080Y-67834515D01*
X126461876Y-67882490D01*
X126478671Y-67950311D01*
X126456134Y-68016446D01*
X126411080Y-68055485D01*
X126318386Y-68102715D01*
X126152786Y-68223028D01*
X126008028Y-68367786D01*
X125887715Y-68533386D01*
X125794781Y-68715776D01*
X125731522Y-68910465D01*
X125699500Y-69112648D01*
X125699500Y-69317351D01*
X125731522Y-69519534D01*
X125794781Y-69714223D01*
X125848423Y-69819500D01*
X125864739Y-69851522D01*
X125887715Y-69896613D01*
X126008028Y-70062213D01*
X126152786Y-70206971D01*
X126307749Y-70319556D01*
X126318390Y-70327287D01*
X126409840Y-70373883D01*
X126411080Y-70374515D01*
X126461876Y-70422490D01*
X126478671Y-70490311D01*
X126456134Y-70556446D01*
X126411080Y-70595485D01*
X126318386Y-70642715D01*
X126152786Y-70763028D01*
X126008028Y-70907786D01*
X125887715Y-71073386D01*
X125857954Y-71131795D01*
X125809979Y-71182591D01*
X125747469Y-71199500D01*
X108424838Y-71199500D01*
X108357799Y-71179815D01*
X108312044Y-71127011D01*
X108310275Y-71122949D01*
X108309394Y-71120821D01*
X108309391Y-71120816D01*
X108309390Y-71120814D01*
X108221789Y-70989711D01*
X108221786Y-70989707D01*
X108110292Y-70878213D01*
X108110288Y-70878210D01*
X107979185Y-70790609D01*
X107979172Y-70790602D01*
X107833501Y-70730264D01*
X107833489Y-70730261D01*
X107678845Y-70699500D01*
X107678842Y-70699500D01*
X107521158Y-70699500D01*
X107521155Y-70699500D01*
X107366510Y-70730261D01*
X107366498Y-70730264D01*
X107220827Y-70790602D01*
X107220814Y-70790609D01*
X107089711Y-70878210D01*
X107089707Y-70878213D01*
X106978213Y-70989707D01*
X106978210Y-70989711D01*
X106890609Y-71120814D01*
X106890604Y-71120824D01*
X106848639Y-71222137D01*
X106804798Y-71276540D01*
X106796078Y-71282071D01*
X106731287Y-71319477D01*
X106731282Y-71319481D01*
X106619478Y-71431286D01*
X100387584Y-77663181D01*
X100326261Y-77696666D01*
X100299903Y-77699500D01*
X96120943Y-77699500D01*
X95968216Y-77740423D01*
X95968209Y-77740426D01*
X95831290Y-77819475D01*
X95831282Y-77819481D01*
X95719481Y-77931282D01*
X95719475Y-77931290D01*
X95640426Y-78068209D01*
X95640423Y-78068216D01*
X95599500Y-78220943D01*
X95599500Y-80710721D01*
X95579815Y-80777760D01*
X95531797Y-80821205D01*
X95504305Y-80835213D01*
X95343533Y-80952021D01*
X95203018Y-81092536D01*
X95151904Y-81162888D01*
X95096573Y-81205553D01*
X95026960Y-81211531D01*
X94965165Y-81178924D01*
X94930809Y-81118085D01*
X94928297Y-81103253D01*
X94922091Y-81045516D01*
X94871797Y-80910671D01*
X94871793Y-80910664D01*
X94785547Y-80795455D01*
X94785544Y-80795452D01*
X94670335Y-80709206D01*
X94670328Y-80709202D01*
X94535482Y-80658908D01*
X94535483Y-80658908D01*
X94475883Y-80652501D01*
X94475881Y-80652500D01*
X94475873Y-80652500D01*
X94475864Y-80652500D01*
X92856129Y-80652500D01*
X92856123Y-80652501D01*
X92796516Y-80658908D01*
X92661671Y-80709202D01*
X92661664Y-80709206D01*
X92546455Y-80795452D01*
X92546452Y-80795455D01*
X92460206Y-80910664D01*
X92460202Y-80910671D01*
X92409908Y-81045517D01*
X92403501Y-81105116D01*
X92403500Y-81105135D01*
X90500500Y-81105135D01*
X90500500Y-49346155D01*
X99694000Y-49346155D01*
X99694000Y-49915000D01*
X100703055Y-49915000D01*
X100675328Y-49942727D01*
X100627669Y-50025273D01*
X100603000Y-50117342D01*
X100603000Y-50212658D01*
X100627669Y-50304727D01*
X100675328Y-50387273D01*
X100703055Y-50415000D01*
X99694000Y-50415000D01*
X99694000Y-50983844D01*
X99700401Y-51043372D01*
X99700403Y-51043379D01*
X99750645Y-51178086D01*
X99750649Y-51178093D01*
X99836809Y-51293187D01*
X99836812Y-51293190D01*
X99951906Y-51379350D01*
X99951913Y-51379354D01*
X100086620Y-51429596D01*
X100086627Y-51429598D01*
X100146155Y-51435999D01*
X100146172Y-51436000D01*
X100715000Y-51436000D01*
X100715000Y-50426945D01*
X100742727Y-50454672D01*
X100825273Y-50502331D01*
X100917342Y-50527000D01*
X101012658Y-50527000D01*
X101104727Y-50502331D01*
X101187273Y-50454672D01*
X101215000Y-50426945D01*
X101215000Y-51436000D01*
X101783828Y-51436000D01*
X101783844Y-51435999D01*
X101843372Y-51429598D01*
X101843379Y-51429596D01*
X101978086Y-51379354D01*
X101978093Y-51379350D01*
X102093187Y-51293190D01*
X102093190Y-51293187D01*
X102179350Y-51178093D01*
X102179354Y-51178086D01*
X102229596Y-51043379D01*
X102229598Y-51043372D01*
X102235999Y-50983844D01*
X102236000Y-50983827D01*
X102236000Y-50963209D01*
X102255685Y-50896170D01*
X102308489Y-50850415D01*
X102377647Y-50840471D01*
X102441203Y-50869496D01*
X102460317Y-50890323D01*
X102535154Y-50993327D01*
X102676673Y-51134846D01*
X102838589Y-51252485D01*
X103016913Y-51343346D01*
X103207256Y-51405192D01*
X103301920Y-51420185D01*
X103404926Y-51436500D01*
X103404931Y-51436500D01*
X103605074Y-51436500D01*
X103692431Y-51422663D01*
X103802744Y-51405192D01*
X103993087Y-51343346D01*
X104171411Y-51252485D01*
X104333327Y-51134846D01*
X104474846Y-50993327D01*
X104592485Y-50831411D01*
X104664515Y-50690043D01*
X104712490Y-50639248D01*
X104780311Y-50622453D01*
X104846445Y-50644990D01*
X104885484Y-50690042D01*
X104957515Y-50831411D01*
X105075154Y-50993327D01*
X105216673Y-51134846D01*
X105378589Y-51252485D01*
X105556913Y-51343346D01*
X105747256Y-51405192D01*
X105841920Y-51420185D01*
X105944926Y-51436500D01*
X105944931Y-51436500D01*
X106145074Y-51436500D01*
X106232431Y-51422663D01*
X106342744Y-51405192D01*
X106533087Y-51343346D01*
X106711411Y-51252485D01*
X106873327Y-51134846D01*
X107014846Y-50993327D01*
X107132485Y-50831411D01*
X107204515Y-50690043D01*
X107252490Y-50639248D01*
X107320311Y-50622453D01*
X107386445Y-50644990D01*
X107425484Y-50690042D01*
X107497515Y-50831411D01*
X107615154Y-50993327D01*
X107756673Y-51134846D01*
X107918589Y-51252485D01*
X108096913Y-51343346D01*
X108287256Y-51405192D01*
X108381920Y-51420185D01*
X108484926Y-51436500D01*
X108484931Y-51436500D01*
X108685074Y-51436500D01*
X108772431Y-51422663D01*
X108882744Y-51405192D01*
X109073087Y-51343346D01*
X109251411Y-51252485D01*
X109413327Y-51134846D01*
X109554846Y-50993327D01*
X109672485Y-50831411D01*
X109763346Y-50653087D01*
X109825192Y-50462744D01*
X109850845Y-50300776D01*
X109856500Y-50265074D01*
X109856500Y-50064925D01*
X109838738Y-49952786D01*
X109825192Y-49867256D01*
X109763346Y-49676913D01*
X109672485Y-49498589D01*
X109554846Y-49336673D01*
X109413327Y-49195154D01*
X109251411Y-49077515D01*
X109073087Y-48986654D01*
X108882744Y-48924808D01*
X108685074Y-48893500D01*
X108685069Y-48893500D01*
X108484931Y-48893500D01*
X108484926Y-48893500D01*
X108287255Y-48924808D01*
X108096910Y-48986655D01*
X107918588Y-49077515D01*
X107826209Y-49144632D01*
X107756673Y-49195154D01*
X107756671Y-49195156D01*
X107756670Y-49195156D01*
X107615156Y-49336670D01*
X107615156Y-49336671D01*
X107615154Y-49336673D01*
X107608265Y-49346155D01*
X107497515Y-49498588D01*
X107425485Y-49639955D01*
X107377510Y-49690751D01*
X107309689Y-49707546D01*
X107243554Y-49685008D01*
X107204515Y-49639955D01*
X107181497Y-49594780D01*
X107132485Y-49498589D01*
X107014846Y-49336673D01*
X106873327Y-49195154D01*
X106711411Y-49077515D01*
X106533087Y-48986654D01*
X106342744Y-48924808D01*
X106145074Y-48893500D01*
X106145069Y-48893500D01*
X105944931Y-48893500D01*
X105944926Y-48893500D01*
X105747255Y-48924808D01*
X105556910Y-48986655D01*
X105378588Y-49077515D01*
X105286209Y-49144632D01*
X105216673Y-49195154D01*
X105216671Y-49195156D01*
X105216670Y-49195156D01*
X105075156Y-49336670D01*
X105075156Y-49336671D01*
X105075154Y-49336673D01*
X105068265Y-49346155D01*
X104957515Y-49498588D01*
X104885485Y-49639955D01*
X104837510Y-49690751D01*
X104769689Y-49707546D01*
X104703554Y-49685008D01*
X104664515Y-49639955D01*
X104641497Y-49594780D01*
X104592485Y-49498589D01*
X104474846Y-49336673D01*
X104333327Y-49195154D01*
X104171411Y-49077515D01*
X103993087Y-48986654D01*
X103802744Y-48924808D01*
X103605074Y-48893500D01*
X103605069Y-48893500D01*
X103404931Y-48893500D01*
X103404926Y-48893500D01*
X103207255Y-48924808D01*
X103016910Y-48986655D01*
X102838588Y-49077515D01*
X102746209Y-49144632D01*
X102676673Y-49195154D01*
X102676671Y-49195156D01*
X102676670Y-49195156D01*
X102535156Y-49336670D01*
X102535156Y-49336671D01*
X102535154Y-49336673D01*
X102528265Y-49346155D01*
X102460318Y-49439676D01*
X102404988Y-49482341D01*
X102335374Y-49488320D01*
X102273579Y-49455714D01*
X102239222Y-49394875D01*
X102236000Y-49366790D01*
X102236000Y-49346172D01*
X102235999Y-49346155D01*
X102229598Y-49286627D01*
X102229596Y-49286620D01*
X102179354Y-49151913D01*
X102179350Y-49151906D01*
X102093190Y-49036812D01*
X102093187Y-49036809D01*
X101978093Y-48950649D01*
X101978086Y-48950645D01*
X101843379Y-48900403D01*
X101843372Y-48900401D01*
X101783844Y-48894000D01*
X101215000Y-48894000D01*
X101215000Y-49903055D01*
X101187273Y-49875328D01*
X101104727Y-49827669D01*
X101012658Y-49803000D01*
X100917342Y-49803000D01*
X100825273Y-49827669D01*
X100742727Y-49875328D01*
X100715000Y-49903055D01*
X100715000Y-48894000D01*
X100146155Y-48894000D01*
X100086627Y-48900401D01*
X100086620Y-48900403D01*
X99951913Y-48950645D01*
X99951906Y-48950649D01*
X99836812Y-49036809D01*
X99836809Y-49036812D01*
X99750649Y-49151906D01*
X99750645Y-49151913D01*
X99700403Y-49286620D01*
X99700401Y-49286627D01*
X99694000Y-49346155D01*
X90500500Y-49346155D01*
X90500500Y-46624500D01*
X90520185Y-46557461D01*
X90572989Y-46511706D01*
X90624500Y-46500500D01*
X173375500Y-46500500D01*
X173442539Y-46520185D01*
G37*
%TD.AperFunction*%
%TD*%
M02*
