%TF.GenerationSoftware,KiCad,Pcbnew,9.0.7*%
%TF.CreationDate,2026-03-08T14:45:11+01:00*%
%TF.ProjectId,test,74657374-2e6b-4696-9361-645f70636258,rev?*%
%TF.SameCoordinates,Original*%
%TF.FileFunction,Drillmap*%
%TF.FilePolarity,Positive*%
%FSLAX45Y45*%
G04 Gerber Fmt 4.5, Leading zero omitted, Abs format (unit mm)*
G04 Created by KiCad (PCBNEW 9.0.7) date 2026-03-08 14:45:11*
%MOMM*%
%LPD*%
G01*
G04 APERTURE LIST*
%ADD10C,0.038100*%
%ADD11C,0.200000*%
G04 APERTURE END LIST*
D10*
X9000000Y-9700000D02*
X17400000Y-9700000D01*
X9000000Y-4600000D02*
X9000000Y-9700000D01*
X17400000Y-4600000D02*
X9000000Y-4600000D01*
X17400000Y-9700000D02*
X17400000Y-4600000D01*
D11*
X9258872Y-10013389D02*
X9258872Y-9813389D01*
X9258872Y-9813389D02*
X9306491Y-9813389D01*
X9306491Y-9813389D02*
X9335062Y-9822913D01*
X9335062Y-9822913D02*
X9354110Y-9841960D01*
X9354110Y-9841960D02*
X9363634Y-9861008D01*
X9363634Y-9861008D02*
X9373158Y-9899103D01*
X9373158Y-9899103D02*
X9373158Y-9927675D01*
X9373158Y-9927675D02*
X9363634Y-9965770D01*
X9363634Y-9965770D02*
X9354110Y-9984817D01*
X9354110Y-9984817D02*
X9335062Y-10003865D01*
X9335062Y-10003865D02*
X9306491Y-10013389D01*
X9306491Y-10013389D02*
X9258872Y-10013389D01*
X9458872Y-10013389D02*
X9458872Y-9880055D01*
X9458872Y-9918151D02*
X9468396Y-9899103D01*
X9468396Y-9899103D02*
X9477919Y-9889579D01*
X9477919Y-9889579D02*
X9496967Y-9880055D01*
X9496967Y-9880055D02*
X9516015Y-9880055D01*
X9582681Y-10013389D02*
X9582681Y-9880055D01*
X9582681Y-9813389D02*
X9573158Y-9822913D01*
X9573158Y-9822913D02*
X9582681Y-9832436D01*
X9582681Y-9832436D02*
X9592205Y-9822913D01*
X9592205Y-9822913D02*
X9582681Y-9813389D01*
X9582681Y-9813389D02*
X9582681Y-9832436D01*
X9706491Y-10013389D02*
X9687443Y-10003865D01*
X9687443Y-10003865D02*
X9677919Y-9984817D01*
X9677919Y-9984817D02*
X9677919Y-9813389D01*
X9811253Y-10013389D02*
X9792205Y-10003865D01*
X9792205Y-10003865D02*
X9782681Y-9984817D01*
X9782681Y-9984817D02*
X9782681Y-9813389D01*
X10039824Y-10013389D02*
X10039824Y-9813389D01*
X10039824Y-9813389D02*
X10106491Y-9956246D01*
X10106491Y-9956246D02*
X10173158Y-9813389D01*
X10173158Y-9813389D02*
X10173158Y-10013389D01*
X10354110Y-10013389D02*
X10354110Y-9908627D01*
X10354110Y-9908627D02*
X10344586Y-9889579D01*
X10344586Y-9889579D02*
X10325539Y-9880055D01*
X10325539Y-9880055D02*
X10287443Y-9880055D01*
X10287443Y-9880055D02*
X10268396Y-9889579D01*
X10354110Y-10003865D02*
X10335062Y-10013389D01*
X10335062Y-10013389D02*
X10287443Y-10013389D01*
X10287443Y-10013389D02*
X10268396Y-10003865D01*
X10268396Y-10003865D02*
X10258872Y-9984817D01*
X10258872Y-9984817D02*
X10258872Y-9965770D01*
X10258872Y-9965770D02*
X10268396Y-9946722D01*
X10268396Y-9946722D02*
X10287443Y-9937198D01*
X10287443Y-9937198D02*
X10335062Y-9937198D01*
X10335062Y-9937198D02*
X10354110Y-9927675D01*
X10449348Y-9880055D02*
X10449348Y-10080055D01*
X10449348Y-9889579D02*
X10468396Y-9880055D01*
X10468396Y-9880055D02*
X10506491Y-9880055D01*
X10506491Y-9880055D02*
X10525539Y-9889579D01*
X10525539Y-9889579D02*
X10535062Y-9899103D01*
X10535062Y-9899103D02*
X10544586Y-9918151D01*
X10544586Y-9918151D02*
X10544586Y-9975294D01*
X10544586Y-9975294D02*
X10535062Y-9994341D01*
X10535062Y-9994341D02*
X10525539Y-10003865D01*
X10525539Y-10003865D02*
X10506491Y-10013389D01*
X10506491Y-10013389D02*
X10468396Y-10013389D01*
X10468396Y-10013389D02*
X10449348Y-10003865D01*
X10630300Y-9994341D02*
X10639824Y-10003865D01*
X10639824Y-10003865D02*
X10630300Y-10013389D01*
X10630300Y-10013389D02*
X10620777Y-10003865D01*
X10620777Y-10003865D02*
X10630300Y-9994341D01*
X10630300Y-9994341D02*
X10630300Y-10013389D01*
X10630300Y-9889579D02*
X10639824Y-9899103D01*
X10639824Y-9899103D02*
X10630300Y-9908627D01*
X10630300Y-9908627D02*
X10620777Y-9899103D01*
X10620777Y-9899103D02*
X10630300Y-9889579D01*
X10630300Y-9889579D02*
X10630300Y-9908627D01*
M02*
