%TF.GenerationSoftware,KiCad,Pcbnew,9.0.7*%
%TF.CreationDate,2026-03-08T14:49:00+01:00*%
%TF.ProjectId,test,74657374-2e6b-4696-9361-645f70636258,rev?*%
%TF.SameCoordinates,Original*%
%TF.FileFunction,Soldermask,Top*%
%TF.FilePolarity,Negative*%
%FSLAX46Y46*%
G04 Gerber Fmt 4.6, Leading zero omitted, Abs format (unit mm)*
G04 Created by KiCad (PCBNEW 9.0.7) date 2026-03-08 14:49:00*
%MOMM*%
%LPD*%
G01*
G04 APERTURE LIST*
G04 APERTURE END LIST*
G36*
X157712228Y-90674448D02*
G01*
X157857117Y-90734463D01*
X157987515Y-90821592D01*
X158098408Y-90932485D01*
X158185537Y-91062883D01*
X158245552Y-91207772D01*
X158276148Y-91361586D01*
X158276148Y-91518414D01*
X158245552Y-91672228D01*
X158185537Y-91817117D01*
X158098408Y-91947515D01*
X157987515Y-92058408D01*
X157857117Y-92145537D01*
X157712228Y-92205552D01*
X157558414Y-92236148D01*
X157401586Y-92236148D01*
X157247772Y-92205552D01*
X157102883Y-92145537D01*
X156972485Y-92058408D01*
X156861592Y-91947515D01*
X156774463Y-91817117D01*
X156714448Y-91672228D01*
X156683852Y-91518414D01*
X156683852Y-91361586D01*
X156714448Y-91207772D01*
X156774463Y-91062883D01*
X156861592Y-90932485D01*
X156972485Y-90821592D01*
X157102883Y-90734463D01*
X157247772Y-90674448D01*
X157401586Y-90643852D01*
X157558414Y-90643852D01*
X157712228Y-90674448D01*
G37*
G36*
X148822228Y-89404448D02*
G01*
X148967117Y-89464463D01*
X149097515Y-89551592D01*
X149208408Y-89662485D01*
X149295537Y-89792883D01*
X149355552Y-89937772D01*
X149386148Y-90091586D01*
X149386148Y-90248414D01*
X149355552Y-90402228D01*
X149295537Y-90547117D01*
X149208408Y-90677515D01*
X149097515Y-90788408D01*
X148967117Y-90875537D01*
X148822228Y-90935552D01*
X148668414Y-90966148D01*
X148511586Y-90966148D01*
X148357772Y-90935552D01*
X148212883Y-90875537D01*
X148082485Y-90788408D01*
X147971592Y-90677515D01*
X147884463Y-90547117D01*
X147824448Y-90402228D01*
X147793852Y-90248414D01*
X147793852Y-90091586D01*
X147824448Y-89937772D01*
X147884463Y-89792883D01*
X147971592Y-89662485D01*
X148082485Y-89551592D01*
X148212883Y-89464463D01*
X148357772Y-89404448D01*
X148511586Y-89373852D01*
X148668414Y-89373852D01*
X148822228Y-89404448D01*
G37*
G36*
X143040000Y-90335000D02*
G01*
X141440000Y-90335000D01*
X141440000Y-88735000D01*
X143040000Y-88735000D01*
X143040000Y-90335000D01*
G37*
G36*
X127232228Y-88769448D02*
G01*
X127377117Y-88829463D01*
X127507515Y-88916592D01*
X127618408Y-89027485D01*
X127705537Y-89157883D01*
X127765552Y-89302772D01*
X127796148Y-89456586D01*
X127796148Y-89613414D01*
X127765552Y-89767228D01*
X127705537Y-89912117D01*
X127618408Y-90042515D01*
X127507515Y-90153408D01*
X127377117Y-90240537D01*
X127232228Y-90300552D01*
X127078414Y-90331148D01*
X126921586Y-90331148D01*
X126767772Y-90300552D01*
X126622883Y-90240537D01*
X126492485Y-90153408D01*
X126381592Y-90042515D01*
X126294463Y-89912117D01*
X126234448Y-89767228D01*
X126203852Y-89613414D01*
X126203852Y-89456586D01*
X126234448Y-89302772D01*
X126294463Y-89157883D01*
X126381592Y-89027485D01*
X126492485Y-88916592D01*
X126622883Y-88829463D01*
X126767772Y-88769448D01*
X126921586Y-88738852D01*
X127078414Y-88738852D01*
X127232228Y-88769448D01*
G37*
G36*
X164120285Y-87943060D02*
G01*
X164301397Y-88018079D01*
X164464393Y-88126990D01*
X164603010Y-88265607D01*
X164711921Y-88428603D01*
X164786940Y-88609715D01*
X164825185Y-88801983D01*
X164825185Y-88998017D01*
X164786940Y-89190285D01*
X164711921Y-89371397D01*
X164603010Y-89534393D01*
X164464393Y-89673010D01*
X164301397Y-89781921D01*
X164120285Y-89856940D01*
X163928017Y-89895185D01*
X163731983Y-89895185D01*
X163539715Y-89856940D01*
X163358603Y-89781921D01*
X163195607Y-89673010D01*
X163056990Y-89534393D01*
X162948079Y-89371397D01*
X162873060Y-89190285D01*
X162834815Y-88998017D01*
X162834815Y-88801983D01*
X162873060Y-88609715D01*
X162948079Y-88428603D01*
X163056990Y-88265607D01*
X163195607Y-88126990D01*
X163358603Y-88018079D01*
X163539715Y-87943060D01*
X163731983Y-87904815D01*
X163928017Y-87904815D01*
X164120285Y-87943060D01*
G37*
G36*
X170620285Y-87943060D02*
G01*
X170801397Y-88018079D01*
X170964393Y-88126990D01*
X171103010Y-88265607D01*
X171211921Y-88428603D01*
X171286940Y-88609715D01*
X171325185Y-88801983D01*
X171325185Y-88998017D01*
X171286940Y-89190285D01*
X171211921Y-89371397D01*
X171103010Y-89534393D01*
X170964393Y-89673010D01*
X170801397Y-89781921D01*
X170620285Y-89856940D01*
X170428017Y-89895185D01*
X170231983Y-89895185D01*
X170039715Y-89856940D01*
X169858603Y-89781921D01*
X169695607Y-89673010D01*
X169556990Y-89534393D01*
X169448079Y-89371397D01*
X169373060Y-89190285D01*
X169334815Y-88998017D01*
X169334815Y-88801983D01*
X169373060Y-88609715D01*
X169448079Y-88428603D01*
X169556990Y-88265607D01*
X169695607Y-88126990D01*
X169858603Y-88018079D01*
X170039715Y-87943060D01*
X170231983Y-87904815D01*
X170428017Y-87904815D01*
X170620285Y-87943060D01*
G37*
G36*
X127232228Y-86229448D02*
G01*
X127377117Y-86289463D01*
X127507515Y-86376592D01*
X127618408Y-86487485D01*
X127705537Y-86617883D01*
X127765552Y-86762772D01*
X127796148Y-86916586D01*
X127796148Y-87073414D01*
X127765552Y-87227228D01*
X127705537Y-87372117D01*
X127618408Y-87502515D01*
X127507515Y-87613408D01*
X127377117Y-87700537D01*
X127232228Y-87760552D01*
X127078414Y-87791148D01*
X126921586Y-87791148D01*
X126767772Y-87760552D01*
X126622883Y-87700537D01*
X126492485Y-87613408D01*
X126381592Y-87502515D01*
X126294463Y-87372117D01*
X126234448Y-87227228D01*
X126203852Y-87073414D01*
X126203852Y-86916586D01*
X126234448Y-86762772D01*
X126294463Y-86617883D01*
X126381592Y-86487485D01*
X126492485Y-86376592D01*
X126622883Y-86289463D01*
X126767772Y-86229448D01*
X126921586Y-86198852D01*
X127078414Y-86198852D01*
X127232228Y-86229448D01*
G37*
G36*
X142472228Y-86229448D02*
G01*
X142617117Y-86289463D01*
X142747515Y-86376592D01*
X142858408Y-86487485D01*
X142945537Y-86617883D01*
X143005552Y-86762772D01*
X143036148Y-86916586D01*
X143036148Y-87073414D01*
X143005552Y-87227228D01*
X142945537Y-87372117D01*
X142858408Y-87502515D01*
X142747515Y-87613408D01*
X142617117Y-87700537D01*
X142472228Y-87760552D01*
X142318414Y-87791148D01*
X142161586Y-87791148D01*
X142007772Y-87760552D01*
X141862883Y-87700537D01*
X141732485Y-87613408D01*
X141621592Y-87502515D01*
X141534463Y-87372117D01*
X141474448Y-87227228D01*
X141443852Y-87073414D01*
X141443852Y-86916586D01*
X141474448Y-86762772D01*
X141534463Y-86617883D01*
X141621592Y-86487485D01*
X141732485Y-86376592D01*
X141862883Y-86289463D01*
X142007772Y-86229448D01*
X142161586Y-86198852D01*
X142318414Y-86198852D01*
X142472228Y-86229448D01*
G37*
G36*
X148822228Y-84404448D02*
G01*
X148967117Y-84464463D01*
X149097515Y-84551592D01*
X149208408Y-84662485D01*
X149295537Y-84792883D01*
X149355552Y-84937772D01*
X149386148Y-85091586D01*
X149386148Y-85248414D01*
X149355552Y-85402228D01*
X149295537Y-85547117D01*
X149208408Y-85677515D01*
X149097515Y-85788408D01*
X148967117Y-85875537D01*
X148822228Y-85935552D01*
X148668414Y-85966148D01*
X148511586Y-85966148D01*
X148357772Y-85935552D01*
X148212883Y-85875537D01*
X148082485Y-85788408D01*
X147971592Y-85677515D01*
X147884463Y-85547117D01*
X147824448Y-85402228D01*
X147793852Y-85248414D01*
X147793852Y-85091586D01*
X147824448Y-84937772D01*
X147884463Y-84792883D01*
X147971592Y-84662485D01*
X148082485Y-84551592D01*
X148212883Y-84464463D01*
X148357772Y-84404448D01*
X148511586Y-84373852D01*
X148668414Y-84373852D01*
X148822228Y-84404448D01*
G37*
G36*
X164120285Y-83443060D02*
G01*
X164301397Y-83518079D01*
X164464393Y-83626990D01*
X164603010Y-83765607D01*
X164711921Y-83928603D01*
X164786940Y-84109715D01*
X164825185Y-84301983D01*
X164825185Y-84498017D01*
X164786940Y-84690285D01*
X164711921Y-84871397D01*
X164603010Y-85034393D01*
X164464393Y-85173010D01*
X164301397Y-85281921D01*
X164120285Y-85356940D01*
X163928017Y-85395185D01*
X163731983Y-85395185D01*
X163539715Y-85356940D01*
X163358603Y-85281921D01*
X163195607Y-85173010D01*
X163056990Y-85034393D01*
X162948079Y-84871397D01*
X162873060Y-84690285D01*
X162834815Y-84498017D01*
X162834815Y-84301983D01*
X162873060Y-84109715D01*
X162948079Y-83928603D01*
X163056990Y-83765607D01*
X163195607Y-83626990D01*
X163358603Y-83518079D01*
X163539715Y-83443060D01*
X163731983Y-83404815D01*
X163928017Y-83404815D01*
X164120285Y-83443060D01*
G37*
G36*
X170620285Y-83443060D02*
G01*
X170801397Y-83518079D01*
X170964393Y-83626990D01*
X171103010Y-83765607D01*
X171211921Y-83928603D01*
X171286940Y-84109715D01*
X171325185Y-84301983D01*
X171325185Y-84498017D01*
X171286940Y-84690285D01*
X171211921Y-84871397D01*
X171103010Y-85034393D01*
X170964393Y-85173010D01*
X170801397Y-85281921D01*
X170620285Y-85356940D01*
X170428017Y-85395185D01*
X170231983Y-85395185D01*
X170039715Y-85356940D01*
X169858603Y-85281921D01*
X169695607Y-85173010D01*
X169556990Y-85034393D01*
X169448079Y-84871397D01*
X169373060Y-84690285D01*
X169334815Y-84498017D01*
X169334815Y-84301983D01*
X169373060Y-84109715D01*
X169448079Y-83928603D01*
X169556990Y-83765607D01*
X169695607Y-83626990D01*
X169858603Y-83518079D01*
X170039715Y-83443060D01*
X170231983Y-83404815D01*
X170428017Y-83404815D01*
X170620285Y-83443060D01*
G37*
G36*
X127232228Y-83689448D02*
G01*
X127377117Y-83749463D01*
X127507515Y-83836592D01*
X127618408Y-83947485D01*
X127705537Y-84077883D01*
X127765552Y-84222772D01*
X127796148Y-84376586D01*
X127796148Y-84533414D01*
X127765552Y-84687228D01*
X127705537Y-84832117D01*
X127618408Y-84962515D01*
X127507515Y-85073408D01*
X127377117Y-85160537D01*
X127232228Y-85220552D01*
X127078414Y-85251148D01*
X126921586Y-85251148D01*
X126767772Y-85220552D01*
X126622883Y-85160537D01*
X126492485Y-85073408D01*
X126381592Y-84962515D01*
X126294463Y-84832117D01*
X126234448Y-84687228D01*
X126203852Y-84533414D01*
X126203852Y-84376586D01*
X126234448Y-84222772D01*
X126294463Y-84077883D01*
X126381592Y-83947485D01*
X126492485Y-83836592D01*
X126622883Y-83749463D01*
X126767772Y-83689448D01*
X126921586Y-83658852D01*
X127078414Y-83658852D01*
X127232228Y-83689448D01*
G37*
G36*
X142472228Y-83689448D02*
G01*
X142617117Y-83749463D01*
X142747515Y-83836592D01*
X142858408Y-83947485D01*
X142945537Y-84077883D01*
X143005552Y-84222772D01*
X143036148Y-84376586D01*
X143036148Y-84533414D01*
X143005552Y-84687228D01*
X142945537Y-84832117D01*
X142858408Y-84962515D01*
X142747515Y-85073408D01*
X142617117Y-85160537D01*
X142472228Y-85220552D01*
X142318414Y-85251148D01*
X142161586Y-85251148D01*
X142007772Y-85220552D01*
X141862883Y-85160537D01*
X141732485Y-85073408D01*
X141621592Y-84962515D01*
X141534463Y-84832117D01*
X141474448Y-84687228D01*
X141443852Y-84533414D01*
X141443852Y-84376586D01*
X141474448Y-84222772D01*
X141534463Y-84077883D01*
X141621592Y-83947485D01*
X141732485Y-83836592D01*
X141862883Y-83749463D01*
X142007772Y-83689448D01*
X142161586Y-83658852D01*
X142318414Y-83658852D01*
X142472228Y-83689448D01*
G37*
G36*
X157712228Y-83054448D02*
G01*
X157857117Y-83114463D01*
X157987515Y-83201592D01*
X158098408Y-83312485D01*
X158185537Y-83442883D01*
X158245552Y-83587772D01*
X158276148Y-83741586D01*
X158276148Y-83898414D01*
X158245552Y-84052228D01*
X158185537Y-84197117D01*
X158098408Y-84327515D01*
X157987515Y-84438408D01*
X157857117Y-84525537D01*
X157712228Y-84585552D01*
X157558414Y-84616148D01*
X157401586Y-84616148D01*
X157247772Y-84585552D01*
X157102883Y-84525537D01*
X156972485Y-84438408D01*
X156861592Y-84327515D01*
X156774463Y-84197117D01*
X156714448Y-84052228D01*
X156683852Y-83898414D01*
X156683852Y-83741586D01*
X156714448Y-83587772D01*
X156774463Y-83442883D01*
X156861592Y-83312485D01*
X156972485Y-83201592D01*
X157102883Y-83114463D01*
X157247772Y-83054448D01*
X157401586Y-83023852D01*
X157558414Y-83023852D01*
X157712228Y-83054448D01*
G37*
G36*
X127232228Y-81149448D02*
G01*
X127377117Y-81209463D01*
X127507515Y-81296592D01*
X127618408Y-81407485D01*
X127705537Y-81537883D01*
X127765552Y-81682772D01*
X127796148Y-81836586D01*
X127796148Y-81993414D01*
X127765552Y-82147228D01*
X127705537Y-82292117D01*
X127618408Y-82422515D01*
X127507515Y-82533408D01*
X127377117Y-82620537D01*
X127232228Y-82680552D01*
X127078414Y-82711148D01*
X126921586Y-82711148D01*
X126767772Y-82680552D01*
X126622883Y-82620537D01*
X126492485Y-82533408D01*
X126381592Y-82422515D01*
X126294463Y-82292117D01*
X126234448Y-82147228D01*
X126203852Y-81993414D01*
X126203852Y-81836586D01*
X126234448Y-81682772D01*
X126294463Y-81537883D01*
X126381592Y-81407485D01*
X126492485Y-81296592D01*
X126622883Y-81209463D01*
X126767772Y-81149448D01*
X126921586Y-81118852D01*
X127078414Y-81118852D01*
X127232228Y-81149448D01*
G37*
G36*
X142472228Y-81149448D02*
G01*
X142617117Y-81209463D01*
X142747515Y-81296592D01*
X142858408Y-81407485D01*
X142945537Y-81537883D01*
X143005552Y-81682772D01*
X143036148Y-81836586D01*
X143036148Y-81993414D01*
X143005552Y-82147228D01*
X142945537Y-82292117D01*
X142858408Y-82422515D01*
X142747515Y-82533408D01*
X142617117Y-82620537D01*
X142472228Y-82680552D01*
X142318414Y-82711148D01*
X142161586Y-82711148D01*
X142007772Y-82680552D01*
X141862883Y-82620537D01*
X141732485Y-82533408D01*
X141621592Y-82422515D01*
X141534463Y-82292117D01*
X141474448Y-82147228D01*
X141443852Y-81993414D01*
X141443852Y-81836586D01*
X141474448Y-81682772D01*
X141534463Y-81537883D01*
X141621592Y-81407485D01*
X141732485Y-81296592D01*
X141862883Y-81209463D01*
X142007772Y-81149448D01*
X142161586Y-81118852D01*
X142318414Y-81118852D01*
X142472228Y-81149448D01*
G37*
G36*
X94428000Y-82677000D02*
G01*
X92904000Y-82677000D01*
X92904000Y-81153000D01*
X94428000Y-81153000D01*
X94428000Y-82677000D01*
G37*
G36*
X96387197Y-81185811D02*
G01*
X96525204Y-81242976D01*
X96649408Y-81325966D01*
X96755034Y-81431592D01*
X96838024Y-81555796D01*
X96895189Y-81693803D01*
X96924331Y-81840311D01*
X96924331Y-81989689D01*
X96895189Y-82136197D01*
X96838024Y-82274204D01*
X96755034Y-82398408D01*
X96649408Y-82504034D01*
X96525204Y-82587024D01*
X96387197Y-82644189D01*
X96240689Y-82673331D01*
X96091311Y-82673331D01*
X95944803Y-82644189D01*
X95806796Y-82587024D01*
X95682592Y-82504034D01*
X95576966Y-82398408D01*
X95493976Y-82274204D01*
X95436811Y-82136197D01*
X95407669Y-81989689D01*
X95407669Y-81840311D01*
X95436811Y-81693803D01*
X95493976Y-81555796D01*
X95576966Y-81431592D01*
X95682592Y-81325966D01*
X95806796Y-81242976D01*
X95944803Y-81185811D01*
X96091311Y-81156669D01*
X96240689Y-81156669D01*
X96387197Y-81185811D01*
G37*
G36*
X98887197Y-81185811D02*
G01*
X99025204Y-81242976D01*
X99149408Y-81325966D01*
X99255034Y-81431592D01*
X99338024Y-81555796D01*
X99395189Y-81693803D01*
X99424331Y-81840311D01*
X99424331Y-81989689D01*
X99395189Y-82136197D01*
X99338024Y-82274204D01*
X99255034Y-82398408D01*
X99149408Y-82504034D01*
X99025204Y-82587024D01*
X98887197Y-82644189D01*
X98740689Y-82673331D01*
X98591311Y-82673331D01*
X98444803Y-82644189D01*
X98306796Y-82587024D01*
X98182592Y-82504034D01*
X98076966Y-82398408D01*
X97993976Y-82274204D01*
X97936811Y-82136197D01*
X97907669Y-81989689D01*
X97907669Y-81840311D01*
X97936811Y-81693803D01*
X97993976Y-81555796D01*
X98076966Y-81431592D01*
X98182592Y-81325966D01*
X98306796Y-81242976D01*
X98444803Y-81185811D01*
X98591311Y-81156669D01*
X98740689Y-81156669D01*
X98887197Y-81185811D01*
G37*
G36*
X101387197Y-81185811D02*
G01*
X101525204Y-81242976D01*
X101649408Y-81325966D01*
X101755034Y-81431592D01*
X101838024Y-81555796D01*
X101895189Y-81693803D01*
X101924331Y-81840311D01*
X101924331Y-81989689D01*
X101895189Y-82136197D01*
X101838024Y-82274204D01*
X101755034Y-82398408D01*
X101649408Y-82504034D01*
X101525204Y-82587024D01*
X101387197Y-82644189D01*
X101240689Y-82673331D01*
X101091311Y-82673331D01*
X100944803Y-82644189D01*
X100806796Y-82587024D01*
X100682592Y-82504034D01*
X100576966Y-82398408D01*
X100493976Y-82274204D01*
X100436811Y-82136197D01*
X100407669Y-81989689D01*
X100407669Y-81840311D01*
X100436811Y-81693803D01*
X100493976Y-81555796D01*
X100576966Y-81431592D01*
X100682592Y-81325966D01*
X100806796Y-81242976D01*
X100944803Y-81185811D01*
X101091311Y-81156669D01*
X101240689Y-81156669D01*
X101387197Y-81185811D01*
G37*
G36*
X103887197Y-81185811D02*
G01*
X104025204Y-81242976D01*
X104149408Y-81325966D01*
X104255034Y-81431592D01*
X104338024Y-81555796D01*
X104395189Y-81693803D01*
X104424331Y-81840311D01*
X104424331Y-81989689D01*
X104395189Y-82136197D01*
X104338024Y-82274204D01*
X104255034Y-82398408D01*
X104149408Y-82504034D01*
X104025204Y-82587024D01*
X103887197Y-82644189D01*
X103740689Y-82673331D01*
X103591311Y-82673331D01*
X103444803Y-82644189D01*
X103306796Y-82587024D01*
X103182592Y-82504034D01*
X103076966Y-82398408D01*
X102993976Y-82274204D01*
X102936811Y-82136197D01*
X102907669Y-81989689D01*
X102907669Y-81840311D01*
X102936811Y-81693803D01*
X102993976Y-81555796D01*
X103076966Y-81431592D01*
X103182592Y-81325966D01*
X103306796Y-81242976D01*
X103444803Y-81185811D01*
X103591311Y-81156669D01*
X103740689Y-81156669D01*
X103887197Y-81185811D01*
G37*
G36*
X127232228Y-78609448D02*
G01*
X127377117Y-78669463D01*
X127507515Y-78756592D01*
X127618408Y-78867485D01*
X127705537Y-78997883D01*
X127765552Y-79142772D01*
X127796148Y-79296586D01*
X127796148Y-79453414D01*
X127765552Y-79607228D01*
X127705537Y-79752117D01*
X127618408Y-79882515D01*
X127507515Y-79993408D01*
X127377117Y-80080537D01*
X127232228Y-80140552D01*
X127078414Y-80171148D01*
X126921586Y-80171148D01*
X126767772Y-80140552D01*
X126622883Y-80080537D01*
X126492485Y-79993408D01*
X126381592Y-79882515D01*
X126294463Y-79752117D01*
X126234448Y-79607228D01*
X126203852Y-79453414D01*
X126203852Y-79296586D01*
X126234448Y-79142772D01*
X126294463Y-78997883D01*
X126381592Y-78867485D01*
X126492485Y-78756592D01*
X126622883Y-78669463D01*
X126767772Y-78609448D01*
X126921586Y-78578852D01*
X127078414Y-78578852D01*
X127232228Y-78609448D01*
G37*
G36*
X142472228Y-78609448D02*
G01*
X142617117Y-78669463D01*
X142747515Y-78756592D01*
X142858408Y-78867485D01*
X142945537Y-78997883D01*
X143005552Y-79142772D01*
X143036148Y-79296586D01*
X143036148Y-79453414D01*
X143005552Y-79607228D01*
X142945537Y-79752117D01*
X142858408Y-79882515D01*
X142747515Y-79993408D01*
X142617117Y-80080537D01*
X142472228Y-80140552D01*
X142318414Y-80171148D01*
X142161586Y-80171148D01*
X142007772Y-80140552D01*
X141862883Y-80080537D01*
X141732485Y-79993408D01*
X141621592Y-79882515D01*
X141534463Y-79752117D01*
X141474448Y-79607228D01*
X141443852Y-79453414D01*
X141443852Y-79296586D01*
X141474448Y-79142772D01*
X141534463Y-78997883D01*
X141621592Y-78867485D01*
X141732485Y-78756592D01*
X141862883Y-78669463D01*
X142007772Y-78609448D01*
X142161586Y-78578852D01*
X142318414Y-78578852D01*
X142472228Y-78609448D01*
G37*
G36*
X157712228Y-77974448D02*
G01*
X157857117Y-78034463D01*
X157987515Y-78121592D01*
X158098408Y-78232485D01*
X158185537Y-78362883D01*
X158245552Y-78507772D01*
X158276148Y-78661586D01*
X158276148Y-78818414D01*
X158245552Y-78972228D01*
X158185537Y-79117117D01*
X158098408Y-79247515D01*
X157987515Y-79358408D01*
X157857117Y-79445537D01*
X157712228Y-79505552D01*
X157558414Y-79536148D01*
X157401586Y-79536148D01*
X157247772Y-79505552D01*
X157102883Y-79445537D01*
X156972485Y-79358408D01*
X156861592Y-79247515D01*
X156774463Y-79117117D01*
X156714448Y-78972228D01*
X156683852Y-78818414D01*
X156683852Y-78661586D01*
X156714448Y-78507772D01*
X156774463Y-78362883D01*
X156861592Y-78232485D01*
X156972485Y-78121592D01*
X157102883Y-78034463D01*
X157247772Y-77974448D01*
X157401586Y-77943852D01*
X157558414Y-77943852D01*
X157712228Y-77974448D01*
G37*
G36*
X150092228Y-76704448D02*
G01*
X150237117Y-76764463D01*
X150367515Y-76851592D01*
X150478408Y-76962485D01*
X150565537Y-77092883D01*
X150625552Y-77237772D01*
X150656148Y-77391586D01*
X150656148Y-77548414D01*
X150625552Y-77702228D01*
X150565537Y-77847117D01*
X150478408Y-77977515D01*
X150367515Y-78088408D01*
X150237117Y-78175537D01*
X150092228Y-78235552D01*
X149938414Y-78266148D01*
X149781586Y-78266148D01*
X149627772Y-78235552D01*
X149482883Y-78175537D01*
X149352485Y-78088408D01*
X149241592Y-77977515D01*
X149154463Y-77847117D01*
X149094448Y-77702228D01*
X149063852Y-77548414D01*
X149063852Y-77391586D01*
X149094448Y-77237772D01*
X149154463Y-77092883D01*
X149241592Y-76962485D01*
X149352485Y-76851592D01*
X149482883Y-76764463D01*
X149627772Y-76704448D01*
X149781586Y-76673852D01*
X149938414Y-76673852D01*
X150092228Y-76704448D01*
G37*
G36*
X127232228Y-76069448D02*
G01*
X127377117Y-76129463D01*
X127507515Y-76216592D01*
X127618408Y-76327485D01*
X127705537Y-76457883D01*
X127765552Y-76602772D01*
X127796148Y-76756586D01*
X127796148Y-76913414D01*
X127765552Y-77067228D01*
X127705537Y-77212117D01*
X127618408Y-77342515D01*
X127507515Y-77453408D01*
X127377117Y-77540537D01*
X127232228Y-77600552D01*
X127078414Y-77631148D01*
X126921586Y-77631148D01*
X126767772Y-77600552D01*
X126622883Y-77540537D01*
X126492485Y-77453408D01*
X126381592Y-77342515D01*
X126294463Y-77212117D01*
X126234448Y-77067228D01*
X126203852Y-76913414D01*
X126203852Y-76756586D01*
X126234448Y-76602772D01*
X126294463Y-76457883D01*
X126381592Y-76327485D01*
X126492485Y-76216592D01*
X126622883Y-76129463D01*
X126767772Y-76069448D01*
X126921586Y-76038852D01*
X127078414Y-76038852D01*
X127232228Y-76069448D01*
G37*
G36*
X142472228Y-76069448D02*
G01*
X142617117Y-76129463D01*
X142747515Y-76216592D01*
X142858408Y-76327485D01*
X142945537Y-76457883D01*
X143005552Y-76602772D01*
X143036148Y-76756586D01*
X143036148Y-76913414D01*
X143005552Y-77067228D01*
X142945537Y-77212117D01*
X142858408Y-77342515D01*
X142747515Y-77453408D01*
X142617117Y-77540537D01*
X142472228Y-77600552D01*
X142318414Y-77631148D01*
X142161586Y-77631148D01*
X142007772Y-77600552D01*
X141862883Y-77540537D01*
X141732485Y-77453408D01*
X141621592Y-77342515D01*
X141534463Y-77212117D01*
X141474448Y-77067228D01*
X141443852Y-76913414D01*
X141443852Y-76756586D01*
X141474448Y-76602772D01*
X141534463Y-76457883D01*
X141621592Y-76327485D01*
X141732485Y-76216592D01*
X141862883Y-76129463D01*
X142007772Y-76069448D01*
X142161586Y-76038852D01*
X142318414Y-76038852D01*
X142472228Y-76069448D01*
G37*
G36*
X164120285Y-75243060D02*
G01*
X164301397Y-75318079D01*
X164464393Y-75426990D01*
X164603010Y-75565607D01*
X164711921Y-75728603D01*
X164786940Y-75909715D01*
X164825185Y-76101983D01*
X164825185Y-76298017D01*
X164786940Y-76490285D01*
X164711921Y-76671397D01*
X164603010Y-76834393D01*
X164464393Y-76973010D01*
X164301397Y-77081921D01*
X164120285Y-77156940D01*
X163928017Y-77195185D01*
X163731983Y-77195185D01*
X163539715Y-77156940D01*
X163358603Y-77081921D01*
X163195607Y-76973010D01*
X163056990Y-76834393D01*
X162948079Y-76671397D01*
X162873060Y-76490285D01*
X162834815Y-76298017D01*
X162834815Y-76101983D01*
X162873060Y-75909715D01*
X162948079Y-75728603D01*
X163056990Y-75565607D01*
X163195607Y-75426990D01*
X163358603Y-75318079D01*
X163539715Y-75243060D01*
X163731983Y-75204815D01*
X163928017Y-75204815D01*
X164120285Y-75243060D01*
G37*
G36*
X170620285Y-75243060D02*
G01*
X170801397Y-75318079D01*
X170964393Y-75426990D01*
X171103010Y-75565607D01*
X171211921Y-75728603D01*
X171286940Y-75909715D01*
X171325185Y-76101983D01*
X171325185Y-76298017D01*
X171286940Y-76490285D01*
X171211921Y-76671397D01*
X171103010Y-76834393D01*
X170964393Y-76973010D01*
X170801397Y-77081921D01*
X170620285Y-77156940D01*
X170428017Y-77195185D01*
X170231983Y-77195185D01*
X170039715Y-77156940D01*
X169858603Y-77081921D01*
X169695607Y-76973010D01*
X169556990Y-76834393D01*
X169448079Y-76671397D01*
X169373060Y-76490285D01*
X169334815Y-76298017D01*
X169334815Y-76101983D01*
X169373060Y-75909715D01*
X169448079Y-75728603D01*
X169556990Y-75565607D01*
X169695607Y-75426990D01*
X169858603Y-75318079D01*
X170039715Y-75243060D01*
X170231983Y-75204815D01*
X170428017Y-75204815D01*
X170620285Y-75243060D01*
G37*
G36*
X127232228Y-73529448D02*
G01*
X127377117Y-73589463D01*
X127507515Y-73676592D01*
X127618408Y-73787485D01*
X127705537Y-73917883D01*
X127765552Y-74062772D01*
X127796148Y-74216586D01*
X127796148Y-74373414D01*
X127765552Y-74527228D01*
X127705537Y-74672117D01*
X127618408Y-74802515D01*
X127507515Y-74913408D01*
X127377117Y-75000537D01*
X127232228Y-75060552D01*
X127078414Y-75091148D01*
X126921586Y-75091148D01*
X126767772Y-75060552D01*
X126622883Y-75000537D01*
X126492485Y-74913408D01*
X126381592Y-74802515D01*
X126294463Y-74672117D01*
X126234448Y-74527228D01*
X126203852Y-74373414D01*
X126203852Y-74216586D01*
X126234448Y-74062772D01*
X126294463Y-73917883D01*
X126381592Y-73787485D01*
X126492485Y-73676592D01*
X126622883Y-73589463D01*
X126767772Y-73529448D01*
X126921586Y-73498852D01*
X127078414Y-73498852D01*
X127232228Y-73529448D01*
G37*
G36*
X142472228Y-73529448D02*
G01*
X142617117Y-73589463D01*
X142747515Y-73676592D01*
X142858408Y-73787485D01*
X142945537Y-73917883D01*
X143005552Y-74062772D01*
X143036148Y-74216586D01*
X143036148Y-74373414D01*
X143005552Y-74527228D01*
X142945537Y-74672117D01*
X142858408Y-74802515D01*
X142747515Y-74913408D01*
X142617117Y-75000537D01*
X142472228Y-75060552D01*
X142318414Y-75091148D01*
X142161586Y-75091148D01*
X142007772Y-75060552D01*
X141862883Y-75000537D01*
X141732485Y-74913408D01*
X141621592Y-74802515D01*
X141534463Y-74672117D01*
X141474448Y-74527228D01*
X141443852Y-74373414D01*
X141443852Y-74216586D01*
X141474448Y-74062772D01*
X141534463Y-73917883D01*
X141621592Y-73787485D01*
X141732485Y-73676592D01*
X141862883Y-73589463D01*
X142007772Y-73529448D01*
X142161586Y-73498852D01*
X142318414Y-73498852D01*
X142472228Y-73529448D01*
G37*
G36*
X150092228Y-71704448D02*
G01*
X150237117Y-71764463D01*
X150367515Y-71851592D01*
X150478408Y-71962485D01*
X150565537Y-72092883D01*
X150625552Y-72237772D01*
X150656148Y-72391586D01*
X150656148Y-72548414D01*
X150625552Y-72702228D01*
X150565537Y-72847117D01*
X150478408Y-72977515D01*
X150367515Y-73088408D01*
X150237117Y-73175537D01*
X150092228Y-73235552D01*
X149938414Y-73266148D01*
X149781586Y-73266148D01*
X149627772Y-73235552D01*
X149482883Y-73175537D01*
X149352485Y-73088408D01*
X149241592Y-72977515D01*
X149154463Y-72847117D01*
X149094448Y-72702228D01*
X149063852Y-72548414D01*
X149063852Y-72391586D01*
X149094448Y-72237772D01*
X149154463Y-72092883D01*
X149241592Y-71962485D01*
X149352485Y-71851592D01*
X149482883Y-71764463D01*
X149627772Y-71704448D01*
X149781586Y-71673852D01*
X149938414Y-71673852D01*
X150092228Y-71704448D01*
G37*
G36*
X164120285Y-70743060D02*
G01*
X164301397Y-70818079D01*
X164464393Y-70926990D01*
X164603010Y-71065607D01*
X164711921Y-71228603D01*
X164786940Y-71409715D01*
X164825185Y-71601983D01*
X164825185Y-71798017D01*
X164786940Y-71990285D01*
X164711921Y-72171397D01*
X164603010Y-72334393D01*
X164464393Y-72473010D01*
X164301397Y-72581921D01*
X164120285Y-72656940D01*
X163928017Y-72695185D01*
X163731983Y-72695185D01*
X163539715Y-72656940D01*
X163358603Y-72581921D01*
X163195607Y-72473010D01*
X163056990Y-72334393D01*
X162948079Y-72171397D01*
X162873060Y-71990285D01*
X162834815Y-71798017D01*
X162834815Y-71601983D01*
X162873060Y-71409715D01*
X162948079Y-71228603D01*
X163056990Y-71065607D01*
X163195607Y-70926990D01*
X163358603Y-70818079D01*
X163539715Y-70743060D01*
X163731983Y-70704815D01*
X163928017Y-70704815D01*
X164120285Y-70743060D01*
G37*
G36*
X170620285Y-70743060D02*
G01*
X170801397Y-70818079D01*
X170964393Y-70926990D01*
X171103010Y-71065607D01*
X171211921Y-71228603D01*
X171286940Y-71409715D01*
X171325185Y-71601983D01*
X171325185Y-71798017D01*
X171286940Y-71990285D01*
X171211921Y-72171397D01*
X171103010Y-72334393D01*
X170964393Y-72473010D01*
X170801397Y-72581921D01*
X170620285Y-72656940D01*
X170428017Y-72695185D01*
X170231983Y-72695185D01*
X170039715Y-72656940D01*
X169858603Y-72581921D01*
X169695607Y-72473010D01*
X169556990Y-72334393D01*
X169448079Y-72171397D01*
X169373060Y-71990285D01*
X169334815Y-71798017D01*
X169334815Y-71601983D01*
X169373060Y-71409715D01*
X169448079Y-71228603D01*
X169556990Y-71065607D01*
X169695607Y-70926990D01*
X169858603Y-70818079D01*
X170039715Y-70743060D01*
X170231983Y-70704815D01*
X170428017Y-70704815D01*
X170620285Y-70743060D01*
G37*
G36*
X127232228Y-70989448D02*
G01*
X127377117Y-71049463D01*
X127507515Y-71136592D01*
X127618408Y-71247485D01*
X127705537Y-71377883D01*
X127765552Y-71522772D01*
X127796148Y-71676586D01*
X127796148Y-71833414D01*
X127765552Y-71987228D01*
X127705537Y-72132117D01*
X127618408Y-72262515D01*
X127507515Y-72373408D01*
X127377117Y-72460537D01*
X127232228Y-72520552D01*
X127078414Y-72551148D01*
X126921586Y-72551148D01*
X126767772Y-72520552D01*
X126622883Y-72460537D01*
X126492485Y-72373408D01*
X126381592Y-72262515D01*
X126294463Y-72132117D01*
X126234448Y-71987228D01*
X126203852Y-71833414D01*
X126203852Y-71676586D01*
X126234448Y-71522772D01*
X126294463Y-71377883D01*
X126381592Y-71247485D01*
X126492485Y-71136592D01*
X126622883Y-71049463D01*
X126767772Y-70989448D01*
X126921586Y-70958852D01*
X127078414Y-70958852D01*
X127232228Y-70989448D01*
G37*
G36*
X142472228Y-70989448D02*
G01*
X142617117Y-71049463D01*
X142747515Y-71136592D01*
X142858408Y-71247485D01*
X142945537Y-71377883D01*
X143005552Y-71522772D01*
X143036148Y-71676586D01*
X143036148Y-71833414D01*
X143005552Y-71987228D01*
X142945537Y-72132117D01*
X142858408Y-72262515D01*
X142747515Y-72373408D01*
X142617117Y-72460537D01*
X142472228Y-72520552D01*
X142318414Y-72551148D01*
X142161586Y-72551148D01*
X142007772Y-72520552D01*
X141862883Y-72460537D01*
X141732485Y-72373408D01*
X141621592Y-72262515D01*
X141534463Y-72132117D01*
X141474448Y-71987228D01*
X141443852Y-71833414D01*
X141443852Y-71676586D01*
X141474448Y-71522772D01*
X141534463Y-71377883D01*
X141621592Y-71247485D01*
X141732485Y-71136592D01*
X141862883Y-71049463D01*
X142007772Y-70989448D01*
X142161586Y-70958852D01*
X142318414Y-70958852D01*
X142472228Y-70989448D01*
G37*
G36*
X157712228Y-70354448D02*
G01*
X157857117Y-70414463D01*
X157987515Y-70501592D01*
X158098408Y-70612485D01*
X158185537Y-70742883D01*
X158245552Y-70887772D01*
X158276148Y-71041586D01*
X158276148Y-71198414D01*
X158245552Y-71352228D01*
X158185537Y-71497117D01*
X158098408Y-71627515D01*
X157987515Y-71738408D01*
X157857117Y-71825537D01*
X157712228Y-71885552D01*
X157558414Y-71916148D01*
X157401586Y-71916148D01*
X157247772Y-71885552D01*
X157102883Y-71825537D01*
X156972485Y-71738408D01*
X156861592Y-71627515D01*
X156774463Y-71497117D01*
X156714448Y-71352228D01*
X156683852Y-71198414D01*
X156683852Y-71041586D01*
X156714448Y-70887772D01*
X156774463Y-70742883D01*
X156861592Y-70612485D01*
X156972485Y-70501592D01*
X157102883Y-70414463D01*
X157247772Y-70354448D01*
X157401586Y-70323852D01*
X157558414Y-70323852D01*
X157712228Y-70354448D01*
G37*
G36*
X127232228Y-68449448D02*
G01*
X127377117Y-68509463D01*
X127507515Y-68596592D01*
X127618408Y-68707485D01*
X127705537Y-68837883D01*
X127765552Y-68982772D01*
X127796148Y-69136586D01*
X127796148Y-69293414D01*
X127765552Y-69447228D01*
X127705537Y-69592117D01*
X127618408Y-69722515D01*
X127507515Y-69833408D01*
X127377117Y-69920537D01*
X127232228Y-69980552D01*
X127078414Y-70011148D01*
X126921586Y-70011148D01*
X126767772Y-69980552D01*
X126622883Y-69920537D01*
X126492485Y-69833408D01*
X126381592Y-69722515D01*
X126294463Y-69592117D01*
X126234448Y-69447228D01*
X126203852Y-69293414D01*
X126203852Y-69136586D01*
X126234448Y-68982772D01*
X126294463Y-68837883D01*
X126381592Y-68707485D01*
X126492485Y-68596592D01*
X126622883Y-68509463D01*
X126767772Y-68449448D01*
X126921586Y-68418852D01*
X127078414Y-68418852D01*
X127232228Y-68449448D01*
G37*
G36*
X142472228Y-68449448D02*
G01*
X142617117Y-68509463D01*
X142747515Y-68596592D01*
X142858408Y-68707485D01*
X142945537Y-68837883D01*
X143005552Y-68982772D01*
X143036148Y-69136586D01*
X143036148Y-69293414D01*
X143005552Y-69447228D01*
X142945537Y-69592117D01*
X142858408Y-69722515D01*
X142747515Y-69833408D01*
X142617117Y-69920537D01*
X142472228Y-69980552D01*
X142318414Y-70011148D01*
X142161586Y-70011148D01*
X142007772Y-69980552D01*
X141862883Y-69920537D01*
X141732485Y-69833408D01*
X141621592Y-69722515D01*
X141534463Y-69592117D01*
X141474448Y-69447228D01*
X141443852Y-69293414D01*
X141443852Y-69136586D01*
X141474448Y-68982772D01*
X141534463Y-68837883D01*
X141621592Y-68707485D01*
X141732485Y-68596592D01*
X141862883Y-68509463D01*
X142007772Y-68449448D01*
X142161586Y-68418852D01*
X142318414Y-68418852D01*
X142472228Y-68449448D01*
G37*
G36*
X127232228Y-65909448D02*
G01*
X127377117Y-65969463D01*
X127507515Y-66056592D01*
X127618408Y-66167485D01*
X127705537Y-66297883D01*
X127765552Y-66442772D01*
X127796148Y-66596586D01*
X127796148Y-66753414D01*
X127765552Y-66907228D01*
X127705537Y-67052117D01*
X127618408Y-67182515D01*
X127507515Y-67293408D01*
X127377117Y-67380537D01*
X127232228Y-67440552D01*
X127078414Y-67471148D01*
X126921586Y-67471148D01*
X126767772Y-67440552D01*
X126622883Y-67380537D01*
X126492485Y-67293408D01*
X126381592Y-67182515D01*
X126294463Y-67052117D01*
X126234448Y-66907228D01*
X126203852Y-66753414D01*
X126203852Y-66596586D01*
X126234448Y-66442772D01*
X126294463Y-66297883D01*
X126381592Y-66167485D01*
X126492485Y-66056592D01*
X126622883Y-65969463D01*
X126767772Y-65909448D01*
X126921586Y-65878852D01*
X127078414Y-65878852D01*
X127232228Y-65909448D01*
G37*
G36*
X142472228Y-65909448D02*
G01*
X142617117Y-65969463D01*
X142747515Y-66056592D01*
X142858408Y-66167485D01*
X142945537Y-66297883D01*
X143005552Y-66442772D01*
X143036148Y-66596586D01*
X143036148Y-66753414D01*
X143005552Y-66907228D01*
X142945537Y-67052117D01*
X142858408Y-67182515D01*
X142747515Y-67293408D01*
X142617117Y-67380537D01*
X142472228Y-67440552D01*
X142318414Y-67471148D01*
X142161586Y-67471148D01*
X142007772Y-67440552D01*
X141862883Y-67380537D01*
X141732485Y-67293408D01*
X141621592Y-67182515D01*
X141534463Y-67052117D01*
X141474448Y-66907228D01*
X141443852Y-66753414D01*
X141443852Y-66596586D01*
X141474448Y-66442772D01*
X141534463Y-66297883D01*
X141621592Y-66167485D01*
X141732485Y-66056592D01*
X141862883Y-65969463D01*
X142007772Y-65909448D01*
X142161586Y-65878852D01*
X142318414Y-65878852D01*
X142472228Y-65909448D01*
G37*
G36*
X157562228Y-64584448D02*
G01*
X157707117Y-64644463D01*
X157837515Y-64731592D01*
X157948408Y-64842485D01*
X158035537Y-64972883D01*
X158095552Y-65117772D01*
X158126148Y-65271586D01*
X158126148Y-65428414D01*
X158095552Y-65582228D01*
X158035537Y-65727117D01*
X157948408Y-65857515D01*
X157837515Y-65968408D01*
X157707117Y-66055537D01*
X157562228Y-66115552D01*
X157408414Y-66146148D01*
X157251586Y-66146148D01*
X157097772Y-66115552D01*
X156952883Y-66055537D01*
X156822485Y-65968408D01*
X156711592Y-65857515D01*
X156624463Y-65727117D01*
X156564448Y-65582228D01*
X156533852Y-65428414D01*
X156533852Y-65271586D01*
X156564448Y-65117772D01*
X156624463Y-64972883D01*
X156711592Y-64842485D01*
X156822485Y-64731592D01*
X156952883Y-64644463D01*
X157097772Y-64584448D01*
X157251586Y-64553852D01*
X157408414Y-64553852D01*
X157562228Y-64584448D01*
G37*
G36*
X127232228Y-63369448D02*
G01*
X127377117Y-63429463D01*
X127507515Y-63516592D01*
X127618408Y-63627485D01*
X127705537Y-63757883D01*
X127765552Y-63902772D01*
X127796148Y-64056586D01*
X127796148Y-64213414D01*
X127765552Y-64367228D01*
X127705537Y-64512117D01*
X127618408Y-64642515D01*
X127507515Y-64753408D01*
X127377117Y-64840537D01*
X127232228Y-64900552D01*
X127078414Y-64931148D01*
X126921586Y-64931148D01*
X126767772Y-64900552D01*
X126622883Y-64840537D01*
X126492485Y-64753408D01*
X126381592Y-64642515D01*
X126294463Y-64512117D01*
X126234448Y-64367228D01*
X126203852Y-64213414D01*
X126203852Y-64056586D01*
X126234448Y-63902772D01*
X126294463Y-63757883D01*
X126381592Y-63627485D01*
X126492485Y-63516592D01*
X126622883Y-63429463D01*
X126767772Y-63369448D01*
X126921586Y-63338852D01*
X127078414Y-63338852D01*
X127232228Y-63369448D01*
G37*
G36*
X142472228Y-63369448D02*
G01*
X142617117Y-63429463D01*
X142747515Y-63516592D01*
X142858408Y-63627485D01*
X142945537Y-63757883D01*
X143005552Y-63902772D01*
X143036148Y-64056586D01*
X143036148Y-64213414D01*
X143005552Y-64367228D01*
X142945537Y-64512117D01*
X142858408Y-64642515D01*
X142747515Y-64753408D01*
X142617117Y-64840537D01*
X142472228Y-64900552D01*
X142318414Y-64931148D01*
X142161586Y-64931148D01*
X142007772Y-64900552D01*
X141862883Y-64840537D01*
X141732485Y-64753408D01*
X141621592Y-64642515D01*
X141534463Y-64512117D01*
X141474448Y-64367228D01*
X141443852Y-64213414D01*
X141443852Y-64056586D01*
X141474448Y-63902772D01*
X141534463Y-63757883D01*
X141621592Y-63627485D01*
X141732485Y-63516592D01*
X141862883Y-63429463D01*
X142007772Y-63369448D01*
X142161586Y-63338852D01*
X142318414Y-63338852D01*
X142472228Y-63369448D01*
G37*
G36*
X149942228Y-63274448D02*
G01*
X150087117Y-63334463D01*
X150217515Y-63421592D01*
X150328408Y-63532485D01*
X150415537Y-63662883D01*
X150475552Y-63807772D01*
X150506148Y-63961586D01*
X150506148Y-64118414D01*
X150475552Y-64272228D01*
X150415537Y-64417117D01*
X150328408Y-64547515D01*
X150217515Y-64658408D01*
X150087117Y-64745537D01*
X149942228Y-64805552D01*
X149788414Y-64836148D01*
X149631586Y-64836148D01*
X149477772Y-64805552D01*
X149332883Y-64745537D01*
X149202485Y-64658408D01*
X149091592Y-64547515D01*
X149004463Y-64417117D01*
X148944448Y-64272228D01*
X148913852Y-64118414D01*
X148913852Y-63961586D01*
X148944448Y-63807772D01*
X149004463Y-63662883D01*
X149091592Y-63532485D01*
X149202485Y-63421592D01*
X149332883Y-63334463D01*
X149477772Y-63274448D01*
X149631586Y-63243852D01*
X149788414Y-63243852D01*
X149942228Y-63274448D01*
G37*
G36*
X163970285Y-62543060D02*
G01*
X164151397Y-62618079D01*
X164314393Y-62726990D01*
X164453010Y-62865607D01*
X164561921Y-63028603D01*
X164636940Y-63209715D01*
X164675185Y-63401983D01*
X164675185Y-63598017D01*
X164636940Y-63790285D01*
X164561921Y-63971397D01*
X164453010Y-64134393D01*
X164314393Y-64273010D01*
X164151397Y-64381921D01*
X163970285Y-64456940D01*
X163778017Y-64495185D01*
X163581983Y-64495185D01*
X163389715Y-64456940D01*
X163208603Y-64381921D01*
X163045607Y-64273010D01*
X162906990Y-64134393D01*
X162798079Y-63971397D01*
X162723060Y-63790285D01*
X162684815Y-63598017D01*
X162684815Y-63401983D01*
X162723060Y-63209715D01*
X162798079Y-63028603D01*
X162906990Y-62865607D01*
X163045607Y-62726990D01*
X163208603Y-62618079D01*
X163389715Y-62543060D01*
X163581983Y-62504815D01*
X163778017Y-62504815D01*
X163970285Y-62543060D01*
G37*
G36*
X170470285Y-62543060D02*
G01*
X170651397Y-62618079D01*
X170814393Y-62726990D01*
X170953010Y-62865607D01*
X171061921Y-63028603D01*
X171136940Y-63209715D01*
X171175185Y-63401983D01*
X171175185Y-63598017D01*
X171136940Y-63790285D01*
X171061921Y-63971397D01*
X170953010Y-64134393D01*
X170814393Y-64273010D01*
X170651397Y-64381921D01*
X170470285Y-64456940D01*
X170278017Y-64495185D01*
X170081983Y-64495185D01*
X169889715Y-64456940D01*
X169708603Y-64381921D01*
X169545607Y-64273010D01*
X169406990Y-64134393D01*
X169298079Y-63971397D01*
X169223060Y-63790285D01*
X169184815Y-63598017D01*
X169184815Y-63401983D01*
X169223060Y-63209715D01*
X169298079Y-63028603D01*
X169406990Y-62865607D01*
X169545607Y-62726990D01*
X169708603Y-62618079D01*
X169889715Y-62543060D01*
X170081983Y-62504815D01*
X170278017Y-62504815D01*
X170470285Y-62543060D01*
G37*
G36*
X127232228Y-60829448D02*
G01*
X127377117Y-60889463D01*
X127507515Y-60976592D01*
X127618408Y-61087485D01*
X127705537Y-61217883D01*
X127765552Y-61362772D01*
X127796148Y-61516586D01*
X127796148Y-61673414D01*
X127765552Y-61827228D01*
X127705537Y-61972117D01*
X127618408Y-62102515D01*
X127507515Y-62213408D01*
X127377117Y-62300537D01*
X127232228Y-62360552D01*
X127078414Y-62391148D01*
X126921586Y-62391148D01*
X126767772Y-62360552D01*
X126622883Y-62300537D01*
X126492485Y-62213408D01*
X126381592Y-62102515D01*
X126294463Y-61972117D01*
X126234448Y-61827228D01*
X126203852Y-61673414D01*
X126203852Y-61516586D01*
X126234448Y-61362772D01*
X126294463Y-61217883D01*
X126381592Y-61087485D01*
X126492485Y-60976592D01*
X126622883Y-60889463D01*
X126767772Y-60829448D01*
X126921586Y-60798852D01*
X127078414Y-60798852D01*
X127232228Y-60829448D01*
G37*
G36*
X142472228Y-60829448D02*
G01*
X142617117Y-60889463D01*
X142747515Y-60976592D01*
X142858408Y-61087485D01*
X142945537Y-61217883D01*
X143005552Y-61362772D01*
X143036148Y-61516586D01*
X143036148Y-61673414D01*
X143005552Y-61827228D01*
X142945537Y-61972117D01*
X142858408Y-62102515D01*
X142747515Y-62213408D01*
X142617117Y-62300537D01*
X142472228Y-62360552D01*
X142318414Y-62391148D01*
X142161586Y-62391148D01*
X142007772Y-62360552D01*
X141862883Y-62300537D01*
X141732485Y-62213408D01*
X141621592Y-62102515D01*
X141534463Y-61972117D01*
X141474448Y-61827228D01*
X141443852Y-61673414D01*
X141443852Y-61516586D01*
X141474448Y-61362772D01*
X141534463Y-61217883D01*
X141621592Y-61087485D01*
X141732485Y-60976592D01*
X141862883Y-60889463D01*
X142007772Y-60829448D01*
X142161586Y-60798852D01*
X142318414Y-60798852D01*
X142472228Y-60829448D01*
G37*
G36*
X163970285Y-58043060D02*
G01*
X164151397Y-58118079D01*
X164314393Y-58226990D01*
X164453010Y-58365607D01*
X164561921Y-58528603D01*
X164636940Y-58709715D01*
X164675185Y-58901983D01*
X164675185Y-59098017D01*
X164636940Y-59290285D01*
X164561921Y-59471397D01*
X164453010Y-59634393D01*
X164314393Y-59773010D01*
X164151397Y-59881921D01*
X163970285Y-59956940D01*
X163778017Y-59995185D01*
X163581983Y-59995185D01*
X163389715Y-59956940D01*
X163208603Y-59881921D01*
X163045607Y-59773010D01*
X162906990Y-59634393D01*
X162798079Y-59471397D01*
X162723060Y-59290285D01*
X162684815Y-59098017D01*
X162684815Y-58901983D01*
X162723060Y-58709715D01*
X162798079Y-58528603D01*
X162906990Y-58365607D01*
X163045607Y-58226990D01*
X163208603Y-58118079D01*
X163389715Y-58043060D01*
X163581983Y-58004815D01*
X163778017Y-58004815D01*
X163970285Y-58043060D01*
G37*
G36*
X170470285Y-58043060D02*
G01*
X170651397Y-58118079D01*
X170814393Y-58226990D01*
X170953010Y-58365607D01*
X171061921Y-58528603D01*
X171136940Y-58709715D01*
X171175185Y-58901983D01*
X171175185Y-59098017D01*
X171136940Y-59290285D01*
X171061921Y-59471397D01*
X170953010Y-59634393D01*
X170814393Y-59773010D01*
X170651397Y-59881921D01*
X170470285Y-59956940D01*
X170278017Y-59995185D01*
X170081983Y-59995185D01*
X169889715Y-59956940D01*
X169708603Y-59881921D01*
X169545607Y-59773010D01*
X169406990Y-59634393D01*
X169298079Y-59471397D01*
X169223060Y-59290285D01*
X169184815Y-59098017D01*
X169184815Y-58901983D01*
X169223060Y-58709715D01*
X169298079Y-58528603D01*
X169406990Y-58365607D01*
X169545607Y-58226990D01*
X169708603Y-58118079D01*
X169889715Y-58043060D01*
X170081983Y-58004815D01*
X170278017Y-58004815D01*
X170470285Y-58043060D01*
G37*
G36*
X127232228Y-58289448D02*
G01*
X127377117Y-58349463D01*
X127507515Y-58436592D01*
X127618408Y-58547485D01*
X127705537Y-58677883D01*
X127765552Y-58822772D01*
X127796148Y-58976586D01*
X127796148Y-59133414D01*
X127765552Y-59287228D01*
X127705537Y-59432117D01*
X127618408Y-59562515D01*
X127507515Y-59673408D01*
X127377117Y-59760537D01*
X127232228Y-59820552D01*
X127078414Y-59851148D01*
X126921586Y-59851148D01*
X126767772Y-59820552D01*
X126622883Y-59760537D01*
X126492485Y-59673408D01*
X126381592Y-59562515D01*
X126294463Y-59432117D01*
X126234448Y-59287228D01*
X126203852Y-59133414D01*
X126203852Y-58976586D01*
X126234448Y-58822772D01*
X126294463Y-58677883D01*
X126381592Y-58547485D01*
X126492485Y-58436592D01*
X126622883Y-58349463D01*
X126767772Y-58289448D01*
X126921586Y-58258852D01*
X127078414Y-58258852D01*
X127232228Y-58289448D01*
G37*
G36*
X142472228Y-58289448D02*
G01*
X142617117Y-58349463D01*
X142747515Y-58436592D01*
X142858408Y-58547485D01*
X142945537Y-58677883D01*
X143005552Y-58822772D01*
X143036148Y-58976586D01*
X143036148Y-59133414D01*
X143005552Y-59287228D01*
X142945537Y-59432117D01*
X142858408Y-59562515D01*
X142747515Y-59673408D01*
X142617117Y-59760537D01*
X142472228Y-59820552D01*
X142318414Y-59851148D01*
X142161586Y-59851148D01*
X142007772Y-59820552D01*
X141862883Y-59760537D01*
X141732485Y-59673408D01*
X141621592Y-59562515D01*
X141534463Y-59432117D01*
X141474448Y-59287228D01*
X141443852Y-59133414D01*
X141443852Y-58976586D01*
X141474448Y-58822772D01*
X141534463Y-58677883D01*
X141621592Y-58547485D01*
X141732485Y-58436592D01*
X141862883Y-58349463D01*
X142007772Y-58289448D01*
X142161586Y-58258852D01*
X142318414Y-58258852D01*
X142472228Y-58289448D01*
G37*
G36*
X149942228Y-58274448D02*
G01*
X150087117Y-58334463D01*
X150217515Y-58421592D01*
X150328408Y-58532485D01*
X150415537Y-58662883D01*
X150475552Y-58807772D01*
X150506148Y-58961586D01*
X150506148Y-59118414D01*
X150475552Y-59272228D01*
X150415537Y-59417117D01*
X150328408Y-59547515D01*
X150217515Y-59658408D01*
X150087117Y-59745537D01*
X149942228Y-59805552D01*
X149788414Y-59836148D01*
X149631586Y-59836148D01*
X149477772Y-59805552D01*
X149332883Y-59745537D01*
X149202485Y-59658408D01*
X149091592Y-59547515D01*
X149004463Y-59417117D01*
X148944448Y-59272228D01*
X148913852Y-59118414D01*
X148913852Y-58961586D01*
X148944448Y-58807772D01*
X149004463Y-58662883D01*
X149091592Y-58532485D01*
X149202485Y-58421592D01*
X149332883Y-58334463D01*
X149477772Y-58274448D01*
X149631586Y-58243852D01*
X149788414Y-58243852D01*
X149942228Y-58274448D01*
G37*
G36*
X157562228Y-56964448D02*
G01*
X157707117Y-57024463D01*
X157837515Y-57111592D01*
X157948408Y-57222485D01*
X158035537Y-57352883D01*
X158095552Y-57497772D01*
X158126148Y-57651586D01*
X158126148Y-57808414D01*
X158095552Y-57962228D01*
X158035537Y-58107117D01*
X157948408Y-58237515D01*
X157837515Y-58348408D01*
X157707117Y-58435537D01*
X157562228Y-58495552D01*
X157408414Y-58526148D01*
X157251586Y-58526148D01*
X157097772Y-58495552D01*
X156952883Y-58435537D01*
X156822485Y-58348408D01*
X156711592Y-58237515D01*
X156624463Y-58107117D01*
X156564448Y-57962228D01*
X156533852Y-57808414D01*
X156533852Y-57651586D01*
X156564448Y-57497772D01*
X156624463Y-57352883D01*
X156711592Y-57222485D01*
X156822485Y-57111592D01*
X156952883Y-57024463D01*
X157097772Y-56964448D01*
X157251586Y-56933852D01*
X157408414Y-56933852D01*
X157562228Y-56964448D01*
G37*
G36*
X127232228Y-55749448D02*
G01*
X127377117Y-55809463D01*
X127507515Y-55896592D01*
X127618408Y-56007485D01*
X127705537Y-56137883D01*
X127765552Y-56282772D01*
X127796148Y-56436586D01*
X127796148Y-56593414D01*
X127765552Y-56747228D01*
X127705537Y-56892117D01*
X127618408Y-57022515D01*
X127507515Y-57133408D01*
X127377117Y-57220537D01*
X127232228Y-57280552D01*
X127078414Y-57311148D01*
X126921586Y-57311148D01*
X126767772Y-57280552D01*
X126622883Y-57220537D01*
X126492485Y-57133408D01*
X126381592Y-57022515D01*
X126294463Y-56892117D01*
X126234448Y-56747228D01*
X126203852Y-56593414D01*
X126203852Y-56436586D01*
X126234448Y-56282772D01*
X126294463Y-56137883D01*
X126381592Y-56007485D01*
X126492485Y-55896592D01*
X126622883Y-55809463D01*
X126767772Y-55749448D01*
X126921586Y-55718852D01*
X127078414Y-55718852D01*
X127232228Y-55749448D01*
G37*
G36*
X142472228Y-55749448D02*
G01*
X142617117Y-55809463D01*
X142747515Y-55896592D01*
X142858408Y-56007485D01*
X142945537Y-56137883D01*
X143005552Y-56282772D01*
X143036148Y-56436586D01*
X143036148Y-56593414D01*
X143005552Y-56747228D01*
X142945537Y-56892117D01*
X142858408Y-57022515D01*
X142747515Y-57133408D01*
X142617117Y-57220537D01*
X142472228Y-57280552D01*
X142318414Y-57311148D01*
X142161586Y-57311148D01*
X142007772Y-57280552D01*
X141862883Y-57220537D01*
X141732485Y-57133408D01*
X141621592Y-57022515D01*
X141534463Y-56892117D01*
X141474448Y-56747228D01*
X141443852Y-56593414D01*
X141443852Y-56436586D01*
X141474448Y-56282772D01*
X141534463Y-56137883D01*
X141621592Y-56007485D01*
X141732485Y-55896592D01*
X141862883Y-55809463D01*
X142007772Y-55749448D01*
X142161586Y-55718852D01*
X142318414Y-55718852D01*
X142472228Y-55749448D01*
G37*
G36*
X127232228Y-53209448D02*
G01*
X127377117Y-53269463D01*
X127507515Y-53356592D01*
X127618408Y-53467485D01*
X127705537Y-53597883D01*
X127765552Y-53742772D01*
X127796148Y-53896586D01*
X127796148Y-54053414D01*
X127765552Y-54207228D01*
X127705537Y-54352117D01*
X127618408Y-54482515D01*
X127507515Y-54593408D01*
X127377117Y-54680537D01*
X127232228Y-54740552D01*
X127078414Y-54771148D01*
X126921586Y-54771148D01*
X126767772Y-54740552D01*
X126622883Y-54680537D01*
X126492485Y-54593408D01*
X126381592Y-54482515D01*
X126294463Y-54352117D01*
X126234448Y-54207228D01*
X126203852Y-54053414D01*
X126203852Y-53896586D01*
X126234448Y-53742772D01*
X126294463Y-53597883D01*
X126381592Y-53467485D01*
X126492485Y-53356592D01*
X126622883Y-53269463D01*
X126767772Y-53209448D01*
X126921586Y-53178852D01*
X127078414Y-53178852D01*
X127232228Y-53209448D01*
G37*
G36*
X142472228Y-53209448D02*
G01*
X142617117Y-53269463D01*
X142747515Y-53356592D01*
X142858408Y-53467485D01*
X142945537Y-53597883D01*
X143005552Y-53742772D01*
X143036148Y-53896586D01*
X143036148Y-54053414D01*
X143005552Y-54207228D01*
X142945537Y-54352117D01*
X142858408Y-54482515D01*
X142747515Y-54593408D01*
X142617117Y-54680537D01*
X142472228Y-54740552D01*
X142318414Y-54771148D01*
X142161586Y-54771148D01*
X142007772Y-54740552D01*
X141862883Y-54680537D01*
X141732485Y-54593408D01*
X141621592Y-54482515D01*
X141534463Y-54352117D01*
X141474448Y-54207228D01*
X141443852Y-54053414D01*
X141443852Y-53896586D01*
X141474448Y-53742772D01*
X141534463Y-53597883D01*
X141621592Y-53467485D01*
X141732485Y-53356592D01*
X141862883Y-53269463D01*
X142007772Y-53209448D01*
X142161586Y-53178852D01*
X142318414Y-53178852D01*
X142472228Y-53209448D01*
G37*
G36*
X168540000Y-52970000D02*
G01*
X166740000Y-52970000D01*
X166740000Y-51170000D01*
X168540000Y-51170000D01*
X168540000Y-52970000D01*
G37*
G36*
X151362228Y-50034448D02*
G01*
X151507117Y-50094463D01*
X151637515Y-50181592D01*
X151748408Y-50292485D01*
X151835537Y-50422883D01*
X151895552Y-50567772D01*
X151926148Y-50721586D01*
X151926148Y-50878414D01*
X151895552Y-51032228D01*
X151835537Y-51177117D01*
X151748408Y-51307515D01*
X151637515Y-51418408D01*
X151507117Y-51505537D01*
X151362228Y-51565552D01*
X151208414Y-51596148D01*
X151051586Y-51596148D01*
X150897772Y-51565552D01*
X150752883Y-51505537D01*
X150622485Y-51418408D01*
X150511592Y-51307515D01*
X150424463Y-51177117D01*
X150364448Y-51032228D01*
X150333852Y-50878414D01*
X150333852Y-50721586D01*
X150364448Y-50567772D01*
X150424463Y-50422883D01*
X150511592Y-50292485D01*
X150622485Y-50181592D01*
X150752883Y-50094463D01*
X150897772Y-50034448D01*
X151051586Y-50003852D01*
X151208414Y-50003852D01*
X151362228Y-50034448D01*
G37*
G36*
X158982228Y-50034448D02*
G01*
X159127117Y-50094463D01*
X159257515Y-50181592D01*
X159368408Y-50292485D01*
X159455537Y-50422883D01*
X159515552Y-50567772D01*
X159546148Y-50721586D01*
X159546148Y-50878414D01*
X159515552Y-51032228D01*
X159455537Y-51177117D01*
X159368408Y-51307515D01*
X159257515Y-51418408D01*
X159127117Y-51505537D01*
X158982228Y-51565552D01*
X158828414Y-51596148D01*
X158671586Y-51596148D01*
X158517772Y-51565552D01*
X158372883Y-51505537D01*
X158242485Y-51418408D01*
X158131592Y-51307515D01*
X158044463Y-51177117D01*
X157984448Y-51032228D01*
X157953852Y-50878414D01*
X157953852Y-50721586D01*
X157984448Y-50567772D01*
X158044463Y-50422883D01*
X158131592Y-50292485D01*
X158242485Y-50181592D01*
X158372883Y-50094463D01*
X158517772Y-50034448D01*
X158671586Y-50003852D01*
X158828414Y-50003852D01*
X158982228Y-50034448D01*
G37*
G36*
X101736000Y-50936000D02*
G01*
X100194000Y-50936000D01*
X100194000Y-49394000D01*
X101736000Y-49394000D01*
X101736000Y-50936000D01*
G37*
G36*
X103728809Y-49427199D02*
G01*
X103868447Y-49485039D01*
X103994117Y-49569009D01*
X104100991Y-49675883D01*
X104184961Y-49801553D01*
X104242801Y-49941191D01*
X104272287Y-50089429D01*
X104272287Y-50240571D01*
X104242801Y-50388809D01*
X104184961Y-50528447D01*
X104100991Y-50654117D01*
X103994117Y-50760991D01*
X103868447Y-50844961D01*
X103728809Y-50902801D01*
X103580571Y-50932287D01*
X103429429Y-50932287D01*
X103281191Y-50902801D01*
X103141553Y-50844961D01*
X103015883Y-50760991D01*
X102909009Y-50654117D01*
X102825039Y-50528447D01*
X102767199Y-50388809D01*
X102737713Y-50240571D01*
X102737713Y-50089429D01*
X102767199Y-49941191D01*
X102825039Y-49801553D01*
X102909009Y-49675883D01*
X103015883Y-49569009D01*
X103141553Y-49485039D01*
X103281191Y-49427199D01*
X103429429Y-49397713D01*
X103580571Y-49397713D01*
X103728809Y-49427199D01*
G37*
G36*
X106268809Y-49427199D02*
G01*
X106408447Y-49485039D01*
X106534117Y-49569009D01*
X106640991Y-49675883D01*
X106724961Y-49801553D01*
X106782801Y-49941191D01*
X106812287Y-50089429D01*
X106812287Y-50240571D01*
X106782801Y-50388809D01*
X106724961Y-50528447D01*
X106640991Y-50654117D01*
X106534117Y-50760991D01*
X106408447Y-50844961D01*
X106268809Y-50902801D01*
X106120571Y-50932287D01*
X105969429Y-50932287D01*
X105821191Y-50902801D01*
X105681553Y-50844961D01*
X105555883Y-50760991D01*
X105449009Y-50654117D01*
X105365039Y-50528447D01*
X105307199Y-50388809D01*
X105277713Y-50240571D01*
X105277713Y-50089429D01*
X105307199Y-49941191D01*
X105365039Y-49801553D01*
X105449009Y-49675883D01*
X105555883Y-49569009D01*
X105681553Y-49485039D01*
X105821191Y-49427199D01*
X105969429Y-49397713D01*
X106120571Y-49397713D01*
X106268809Y-49427199D01*
G37*
G36*
X108808809Y-49427199D02*
G01*
X108948447Y-49485039D01*
X109074117Y-49569009D01*
X109180991Y-49675883D01*
X109264961Y-49801553D01*
X109322801Y-49941191D01*
X109352287Y-50089429D01*
X109352287Y-50240571D01*
X109322801Y-50388809D01*
X109264961Y-50528447D01*
X109180991Y-50654117D01*
X109074117Y-50760991D01*
X108948447Y-50844961D01*
X108808809Y-50902801D01*
X108660571Y-50932287D01*
X108509429Y-50932287D01*
X108361191Y-50902801D01*
X108221553Y-50844961D01*
X108095883Y-50760991D01*
X107989009Y-50654117D01*
X107905039Y-50528447D01*
X107847199Y-50388809D01*
X107817713Y-50240571D01*
X107817713Y-50089429D01*
X107847199Y-49941191D01*
X107905039Y-49801553D01*
X107989009Y-49675883D01*
X108095883Y-49569009D01*
X108221553Y-49485039D01*
X108361191Y-49427199D01*
X108509429Y-49397713D01*
X108660571Y-49397713D01*
X108808809Y-49427199D01*
G37*
G36*
X167901256Y-48668754D02*
G01*
X168064257Y-48736271D01*
X168210954Y-48834291D01*
X168335709Y-48959046D01*
X168433729Y-49105743D01*
X168501246Y-49268744D01*
X168535666Y-49441785D01*
X168535666Y-49618215D01*
X168501246Y-49791256D01*
X168433729Y-49954257D01*
X168335709Y-50100954D01*
X168210954Y-50225709D01*
X168064257Y-50323729D01*
X167901256Y-50391246D01*
X167728215Y-50425666D01*
X167551785Y-50425666D01*
X167378744Y-50391246D01*
X167215743Y-50323729D01*
X167069046Y-50225709D01*
X166944291Y-50100954D01*
X166846271Y-49954257D01*
X166778754Y-49791256D01*
X166744334Y-49618215D01*
X166744334Y-49441785D01*
X166778754Y-49268744D01*
X166846271Y-49105743D01*
X166944291Y-48959046D01*
X167069046Y-48834291D01*
X167215743Y-48736271D01*
X167378744Y-48668754D01*
X167551785Y-48634334D01*
X167728215Y-48634334D01*
X167901256Y-48668754D01*
G37*
M02*
