%TF.GenerationSoftware,KiCad,Pcbnew,9.0.7*%
%TF.CreationDate,2026-03-08T14:49:00+01:00*%
%TF.ProjectId,test,74657374-2e6b-4696-9361-645f70636258,rev?*%
%TF.SameCoordinates,Original*%
%TF.FileFunction,Copper,L3,Inr*%
%TF.FilePolarity,Positive*%
%FSLAX46Y46*%
G04 Gerber Fmt 4.6, Leading zero omitted, Abs format (unit mm)*
G04 Created by KiCad (PCBNEW 9.0.7) date 2026-03-08 14:49:00*
%MOMM*%
%LPD*%
G01*
G04 APERTURE LIST*
%TA.AperFunction,ComponentPad*%
%ADD10C,1.524000*%
%TD*%
%TA.AperFunction,ComponentPad*%
%ADD11R,1.524000X1.524000*%
%TD*%
%TA.AperFunction,ComponentPad*%
%ADD12C,1.542000*%
%TD*%
%TA.AperFunction,ComponentPad*%
%ADD13R,1.542000X1.542000*%
%TD*%
%TA.AperFunction,ComponentPad*%
%ADD14C,1.600000*%
%TD*%
%TA.AperFunction,ComponentPad*%
%ADD15C,2.000000*%
%TD*%
%TA.AperFunction,ComponentPad*%
%ADD16R,1.600000X1.600000*%
%TD*%
%TA.AperFunction,ComponentPad*%
%ADD17O,1.600000X1.600000*%
%TD*%
%TA.AperFunction,ComponentPad*%
%ADD18R,1.800000X1.800000*%
%TD*%
%TA.AperFunction,ComponentPad*%
%ADD19C,1.800000*%
%TD*%
%TA.AperFunction,ViaPad*%
%ADD20C,0.600000*%
%TD*%
G04 APERTURE END LIST*
D10*
%TO.N,+5V*%
%TO.C,U1*%
X103666000Y-81915000D03*
%TO.N,GND*%
X101166000Y-81915000D03*
%TO.N,Net-(A1-A5)*%
X98666000Y-81915000D03*
%TO.N,Net-(A1-A4)*%
X96166000Y-81915000D03*
D11*
%TO.N,unconnected-(U1-INT-Pad1)*%
X93666000Y-81915000D03*
%TD*%
D12*
%TO.N,Net-(A1-A4)*%
%TO.C,U2*%
X108585000Y-50165000D03*
%TO.N,Net-(A1-A5)*%
X106045000Y-50165000D03*
%TO.N,+5V*%
X103505000Y-50165000D03*
D13*
%TO.N,GND*%
X100965000Y-50165000D03*
%TD*%
D14*
%TO.N,Net-(A1-D4)*%
%TO.C,C3*%
X148590000Y-90170000D03*
%TO.N,GND*%
X148590000Y-85170000D03*
%TD*%
%TO.N,Net-(A1-D12)*%
%TO.C,R4*%
X151130000Y-50800000D03*
%TO.N,Net-(D1-A)*%
X158750000Y-50800000D03*
%TD*%
D15*
%TO.N,GND*%
%TO.C,DOWN*%
X163830000Y-84400000D03*
X170330000Y-84400000D03*
%TO.N,Net-(A1-D4)*%
X163830000Y-88900000D03*
X170330000Y-88900000D03*
%TD*%
%TO.N,GND*%
%TO.C,MENU*%
X163680000Y-59000000D03*
X170180000Y-59000000D03*
%TO.N,Net-(A1-D2)*%
X163680000Y-63500000D03*
X170180000Y-63500000D03*
%TD*%
D16*
%TO.N,unconnected-(A1-D1{slash}TX-Pad1)*%
%TO.C,A1*%
X142240000Y-89535000D03*
D17*
%TO.N,unconnected-(A1-D0{slash}RX-Pad2)*%
X142240000Y-86995000D03*
%TO.N,unconnected-(A1-~{RESET}-Pad3)*%
X142240000Y-84455000D03*
%TO.N,GND*%
X142240000Y-81915000D03*
%TO.N,Net-(A1-D2)*%
X142240000Y-79375000D03*
%TO.N,Net-(A1-D3)*%
X142240000Y-76835000D03*
%TO.N,Net-(A1-D4)*%
X142240000Y-74295000D03*
%TO.N,unconnected-(A1-D5-Pad8)*%
X142240000Y-71755000D03*
%TO.N,unconnected-(A1-D6-Pad9)*%
X142240000Y-69215000D03*
%TO.N,unconnected-(A1-D7-Pad10)*%
X142240000Y-66675000D03*
%TO.N,unconnected-(A1-D8-Pad11)*%
X142240000Y-64135000D03*
%TO.N,unconnected-(A1-D9-Pad12)*%
X142240000Y-61595000D03*
%TO.N,unconnected-(A1-D10-Pad13)*%
X142240000Y-59055000D03*
%TO.N,unconnected-(A1-D11-Pad14)*%
X142240000Y-56515000D03*
%TO.N,Net-(A1-D12)*%
X142240000Y-53975000D03*
%TO.N,unconnected-(A1-D13-Pad16)*%
X127000000Y-53975000D03*
%TO.N,unconnected-(A1-3V3-Pad17)*%
X127000000Y-56515000D03*
%TO.N,unconnected-(A1-AREF-Pad18)*%
X127000000Y-59055000D03*
%TO.N,unconnected-(A1-A0-Pad19)*%
X127000000Y-61595000D03*
%TO.N,unconnected-(A1-A1-Pad20)*%
X127000000Y-64135000D03*
%TO.N,unconnected-(A1-A2-Pad21)*%
X127000000Y-66675000D03*
%TO.N,unconnected-(A1-A3-Pad22)*%
X127000000Y-69215000D03*
%TO.N,Net-(A1-A4)*%
X127000000Y-71755000D03*
%TO.N,Net-(A1-A5)*%
X127000000Y-74295000D03*
%TO.N,unconnected-(A1-A6-Pad25)*%
X127000000Y-76835000D03*
%TO.N,unconnected-(A1-A7-Pad26)*%
X127000000Y-79375000D03*
%TO.N,+5V*%
X127000000Y-81915000D03*
%TO.N,unconnected-(A1-~{RESET}-Pad28)*%
X127000000Y-84455000D03*
%TO.N,GND*%
X127000000Y-86995000D03*
%TO.N,unconnected-(A1-VIN-Pad30)*%
X127000000Y-89535000D03*
%TD*%
D14*
%TO.N,+5V*%
%TO.C,R1*%
X157330000Y-57730000D03*
%TO.N,Net-(A1-D2)*%
X157330000Y-65350000D03*
%TD*%
%TO.N,Net-(A1-D3)*%
%TO.C,C2*%
X149860000Y-77470000D03*
%TO.N,GND*%
X149860000Y-72470000D03*
%TD*%
D18*
%TO.N,GND*%
%TO.C,ALARM*%
X167640000Y-52070000D03*
D19*
%TO.N,Net-(D1-A)*%
X167640000Y-49530000D03*
%TD*%
D14*
%TO.N,+5V*%
%TO.C,R2*%
X157480000Y-71120000D03*
%TO.N,Net-(A1-D3)*%
X157480000Y-78740000D03*
%TD*%
%TO.N,+5V*%
%TO.C,R3*%
X157480000Y-83820000D03*
%TO.N,Net-(A1-D4)*%
X157480000Y-91440000D03*
%TD*%
D15*
%TO.N,GND*%
%TO.C,UP*%
X163830000Y-71700000D03*
X170330000Y-71700000D03*
%TO.N,Net-(A1-D3)*%
X163830000Y-76200000D03*
X170330000Y-76200000D03*
%TD*%
D14*
%TO.N,Net-(A1-D2)*%
%TO.C,C1*%
X149710000Y-64040000D03*
%TO.N,GND*%
X149710000Y-59040000D03*
%TD*%
D20*
%TO.N,Net-(A1-A4)*%
X107600000Y-71500000D03*
%TO.N,Net-(A1-D4)*%
X147173000Y-74700000D03*
%TO.N,Net-(A1-D2)*%
X147700000Y-78900000D03*
%TO.N,Net-(A1-A5)*%
X106200000Y-74300000D03*
%TD*%
M02*
